ISO-10303-21;
HEADER;
/* Generated by software containing ST-Developer
 * from STEP Tools, Inc. (www.steptools.com) 
 */
/* OPTION: using custom renumber hook */

FILE_DESCRIPTION(
/* description */ ('STEP AP242 Edition 2',
'CAx-IF Rec.Pracs.---Representation and Presentation of Product Manufa
cturing Information (PMI)---4.0---2014-10-13',
'CAx-IF Rec.Pracs.---3D Tessellated Geometry---0.4---2014-09-14','2;1',
'CAx-IF Rec.Pracs.---User Defined Attributes---1.5---2016-08-15'),
/* implementation_level */ '2;1');

FILE_NAME(
/* name */ 'case main frame - bottom part',
/* time_stamp */ '2026-10-04T20:13:12Z',
/* author */ (''),
/* organization */ (''),
/* preprocessor_version */ 'ST-DEVELOPER v20',
/* originating_system */ 'ONSHAPE BY PTC INC, 1.221',
/* authorisation */ '  ');

FILE_SCHEMA (('AP242_MANAGED_MODEL_BASED_3D_ENGINEERING_MIM_LF { 1 0 10303 442 3 1 4 }'));
ENDSEC;

DATA;
#10=SHAPE_REPRESENTATION_RELATIONSHIP('','',#613,#11);
#11=ADVANCED_BREP_SHAPE_REPRESENTATION('',(#611),#1035);
#12=SPHERICAL_SURFACE('',#660,0.0025);
#13=SPHERICAL_SURFACE('',#671,0.0025);
#14=SPHERICAL_SURFACE('',#673,0.0025);
#15=SPHERICAL_SURFACE('',#679,0.0025);
#16=CYLINDRICAL_SURFACE('',#627,0.0021);
#17=CYLINDRICAL_SURFACE('',#630,0.0021);
#18=CYLINDRICAL_SURFACE('',#633,0.0021);
#19=CYLINDRICAL_SURFACE('',#637,0.0021);
#20=CYLINDRICAL_SURFACE('',#651,0.00100000000000001);
#21=CYLINDRICAL_SURFACE('',#653,0.001);
#22=CYLINDRICAL_SURFACE('',#655,0.00100000000000001);
#23=CYLINDRICAL_SURFACE('',#657,0.001);
#24=CYLINDRICAL_SURFACE('',#658,0.0025);
#25=CYLINDRICAL_SURFACE('',#663,0.0025);
#26=CYLINDRICAL_SURFACE('',#665,0.0025);
#27=CYLINDRICAL_SURFACE('',#667,0.0025);
#28=CYLINDRICAL_SURFACE('',#669,0.0025);
#29=CYLINDRICAL_SURFACE('',#675,0.0025);
#30=CYLINDRICAL_SURFACE('',#677,0.0025);
#31=CYLINDRICAL_SURFACE('',#681,0.0025);
#32=CIRCLE('',#616,0.00100000000000001);
#33=CIRCLE('',#617,0.001);
#34=CIRCLE('',#618,0.00100000000000001);
#35=CIRCLE('',#619,0.001);
#36=CIRCLE('',#621,0.001);
#37=CIRCLE('',#622,0.00100000000000001);
#38=CIRCLE('',#623,0.001);
#39=CIRCLE('',#624,0.00100000000000001);
#40=CIRCLE('',#628,0.0021);
#41=CIRCLE('',#629,0.0021);
#42=CIRCLE('',#631,0.0021);
#43=CIRCLE('',#632,0.0021);
#44=CIRCLE('',#634,0.0021);
#45=CIRCLE('',#635,0.0021);
#46=CIRCLE('',#638,0.0021);
#47=CIRCLE('',#639,0.0021);
#48=CIRCLE('',#645,0.0025);
#49=CIRCLE('',#646,0.0025);
#50=CIRCLE('',#647,0.0025);
#51=CIRCLE('',#648,0.0025);
#52=CIRCLE('',#659,0.0025);
#53=CIRCLE('',#661,0.0025);
#54=CIRCLE('',#662,0.0025);
#55=CIRCLE('',#664,0.0025);
#56=CIRCLE('',#666,0.0025);
#57=CIRCLE('',#668,0.0025);
#58=CIRCLE('',#670,0.0025);
#59=CIRCLE('',#672,0.0025);
#60=CIRCLE('',#674,0.0025);
#61=CIRCLE('',#676,0.0025);
#62=CIRCLE('',#678,0.0025);
#63=CIRCLE('',#680,0.0025);
#64=ORIENTED_EDGE('',*,*,#224,.F.);
#65=ORIENTED_EDGE('',*,*,#225,.T.);
#66=ORIENTED_EDGE('',*,*,#226,.T.);
#67=ORIENTED_EDGE('',*,*,#227,.T.);
#68=ORIENTED_EDGE('',*,*,#228,.F.);
#69=ORIENTED_EDGE('',*,*,#229,.T.);
#70=ORIENTED_EDGE('',*,*,#230,.F.);
#71=ORIENTED_EDGE('',*,*,#231,.T.);
#72=ORIENTED_EDGE('',*,*,#232,.F.);
#73=ORIENTED_EDGE('',*,*,#233,.F.);
#74=ORIENTED_EDGE('',*,*,#234,.F.);
#75=ORIENTED_EDGE('',*,*,#235,.F.);
#76=ORIENTED_EDGE('',*,*,#236,.T.);
#77=ORIENTED_EDGE('',*,*,#237,.T.);
#78=ORIENTED_EDGE('',*,*,#238,.F.);
#79=ORIENTED_EDGE('',*,*,#239,.T.);
#80=ORIENTED_EDGE('',*,*,#240,.F.);
#81=ORIENTED_EDGE('',*,*,#241,.T.);
#82=ORIENTED_EDGE('',*,*,#242,.F.);
#83=ORIENTED_EDGE('',*,*,#243,.F.);
#84=ORIENTED_EDGE('',*,*,#244,.F.);
#85=ORIENTED_EDGE('',*,*,#245,.F.);
#86=ORIENTED_EDGE('',*,*,#246,.F.);
#87=ORIENTED_EDGE('',*,*,#247,.T.);
#88=ORIENTED_EDGE('',*,*,#248,.T.);
#89=ORIENTED_EDGE('',*,*,#249,.T.);
#90=ORIENTED_EDGE('',*,*,#250,.T.);
#91=ORIENTED_EDGE('',*,*,#251,.T.);
#92=ORIENTED_EDGE('',*,*,#252,.T.);
#93=ORIENTED_EDGE('',*,*,#253,.T.);
#94=ORIENTED_EDGE('',*,*,#254,.T.);
#95=ORIENTED_EDGE('',*,*,#255,.T.);
#96=ORIENTED_EDGE('',*,*,#256,.T.);
#97=ORIENTED_EDGE('',*,*,#257,.F.);
#98=ORIENTED_EDGE('',*,*,#258,.F.);
#99=ORIENTED_EDGE('',*,*,#259,.T.);
#100=ORIENTED_EDGE('',*,*,#260,.F.);
#101=ORIENTED_EDGE('',*,*,#261,.T.);
#102=ORIENTED_EDGE('',*,*,#262,.T.);
#103=ORIENTED_EDGE('',*,*,#263,.T.);
#104=ORIENTED_EDGE('',*,*,#264,.F.);
#105=ORIENTED_EDGE('',*,*,#265,.T.);
#106=ORIENTED_EDGE('',*,*,#266,.T.);
#107=ORIENTED_EDGE('',*,*,#267,.F.);
#108=ORIENTED_EDGE('',*,*,#268,.T.);
#109=ORIENTED_EDGE('',*,*,#269,.T.);
#110=ORIENTED_EDGE('',*,*,#270,.T.);
#111=ORIENTED_EDGE('',*,*,#271,.T.);
#112=ORIENTED_EDGE('',*,*,#266,.F.);
#113=ORIENTED_EDGE('',*,*,#256,.F.);
#114=ORIENTED_EDGE('',*,*,#258,.T.);
#115=ORIENTED_EDGE('',*,*,#260,.T.);
#116=ORIENTED_EDGE('',*,*,#272,.F.);
#117=ORIENTED_EDGE('',*,*,#273,.F.);
#118=ORIENTED_EDGE('',*,*,#274,.F.);
#119=ORIENTED_EDGE('',*,*,#238,.T.);
#120=ORIENTED_EDGE('',*,*,#275,.F.);
#121=ORIENTED_EDGE('',*,*,#276,.F.);
#122=ORIENTED_EDGE('',*,*,#277,.F.);
#123=ORIENTED_EDGE('',*,*,#273,.T.);
#124=ORIENTED_EDGE('',*,*,#276,.T.);
#125=ORIENTED_EDGE('',*,*,#278,.T.);
#126=ORIENTED_EDGE('',*,*,#236,.F.);
#127=ORIENTED_EDGE('',*,*,#279,.T.);
#128=ORIENTED_EDGE('',*,*,#254,.F.);
#129=ORIENTED_EDGE('',*,*,#280,.T.);
#130=ORIENTED_EDGE('',*,*,#224,.T.);
#131=ORIENTED_EDGE('',*,*,#281,.T.);
#132=ORIENTED_EDGE('',*,*,#264,.T.);
#133=ORIENTED_EDGE('',*,*,#282,.T.);
#134=ORIENTED_EDGE('',*,*,#250,.F.);
#135=ORIENTED_EDGE('',*,*,#283,.T.);
#136=ORIENTED_EDGE('',*,*,#261,.F.);
#137=ORIENTED_EDGE('',*,*,#259,.F.);
#138=ORIENTED_EDGE('',*,*,#257,.T.);
#139=ORIENTED_EDGE('',*,*,#267,.T.);
#140=ORIENTED_EDGE('',*,*,#239,.F.);
#141=ORIENTED_EDGE('',*,*,#274,.T.);
#142=ORIENTED_EDGE('',*,*,#277,.T.);
#143=ORIENTED_EDGE('',*,*,#279,.F.);
#144=ORIENTED_EDGE('',*,*,#237,.F.);
#145=ORIENTED_EDGE('',*,*,#278,.F.);
#146=ORIENTED_EDGE('',*,*,#275,.T.);
#147=ORIENTED_EDGE('',*,*,#272,.T.);
#148=ORIENTED_EDGE('',*,*,#284,.T.);
#149=ORIENTED_EDGE('',*,*,#229,.F.);
#150=ORIENTED_EDGE('',*,*,#285,.F.);
#151=ORIENTED_EDGE('',*,*,#241,.F.);
#152=ORIENTED_EDGE('',*,*,#242,.T.);
#153=ORIENTED_EDGE('',*,*,#285,.T.);
#154=ORIENTED_EDGE('',*,*,#228,.T.);
#155=ORIENTED_EDGE('',*,*,#286,.F.);
#156=ORIENTED_EDGE('',*,*,#243,.T.);
#157=ORIENTED_EDGE('',*,*,#286,.T.);
#158=ORIENTED_EDGE('',*,*,#235,.T.);
#159=ORIENTED_EDGE('',*,*,#287,.F.);
#160=ORIENTED_EDGE('',*,*,#244,.T.);
#161=ORIENTED_EDGE('',*,*,#287,.T.);
#162=ORIENTED_EDGE('',*,*,#234,.T.);
#163=ORIENTED_EDGE('',*,*,#288,.F.);
#164=ORIENTED_EDGE('',*,*,#245,.T.);
#165=ORIENTED_EDGE('',*,*,#288,.T.);
#166=ORIENTED_EDGE('',*,*,#233,.T.);
#167=ORIENTED_EDGE('',*,*,#289,.F.);
#168=ORIENTED_EDGE('',*,*,#246,.T.);
#169=ORIENTED_EDGE('',*,*,#289,.T.);
#170=ORIENTED_EDGE('',*,*,#232,.T.);
#171=ORIENTED_EDGE('',*,*,#290,.F.);
#172=ORIENTED_EDGE('',*,*,#290,.T.);
#173=ORIENTED_EDGE('',*,*,#231,.F.);
#174=ORIENTED_EDGE('',*,*,#291,.F.);
#175=ORIENTED_EDGE('',*,*,#247,.F.);
#176=ORIENTED_EDGE('',*,*,#240,.T.);
#177=ORIENTED_EDGE('',*,*,#291,.T.);
#178=ORIENTED_EDGE('',*,*,#230,.T.);
#179=ORIENTED_EDGE('',*,*,#284,.F.);
#180=ORIENTED_EDGE('',*,*,#292,.F.);
#181=ORIENTED_EDGE('',*,*,#251,.F.);
#182=ORIENTED_EDGE('',*,*,#282,.F.);
#183=ORIENTED_EDGE('',*,*,#263,.F.);
#184=ORIENTED_EDGE('',*,*,#293,.F.);
#185=ORIENTED_EDGE('',*,*,#292,.T.);
#186=ORIENTED_EDGE('',*,*,#294,.F.);
#187=ORIENTED_EDGE('',*,*,#281,.F.);
#188=ORIENTED_EDGE('',*,*,#227,.F.);
#189=ORIENTED_EDGE('',*,*,#295,.F.);
#190=ORIENTED_EDGE('',*,*,#265,.F.);
#191=ORIENTED_EDGE('',*,*,#294,.T.);
#192=ORIENTED_EDGE('',*,*,#262,.F.);
#193=ORIENTED_EDGE('',*,*,#296,.F.);
#194=ORIENTED_EDGE('',*,*,#270,.F.);
#195=ORIENTED_EDGE('',*,*,#293,.T.);
#196=ORIENTED_EDGE('',*,*,#269,.F.);
#197=ORIENTED_EDGE('',*,*,#297,.F.);
#198=ORIENTED_EDGE('',*,*,#248,.F.);
#199=ORIENTED_EDGE('',*,*,#283,.F.);
#200=ORIENTED_EDGE('',*,*,#249,.F.);
#201=ORIENTED_EDGE('',*,*,#298,.F.);
#202=ORIENTED_EDGE('',*,*,#255,.F.);
#203=ORIENTED_EDGE('',*,*,#296,.T.);
#204=ORIENTED_EDGE('',*,*,#295,.T.);
#205=ORIENTED_EDGE('',*,*,#299,.F.);
#206=ORIENTED_EDGE('',*,*,#298,.T.);
#207=ORIENTED_EDGE('',*,*,#297,.T.);
#208=ORIENTED_EDGE('',*,*,#300,.F.);
#209=ORIENTED_EDGE('',*,*,#299,.T.);
#210=ORIENTED_EDGE('',*,*,#226,.F.);
#211=ORIENTED_EDGE('',*,*,#301,.F.);
#212=ORIENTED_EDGE('',*,*,#271,.F.);
#213=ORIENTED_EDGE('',*,*,#300,.T.);
#214=ORIENTED_EDGE('',*,*,#268,.F.);
#215=ORIENTED_EDGE('',*,*,#302,.F.);
#216=ORIENTED_EDGE('',*,*,#252,.F.);
#217=ORIENTED_EDGE('',*,*,#302,.T.);
#218=ORIENTED_EDGE('',*,*,#301,.T.);
#219=ORIENTED_EDGE('',*,*,#303,.F.);
#220=ORIENTED_EDGE('',*,*,#280,.F.);
#221=ORIENTED_EDGE('',*,*,#253,.F.);
#222=ORIENTED_EDGE('',*,*,#303,.T.);
#223=ORIENTED_EDGE('',*,*,#225,.F.);
#224=EDGE_CURVE('',#304,#305,#356,.T.);
#225=EDGE_CURVE('',#304,#306,#357,.T.);
#226=EDGE_CURVE('',#306,#307,#358,.T.);
#227=EDGE_CURVE('',#307,#305,#359,.F.);
#228=EDGE_CURVE('',#308,#309,#32,.T.);
#229=EDGE_CURVE('',#308,#310,#360,.T.);
#230=EDGE_CURVE('',#311,#310,#33,.T.);
#231=EDGE_CURVE('',#311,#312,#361,.T.);
#232=EDGE_CURVE('',#313,#312,#34,.T.);
#233=EDGE_CURVE('',#314,#313,#362,.T.);
#234=EDGE_CURVE('',#315,#314,#35,.T.);
#235=EDGE_CURVE('',#309,#315,#363,.T.);
#236=EDGE_CURVE('',#316,#317,#364,.T.);
#237=EDGE_CURVE('',#317,#318,#365,.T.);
#238=EDGE_CURVE('',#319,#318,#366,.T.);
#239=EDGE_CURVE('',#319,#316,#367,.T.);
#240=EDGE_CURVE('',#320,#321,#36,.T.);
#241=EDGE_CURVE('',#320,#322,#368,.T.);
#242=EDGE_CURVE('',#323,#322,#37,.T.);
#243=EDGE_CURVE('',#324,#323,#369,.T.);
#244=EDGE_CURVE('',#325,#324,#38,.T.);
#245=EDGE_CURVE('',#326,#325,#370,.T.);
#246=EDGE_CURVE('',#327,#326,#39,.T.);
#247=EDGE_CURVE('',#327,#321,#371,.T.);
#248=EDGE_CURVE('',#328,#329,#372,.F.);
#249=EDGE_CURVE('',#329,#330,#373,.F.);
#250=EDGE_CURVE('',#330,#331,#374,.T.);
#251=EDGE_CURVE('',#331,#328,#375,.T.);
#252=EDGE_CURVE('',#332,#333,#376,.F.);
#253=EDGE_CURVE('',#333,#334,#377,.F.);
#254=EDGE_CURVE('',#334,#335,#378,.T.);
#255=EDGE_CURVE('',#335,#332,#379,.T.);
#256=EDGE_CURVE('',#336,#336,#40,.T.);
#257=EDGE_CURVE('',#337,#337,#41,.T.);
#258=EDGE_CURVE('',#338,#338,#42,.T.);
#259=EDGE_CURVE('',#339,#339,#43,.T.);
#260=EDGE_CURVE('',#340,#340,#44,.T.);
#261=EDGE_CURVE('',#341,#341,#45,.T.);
#262=EDGE_CURVE('',#342,#343,#380,.T.);
#263=EDGE_CURVE('',#343,#344,#381,.F.);
#264=EDGE_CURVE('',#345,#344,#382,.T.);
#265=EDGE_CURVE('',#345,#342,#383,.T.);
#266=EDGE_CURVE('',#346,#346,#46,.T.);
#267=EDGE_CURVE('',#347,#347,#47,.T.);
#268=EDGE_CURVE('',#348,#349,#384,.T.);
#269=EDGE_CURVE('',#349,#350,#385,.T.);
#270=EDGE_CURVE('',#350,#351,#386,.F.);
#271=EDGE_CURVE('',#351,#348,#387,.F.);
#272=EDGE_CURVE('',#352,#318,#388,.T.);
#273=EDGE_CURVE('',#353,#352,#389,.T.);
#274=EDGE_CURVE('',#319,#353,#390,.T.);
#275=EDGE_CURVE('',#354,#352,#391,.T.);
#276=EDGE_CURVE('',#355,#354,#392,.T.);
#277=EDGE_CURVE('',#353,#355,#393,.T.);
#278=EDGE_CURVE('',#354,#317,#394,.T.);
#279=EDGE_CURVE('',#316,#355,#395,.T.);
#280=EDGE_CURVE('',#334,#304,#48,.T.);
#281=EDGE_CURVE('',#305,#345,#49,.T.);
#282=EDGE_CURVE('',#344,#331,#50,.T.);
#283=EDGE_CURVE('',#330,#335,#51,.T.);
#284=EDGE_CURVE('',#320,#310,#396,.T.);
#285=EDGE_CURVE('',#322,#308,#397,.T.);
#286=EDGE_CURVE('',#323,#309,#398,.T.);
#287=EDGE_CURVE('',#324,#315,#399,.T.);
#288=EDGE_CURVE('',#325,#314,#400,.T.);
#289=EDGE_CURVE('',#326,#313,#401,.T.);
#290=EDGE_CURVE('',#327,#312,#402,.T.);
#291=EDGE_CURVE('',#321,#311,#403,.T.);
#292=EDGE_CURVE('',#328,#343,#52,.T.);
#293=EDGE_CURVE('',#328,#350,#53,.F.);
#294=EDGE_CURVE('',#350,#343,#54,.F.);
#295=EDGE_CURVE('',#342,#307,#55,.T.);
#296=EDGE_CURVE('',#351,#342,#56,.T.);
#297=EDGE_CURVE('',#329,#349,#57,.T.);
#298=EDGE_CURVE('',#332,#329,#58,.T.);
#299=EDGE_CURVE('',#351,#307,#59,.F.);
#300=EDGE_CURVE('',#332,#349,#60,.F.);
#301=EDGE_CURVE('',#348,#306,#61,.T.);
#302=EDGE_CURVE('',#333,#348,#62,.T.);
#303=EDGE_CURVE('',#333,#306,#63,.F.);
#304=VERTEX_POINT('',#869);
#305=VERTEX_POINT('',#870);
#306=VERTEX_POINT('',#872);
#307=VERTEX_POINT('',#874);
#308=VERTEX_POINT('',#877);
#309=VERTEX_POINT('',#878);
#310=VERTEX_POINT('',#880);
#311=VERTEX_POINT('',#882);
#312=VERTEX_POINT('',#884);
#313=VERTEX_POINT('',#886);
#314=VERTEX_POINT('',#888);
#315=VERTEX_POINT('',#890);
#316=VERTEX_POINT('',#894);
#317=VERTEX_POINT('',#895);
#318=VERTEX_POINT('',#897);
#319=VERTEX_POINT('',#899);
#320=VERTEX_POINT('',#902);
#321=VERTEX_POINT('',#903);
#322=VERTEX_POINT('',#905);
#323=VERTEX_POINT('',#907);
#324=VERTEX_POINT('',#909);
#325=VERTEX_POINT('',#911);
#326=VERTEX_POINT('',#913);
#327=VERTEX_POINT('',#915);
#328=VERTEX_POINT('',#919);
#329=VERTEX_POINT('',#920);
#330=VERTEX_POINT('',#922);
#331=VERTEX_POINT('',#924);
#332=VERTEX_POINT('',#928);
#333=VERTEX_POINT('',#929);
#334=VERTEX_POINT('',#931);
#335=VERTEX_POINT('',#933);
#336=VERTEX_POINT('',#937);
#337=VERTEX_POINT('',#939);
#338=VERTEX_POINT('',#942);
#339=VERTEX_POINT('',#944);
#340=VERTEX_POINT('',#947);
#341=VERTEX_POINT('',#949);
#342=VERTEX_POINT('',#952);
#343=VERTEX_POINT('',#953);
#344=VERTEX_POINT('',#955);
#345=VERTEX_POINT('',#957);
#346=VERTEX_POINT('',#961);
#347=VERTEX_POINT('',#963);
#348=VERTEX_POINT('',#966);
#349=VERTEX_POINT('',#967);
#350=VERTEX_POINT('',#969);
#351=VERTEX_POINT('',#971);
#352=VERTEX_POINT('',#975);
#353=VERTEX_POINT('',#977);
#354=VERTEX_POINT('',#981);
#355=VERTEX_POINT('',#983);
#356=LINE('',#868,#404);
#357=LINE('',#871,#405);
#358=LINE('',#873,#406);
#359=LINE('',#875,#407);
#360=LINE('',#879,#408);
#361=LINE('',#883,#409);
#362=LINE('',#887,#410);
#363=LINE('',#891,#411);
#364=LINE('',#893,#412);
#365=LINE('',#896,#413);
#366=LINE('',#898,#414);
#367=LINE('',#900,#415);
#368=LINE('',#904,#416);
#369=LINE('',#908,#417);
#370=LINE('',#912,#418);
#371=LINE('',#916,#419);
#372=LINE('',#918,#420);
#373=LINE('',#921,#421);
#374=LINE('',#923,#422);
#375=LINE('',#925,#423);
#376=LINE('',#927,#424);
#377=LINE('',#930,#425);
#378=LINE('',#932,#426);
#379=LINE('',#934,#427);
#380=LINE('',#951,#428);
#381=LINE('',#954,#429);
#382=LINE('',#956,#430);
#383=LINE('',#958,#431);
#384=LINE('',#965,#432);
#385=LINE('',#968,#433);
#386=LINE('',#970,#434);
#387=LINE('',#972,#435);
#388=LINE('',#974,#436);
#389=LINE('',#976,#437);
#390=LINE('',#978,#438);
#391=LINE('',#980,#439);
#392=LINE('',#982,#440);
#393=LINE('',#984,#441);
#394=LINE('',#986,#442);
#395=LINE('',#987,#443);
#396=LINE('',#995,#444);
#397=LINE('',#996,#445);
#398=LINE('',#998,#446);
#399=LINE('',#1000,#447);
#400=LINE('',#1002,#448);
#401=LINE('',#1004,#449);
#402=LINE('',#1006,#450);
#403=LINE('',#1008,#451);
#404=VECTOR('',#686,1.);
#405=VECTOR('',#687,1.);
#406=VECTOR('',#688,1.);
#407=VECTOR('',#689,1.);
#408=VECTOR('',#692,1.);
#409=VECTOR('',#695,1.);
#410=VECTOR('',#698,1.);
#411=VECTOR('',#701,1.);
#412=VECTOR('',#704,1.);
#413=VECTOR('',#705,1.);
#414=VECTOR('',#706,1.);
#415=VECTOR('',#707,1.);
#416=VECTOR('',#710,1.);
#417=VECTOR('',#713,1.);
#418=VECTOR('',#716,1.);
#419=VECTOR('',#719,1.);
#420=VECTOR('',#722,1.);
#421=VECTOR('',#723,1.);
#422=VECTOR('',#724,1.);
#423=VECTOR('',#725,1.);
#424=VECTOR('',#728,1.);
#425=VECTOR('',#729,1.);
#426=VECTOR('',#730,1.);
#427=VECTOR('',#731,1.);
#428=VECTOR('',#752,1.);
#429=VECTOR('',#753,1.);
#430=VECTOR('',#754,1.);
#431=VECTOR('',#755,1.);
#432=VECTOR('',#764,1.);
#433=VECTOR('',#765,1.);
#434=VECTOR('',#766,1.);
#435=VECTOR('',#767,1.);
#436=VECTOR('',#770,1.);
#437=VECTOR('',#771,1.);
#438=VECTOR('',#772,1.);
#439=VECTOR('',#775,1.);
#440=VECTOR('',#776,1.);
#441=VECTOR('',#777,1.);
#442=VECTOR('',#780,1.);
#443=VECTOR('',#781,1.);
#444=VECTOR('',#796,1.);
#445=VECTOR('',#797,1.);
#446=VECTOR('',#800,1.);
#447=VECTOR('',#803,1.);
#448=VECTOR('',#806,1.);
#449=VECTOR('',#809,1.);
#450=VECTOR('',#812,1.);
#451=VECTOR('',#815,1.);
#452=EDGE_LOOP('',(#64,#65,#66,#67));
#453=EDGE_LOOP('',(#68,#69,#70,#71,#72,#73,#74,#75));
#454=EDGE_LOOP('',(#76,#77,#78,#79));
#455=EDGE_LOOP('',(#80,#81,#82,#83,#84,#85,#86,#87));
#456=EDGE_LOOP('',(#88,#89,#90,#91));
#457=EDGE_LOOP('',(#92,#93,#94,#95));
#458=EDGE_LOOP('',(#96));
#459=EDGE_LOOP('',(#97));
#460=EDGE_LOOP('',(#98));
#461=EDGE_LOOP('',(#99));
#462=EDGE_LOOP('',(#100));
#463=EDGE_LOOP('',(#101));
#464=EDGE_LOOP('',(#102,#103,#104,#105));
#465=EDGE_LOOP('',(#106));
#466=EDGE_LOOP('',(#107));
#467=EDGE_LOOP('',(#108,#109,#110,#111));
#468=EDGE_LOOP('',(#112));
#469=EDGE_LOOP('',(#113));
#470=EDGE_LOOP('',(#114));
#471=EDGE_LOOP('',(#115));
#472=EDGE_LOOP('',(#116,#117,#118,#119));
#473=EDGE_LOOP('',(#120,#121,#122,#123));
#474=EDGE_LOOP('',(#124,#125,#126,#127));
#475=EDGE_LOOP('',(#128,#129,#130,#131,#132,#133,#134,#135));
#476=EDGE_LOOP('',(#136));
#477=EDGE_LOOP('',(#137));
#478=EDGE_LOOP('',(#138));
#479=EDGE_LOOP('',(#139));
#480=EDGE_LOOP('',(#140,#141,#142,#143));
#481=EDGE_LOOP('',(#144,#145,#146,#147));
#482=EDGE_LOOP('',(#148,#149,#150,#151));
#483=EDGE_LOOP('',(#152,#153,#154,#155));
#484=EDGE_LOOP('',(#156,#157,#158,#159));
#485=EDGE_LOOP('',(#160,#161,#162,#163));
#486=EDGE_LOOP('',(#164,#165,#166,#167));
#487=EDGE_LOOP('',(#168,#169,#170,#171));
#488=EDGE_LOOP('',(#172,#173,#174,#175));
#489=EDGE_LOOP('',(#176,#177,#178,#179));
#490=EDGE_LOOP('',(#180,#181,#182,#183));
#491=EDGE_LOOP('',(#184,#185,#186));
#492=EDGE_LOOP('',(#187,#188,#189,#190));
#493=EDGE_LOOP('',(#191,#192,#193,#194));
#494=EDGE_LOOP('',(#195,#196,#197,#198));
#495=EDGE_LOOP('',(#199,#200,#201,#202));
#496=EDGE_LOOP('',(#203,#204,#205));
#497=EDGE_LOOP('',(#206,#207,#208));
#498=EDGE_LOOP('',(#209,#210,#211,#212));
#499=EDGE_LOOP('',(#213,#214,#215,#216));
#500=EDGE_LOOP('',(#217,#218,#219));
#501=EDGE_LOOP('',(#220,#221,#222,#223));
#502=FACE_BOUND('',#452,.T.);
#503=FACE_BOUND('',#453,.T.);
#504=FACE_BOUND('',#454,.T.);
#505=FACE_BOUND('',#455,.T.);
#506=FACE_BOUND('',#456,.T.);
#507=FACE_BOUND('',#457,.T.);
#508=FACE_BOUND('',#458,.T.);
#509=FACE_BOUND('',#459,.T.);
#510=FACE_BOUND('',#460,.T.);
#511=FACE_BOUND('',#461,.T.);
#512=FACE_BOUND('',#462,.T.);
#513=FACE_BOUND('',#463,.T.);
#514=FACE_BOUND('',#464,.T.);
#515=FACE_BOUND('',#465,.T.);
#516=FACE_BOUND('',#466,.T.);
#517=FACE_BOUND('',#467,.T.);
#518=FACE_BOUND('',#468,.T.);
#519=FACE_BOUND('',#469,.T.);
#520=FACE_BOUND('',#470,.T.);
#521=FACE_BOUND('',#471,.T.);
#522=FACE_BOUND('',#472,.T.);
#523=FACE_BOUND('',#473,.T.);
#524=FACE_BOUND('',#474,.T.);
#525=FACE_BOUND('',#475,.T.);
#526=FACE_BOUND('',#476,.T.);
#527=FACE_BOUND('',#477,.T.);
#528=FACE_BOUND('',#478,.T.);
#529=FACE_BOUND('',#479,.T.);
#530=FACE_BOUND('',#480,.T.);
#531=FACE_BOUND('',#481,.T.);
#532=FACE_BOUND('',#482,.T.);
#533=FACE_BOUND('',#483,.T.);
#534=FACE_BOUND('',#484,.T.);
#535=FACE_BOUND('',#485,.T.);
#536=FACE_BOUND('',#486,.T.);
#537=FACE_BOUND('',#487,.T.);
#538=FACE_BOUND('',#488,.T.);
#539=FACE_BOUND('',#489,.T.);
#540=FACE_BOUND('',#490,.T.);
#541=FACE_BOUND('',#491,.T.);
#542=FACE_BOUND('',#492,.T.);
#543=FACE_BOUND('',#493,.T.);
#544=FACE_BOUND('',#494,.T.);
#545=FACE_BOUND('',#495,.T.);
#546=FACE_BOUND('',#496,.T.);
#547=FACE_BOUND('',#497,.T.);
#548=FACE_BOUND('',#498,.T.);
#549=FACE_BOUND('',#499,.T.);
#550=FACE_BOUND('',#500,.T.);
#551=FACE_BOUND('',#501,.T.);
#552=PLANE('',#615);
#553=PLANE('',#620);
#554=PLANE('',#625);
#555=PLANE('',#626);
#556=PLANE('',#636);
#557=PLANE('',#640);
#558=PLANE('',#641);
#559=PLANE('',#642);
#560=PLANE('',#643);
#561=PLANE('',#644);
#562=PLANE('',#649);
#563=PLANE('',#650);
#564=PLANE('',#652);
#565=PLANE('',#654);
#566=PLANE('',#656);
#567=ADVANCED_FACE('',(#502,#503),#552,.F.);
#568=ADVANCED_FACE('',(#504,#505),#553,.T.);
#569=ADVANCED_FACE('',(#506),#554,.T.);
#570=ADVANCED_FACE('',(#507),#555,.T.);
#571=ADVANCED_FACE('',(#508,#509),#16,.F.);
#572=ADVANCED_FACE('',(#510,#511),#17,.F.);
#573=ADVANCED_FACE('',(#512,#513),#18,.F.);
#574=ADVANCED_FACE('',(#514),#556,.F.);
#575=ADVANCED_FACE('',(#515,#516),#19,.F.);
#576=ADVANCED_FACE('',(#517,#518,#519,#520,#521),#557,.F.);
#577=ADVANCED_FACE('',(#522),#558,.F.);
#578=ADVANCED_FACE('',(#523),#559,.F.);
#579=ADVANCED_FACE('',(#524),#560,.T.);
#580=ADVANCED_FACE('',(#525,#526,#527,#528,#529,#530),#561,.T.);
#581=ADVANCED_FACE('',(#531),#562,.T.);
#582=ADVANCED_FACE('',(#532),#563,.T.);
#583=ADVANCED_FACE('',(#533),#20,.F.);
#584=ADVANCED_FACE('',(#534),#564,.F.);
#585=ADVANCED_FACE('',(#535),#21,.F.);
#586=ADVANCED_FACE('',(#536),#565,.F.);
#587=ADVANCED_FACE('',(#537),#22,.F.);
#588=ADVANCED_FACE('',(#538),#566,.T.);
#589=ADVANCED_FACE('',(#539),#23,.F.);
#590=ADVANCED_FACE('',(#540),#24,.T.);
#591=ADVANCED_FACE('',(#541),#12,.T.);
#592=ADVANCED_FACE('',(#542),#25,.T.);
#593=ADVANCED_FACE('',(#543),#26,.T.);
#594=ADVANCED_FACE('',(#544),#27,.T.);
#595=ADVANCED_FACE('',(#545),#28,.T.);
#596=ADVANCED_FACE('',(#546),#13,.T.);
#597=ADVANCED_FACE('',(#547),#14,.T.);
#598=ADVANCED_FACE('',(#548),#29,.T.);
#599=ADVANCED_FACE('',(#549),#30,.T.);
#600=ADVANCED_FACE('',(#550),#15,.T.);
#601=ADVANCED_FACE('',(#551),#31,.T.);
#602=CLOSED_SHELL('',(#567,#568,#569,#570,#571,#572,#573,#574,#575,#576,
#577,#578,#579,#580,#581,#582,#583,#584,#585,#586,#587,#588,#589,#590,#591,
#592,#593,#594,#595,#596,#597,#598,#599,#600,#601));
#603=STYLED_ITEM('',(#604),#611);
#604=PRESENTATION_STYLE_ASSIGNMENT((#605));
#605=SURFACE_STYLE_USAGE(.BOTH.,#606);
#606=SURFACE_SIDE_STYLE('',(#607));
#607=SURFACE_STYLE_FILL_AREA(#608);
#608=FILL_AREA_STYLE('',(#609));
#609=FILL_AREA_STYLE_COLOUR('',#610);
#610=COLOUR_RGB('',0.0862745098039216,0.31764705882353,0.690196078431373);
#611=MANIFOLD_SOLID_BREP('bottom part',#602);
#612=SHAPE_DEFINITION_REPRESENTATION(#1040,#613);
#613=SHAPE_REPRESENTATION('bottom part',(#614),#1035);
#614=AXIS2_PLACEMENT_3D('',#866,#682,#683);
#615=AXIS2_PLACEMENT_3D('',#867,#684,#685);
#616=AXIS2_PLACEMENT_3D('',#876,#690,#691);
#617=AXIS2_PLACEMENT_3D('',#881,#693,#694);
#618=AXIS2_PLACEMENT_3D('',#885,#696,#697);
#619=AXIS2_PLACEMENT_3D('',#889,#699,#700);
#620=AXIS2_PLACEMENT_3D('',#892,#702,#703);
#621=AXIS2_PLACEMENT_3D('',#901,#708,#709);
#622=AXIS2_PLACEMENT_3D('',#906,#711,#712);
#623=AXIS2_PLACEMENT_3D('',#910,#714,#715);
#624=AXIS2_PLACEMENT_3D('',#914,#717,#718);
#625=AXIS2_PLACEMENT_3D('',#917,#720,#721);
#626=AXIS2_PLACEMENT_3D('',#926,#726,#727);
#627=AXIS2_PLACEMENT_3D('',#935,#732,#733);
#628=AXIS2_PLACEMENT_3D('',#936,#734,#735);
#629=AXIS2_PLACEMENT_3D('',#938,#736,#737);
#630=AXIS2_PLACEMENT_3D('',#940,#738,#739);
#631=AXIS2_PLACEMENT_3D('',#941,#740,#741);
#632=AXIS2_PLACEMENT_3D('',#943,#742,#743);
#633=AXIS2_PLACEMENT_3D('',#945,#744,#745);
#634=AXIS2_PLACEMENT_3D('',#946,#746,#747);
#635=AXIS2_PLACEMENT_3D('',#948,#748,#749);
#636=AXIS2_PLACEMENT_3D('',#950,#750,#751);
#637=AXIS2_PLACEMENT_3D('',#959,#756,#757);
#638=AXIS2_PLACEMENT_3D('',#960,#758,#759);
#639=AXIS2_PLACEMENT_3D('',#962,#760,#761);
#640=AXIS2_PLACEMENT_3D('',#964,#762,#763);
#641=AXIS2_PLACEMENT_3D('',#973,#768,#769);
#642=AXIS2_PLACEMENT_3D('',#979,#773,#774);
#643=AXIS2_PLACEMENT_3D('',#985,#778,#779);
#644=AXIS2_PLACEMENT_3D('',#988,#782,#783);
#645=AXIS2_PLACEMENT_3D('',#989,#784,#785);
#646=AXIS2_PLACEMENT_3D('',#990,#786,#787);
#647=AXIS2_PLACEMENT_3D('',#991,#788,#789);
#648=AXIS2_PLACEMENT_3D('',#992,#790,#791);
#649=AXIS2_PLACEMENT_3D('',#993,#792,#793);
#650=AXIS2_PLACEMENT_3D('',#994,#794,#795);
#651=AXIS2_PLACEMENT_3D('',#997,#798,#799);
#652=AXIS2_PLACEMENT_3D('',#999,#801,#802);
#653=AXIS2_PLACEMENT_3D('',#1001,#804,#805);
#654=AXIS2_PLACEMENT_3D('',#1003,#807,#808);
#655=AXIS2_PLACEMENT_3D('',#1005,#810,#811);
#656=AXIS2_PLACEMENT_3D('',#1007,#813,#814);
#657=AXIS2_PLACEMENT_3D('',#1009,#816,#817);
#658=AXIS2_PLACEMENT_3D('',#1010,#818,#819);
#659=AXIS2_PLACEMENT_3D('',#1011,#820,#821);
#660=AXIS2_PLACEMENT_3D('',#1012,#822,#823);
#661=AXIS2_PLACEMENT_3D('',#1013,#824,#825);
#662=AXIS2_PLACEMENT_3D('',#1014,#826,#827);
#663=AXIS2_PLACEMENT_3D('',#1015,#828,#829);
#664=AXIS2_PLACEMENT_3D('',#1016,#830,#831);
#665=AXIS2_PLACEMENT_3D('',#1017,#832,#833);
#666=AXIS2_PLACEMENT_3D('',#1018,#834,#835);
#667=AXIS2_PLACEMENT_3D('',#1019,#836,#837);
#668=AXIS2_PLACEMENT_3D('',#1020,#838,#839);
#669=AXIS2_PLACEMENT_3D('',#1021,#840,#841);
#670=AXIS2_PLACEMENT_3D('',#1022,#842,#843);
#671=AXIS2_PLACEMENT_3D('',#1023,#844,#845);
#672=AXIS2_PLACEMENT_3D('',#1024,#846,#847);
#673=AXIS2_PLACEMENT_3D('',#1025,#848,#849);
#674=AXIS2_PLACEMENT_3D('',#1026,#850,#851);
#675=AXIS2_PLACEMENT_3D('',#1027,#852,#853);
#676=AXIS2_PLACEMENT_3D('',#1028,#854,#855);
#677=AXIS2_PLACEMENT_3D('',#1029,#856,#857);
#678=AXIS2_PLACEMENT_3D('',#1030,#858,#859);
#679=AXIS2_PLACEMENT_3D('',#1031,#860,#861);
#680=AXIS2_PLACEMENT_3D('',#1032,#862,#863);
#681=AXIS2_PLACEMENT_3D('',#1033,#864,#865);
#682=DIRECTION('',(0.,0.,1.));
#683=DIRECTION('',(1.,0.,0.));
#684=DIRECTION('',(0.,1.,0.));
#685=DIRECTION('',(0.,0.,1.));
#686=DIRECTION('',(1.,0.,0.));
#687=DIRECTION('',(0.,0.,-1.));
#688=DIRECTION('',(1.,0.,0.));
#689=DIRECTION('',(0.,0.,-1.));
#690=DIRECTION('',(0.,-1.,0.));
#691=DIRECTION('',(0.,0.,-1.));
#692=DIRECTION('',(0.,0.,1.));
#693=DIRECTION('',(0.,-1.,0.));
#694=DIRECTION('',(0.,0.,-1.));
#695=DIRECTION('',(1.,0.,0.));
#696=DIRECTION('',(0.,-1.,0.));
#697=DIRECTION('',(0.,0.,-1.));
#698=DIRECTION('',(0.,0.,1.));
#699=DIRECTION('',(0.,-1.,0.));
#700=DIRECTION('',(0.,0.,-1.));
#701=DIRECTION('',(1.,0.,0.));
#702=DIRECTION('',(0.,1.,0.));
#703=DIRECTION('',(0.,0.,1.));
#704=DIRECTION('',(0.,0.,-1.));
#705=DIRECTION('',(-1.,0.,0.));
#706=DIRECTION('',(0.,0.,-1.));
#707=DIRECTION('',(1.,0.,0.));
#708=DIRECTION('',(0.,1.,0.));
#709=DIRECTION('',(0.,0.,1.));
#710=DIRECTION('',(0.,0.,-1.));
#711=DIRECTION('',(0.,1.,0.));
#712=DIRECTION('',(0.,0.,1.));
#713=DIRECTION('',(-1.,0.,0.));
#714=DIRECTION('',(0.,1.,0.));
#715=DIRECTION('',(0.,0.,1.));
#716=DIRECTION('',(0.,0.,-1.));
#717=DIRECTION('',(0.,1.,0.));
#718=DIRECTION('',(0.,0.,1.));
#719=DIRECTION('',(-1.,0.,0.));
#720=DIRECTION('',(0.,1.,0.));
#721=DIRECTION('',(0.,0.,1.));
#722=DIRECTION('',(1.,0.,0.));
#723=DIRECTION('',(0.,0.,-1.));
#724=DIRECTION('',(1.,0.,0.));
#725=DIRECTION('',(0.,0.,-1.));
#726=DIRECTION('',(-1.,0.,0.));
#727=DIRECTION('',(0.,0.,1.));
#728=DIRECTION('',(0.,1.,0.));
#729=DIRECTION('',(0.,0.,-1.));
#730=DIRECTION('',(0.,1.,0.));
#731=DIRECTION('',(0.,0.,-1.));
#732=DIRECTION('',(0.,0.,-1.));
#733=DIRECTION('',(-1.,0.,0.));
#734=DIRECTION('',(0.,0.,-1.));
#735=DIRECTION('',(1.,0.,0.));
#736=DIRECTION('',(0.,0.,-1.));
#737=DIRECTION('',(1.,0.,0.));
#738=DIRECTION('',(0.,0.,-1.));
#739=DIRECTION('',(-1.,0.,0.));
#740=DIRECTION('',(0.,0.,1.));
#741=DIRECTION('',(1.,0.,0.));
#742=DIRECTION('',(0.,0.,1.));
#743=DIRECTION('',(1.,0.,0.));
#744=DIRECTION('',(0.,0.,-1.));
#745=DIRECTION('',(-1.,0.,0.));
#746=DIRECTION('',(0.,0.,1.));
#747=DIRECTION('',(1.,0.,0.));
#748=DIRECTION('',(0.,0.,1.));
#749=DIRECTION('',(1.,0.,0.));
#750=DIRECTION('',(-1.,0.,0.));
#751=DIRECTION('',(0.,0.,1.));
#752=DIRECTION('',(0.,1.,0.));
#753=DIRECTION('',(0.,0.,-1.));
#754=DIRECTION('',(0.,1.,0.));
#755=DIRECTION('',(0.,0.,-1.));
#756=DIRECTION('',(0.,0.,-1.));
#757=DIRECTION('',(-1.,0.,0.));
#758=DIRECTION('',(0.,0.,-1.));
#759=DIRECTION('',(1.,0.,0.));
#760=DIRECTION('',(0.,0.,-1.));
#761=DIRECTION('',(1.,0.,0.));
#762=DIRECTION('',(0.,0.,1.));
#763=DIRECTION('',(1.,0.,0.));
#764=DIRECTION('',(0.,1.,0.));
#765=DIRECTION('',(1.,0.,0.));
#766=DIRECTION('',(0.,1.,0.));
#767=DIRECTION('',(1.,0.,0.));
#768=DIRECTION('',(-1.,0.,0.));
#769=DIRECTION('',(0.,0.,1.));
#770=DIRECTION('',(0.,-1.,0.));
#771=DIRECTION('',(0.,0.,-1.));
#772=DIRECTION('',(0.,1.,0.));
#773=DIRECTION('',(0.,1.,0.));
#774=DIRECTION('',(0.,0.,1.));
#775=DIRECTION('',(-1.,0.,0.));
#776=DIRECTION('',(0.,0.,-1.));
#777=DIRECTION('',(1.,0.,0.));
#778=DIRECTION('',(-1.,0.,0.));
#779=DIRECTION('',(0.,0.,1.));
#780=DIRECTION('',(0.,-1.,0.));
#781=DIRECTION('',(0.,1.,0.));
#782=DIRECTION('',(0.,0.,1.));
#783=DIRECTION('',(1.,0.,0.));
#784=DIRECTION('',(0.,0.,1.));
#785=DIRECTION('',(1.,0.,0.));
#786=DIRECTION('',(0.,0.,1.));
#787=DIRECTION('',(1.,0.,0.));
#788=DIRECTION('',(0.,0.,1.));
#789=DIRECTION('',(1.,0.,0.));
#790=DIRECTION('',(0.,0.,1.));
#791=DIRECTION('',(1.,0.,0.));
#792=DIRECTION('',(0.,0.,1.));
#793=DIRECTION('',(1.,0.,0.));
#794=DIRECTION('',(1.,0.,0.));
#795=DIRECTION('',(0.,0.,-1.));
#796=DIRECTION('',(0.,-1.,0.));
#797=DIRECTION('',(0.,-1.,0.));
#798=DIRECTION('',(0.,-1.,0.));
#799=DIRECTION('',(0.,0.,-1.));
#800=DIRECTION('',(0.,-1.,0.));
#801=DIRECTION('',(0.,0.,-1.));
#802=DIRECTION('',(-1.,0.,0.));
#803=DIRECTION('',(0.,-1.,0.));
#804=DIRECTION('',(0.,-1.,0.));
#805=DIRECTION('',(0.,0.,-1.));
#806=DIRECTION('',(0.,-1.,0.));
#807=DIRECTION('',(1.,0.,0.));
#808=DIRECTION('',(0.,0.,-1.));
#809=DIRECTION('',(0.,-1.,0.));
#810=DIRECTION('',(0.,-1.,0.));
#811=DIRECTION('',(0.,0.,-1.));
#812=DIRECTION('',(0.,-1.,0.));
#813=DIRECTION('',(0.,0.,-1.));
#814=DIRECTION('',(-1.,0.,0.));
#815=DIRECTION('',(0.,-1.,0.));
#816=DIRECTION('',(0.,-1.,0.));
#817=DIRECTION('',(0.,0.,-1.));
#818=DIRECTION('',(0.,0.,1.));
#819=DIRECTION('',(1.,0.,0.));
#820=DIRECTION('',(0.,0.,-1.));
#821=DIRECTION('',(-1.,0.,0.));
#822=DIRECTION('',(1.,0.,0.));
#823=DIRECTION('',(0.,0.,-1.));
#824=DIRECTION('',(1.,0.,0.));
#825=DIRECTION('',(0.,0.,-1.));
#826=DIRECTION('',(0.,1.,0.));
#827=DIRECTION('',(0.,0.,1.));
#828=DIRECTION('',(0.,0.,-1.));
#829=DIRECTION('',(-1.,0.,0.));
#830=DIRECTION('',(0.,0.,-1.));
#831=DIRECTION('',(-1.,0.,0.));
#832=DIRECTION('',(0.,1.,0.));
#833=DIRECTION('',(0.,0.,1.));
#834=DIRECTION('',(0.,-1.,0.));
#835=DIRECTION('',(0.,0.,-1.));
#836=DIRECTION('',(-1.,0.,0.));
#837=DIRECTION('',(0.,0.,1.));
#838=DIRECTION('',(-1.,0.,0.));
#839=DIRECTION('',(0.,0.,1.));
#840=DIRECTION('',(0.,0.,-1.));
#841=DIRECTION('',(-1.,0.,0.));
#842=DIRECTION('',(0.,0.,-1.));
#843=DIRECTION('',(-1.,0.,0.));
#844=DIRECTION('',(1.,0.,0.));
#845=DIRECTION('',(0.,0.,-1.));
#846=DIRECTION('',(1.,0.,0.));
#847=DIRECTION('',(0.,0.,-1.));
#848=DIRECTION('',(0.,1.,0.));
#849=DIRECTION('',(0.,0.,1.));
#850=DIRECTION('',(0.,1.,0.));
#851=DIRECTION('',(0.,0.,1.));
#852=DIRECTION('',(1.,0.,0.));
#853=DIRECTION('',(0.,0.,-1.));
#854=DIRECTION('',(-1.,0.,0.));
#855=DIRECTION('',(0.,0.,1.));
#856=DIRECTION('',(0.,-1.,0.));
#857=DIRECTION('',(0.,0.,-1.));
#858=DIRECTION('',(0.,-1.,0.));
#859=DIRECTION('',(0.,0.,-1.));
#860=DIRECTION('',(0.,0.,-1.));
#861=DIRECTION('',(-1.,0.,0.));
#862=DIRECTION('',(0.,0.,-1.));
#863=DIRECTION('',(-1.,0.,0.));
#864=DIRECTION('',(0.,0.,1.));
#865=DIRECTION('',(1.,0.,0.));
#866=CARTESIAN_POINT('',(0.,0.,0.));
#867=CARTESIAN_POINT('',(0.0342,-0.01,0.003));
#868=CARTESIAN_POINT('',(0.0342,-0.01,0.017));
#869=CARTESIAN_POINT('',(-0.0075,-0.01,0.017));
#870=CARTESIAN_POINT('',(0.0759,-0.01,0.017));
#871=CARTESIAN_POINT('',(-0.0075,-0.01,0.));
#872=CARTESIAN_POINT('',(-0.0075,-0.01,0.0025));
#873=CARTESIAN_POINT('',(0.0342,-0.01,0.0025));
#874=CARTESIAN_POINT('',(0.0759,-0.01,0.0025));
#875=CARTESIAN_POINT('',(0.0759,-0.01,0.003));
#876=CARTESIAN_POINT('',(0.04,-0.01,0.00525588712096215));
#877=CARTESIAN_POINT('',(0.039,-0.01,0.00525588712096215));
#878=CARTESIAN_POINT('',(0.04,-0.01,0.00425588712096215));
#879=CARTESIAN_POINT('',(0.039,-0.01,0.00650588712096215));
#880=CARTESIAN_POINT('',(0.039,-0.01,0.00775588712096215));
#881=CARTESIAN_POINT('',(0.04,-0.01,0.00775588712096214));
#882=CARTESIAN_POINT('',(0.04,-0.01,0.00875588712096215));
#883=CARTESIAN_POINT('',(0.0452,-0.01,0.00875588712096215));
#884=CARTESIAN_POINT('',(0.0504,-0.01,0.00875588712096215));
#885=CARTESIAN_POINT('',(0.0504,-0.01,0.00775588712096213));
#886=CARTESIAN_POINT('',(0.0514,-0.01,0.00775588712096215));
#887=CARTESIAN_POINT('',(0.0514,-0.01,0.00650588712096215));
#888=CARTESIAN_POINT('',(0.0514,-0.01,0.00525588712096215));
#889=CARTESIAN_POINT('',(0.0504,-0.01,0.00525588712096214));
#890=CARTESIAN_POINT('',(0.0504,-0.01,0.00425588712096215));
#891=CARTESIAN_POINT('',(0.0452,-0.01,0.00425588712096215));
#892=CARTESIAN_POINT('',(0.0342,0.,0.017));
#893=CARTESIAN_POINT('',(0.0684,0.,0.017));
#894=CARTESIAN_POINT('',(0.0684,0.,0.017));
#895=CARTESIAN_POINT('',(0.0684,0.,0.003));
#896=CARTESIAN_POINT('',(0.0342,0.,0.003));
#897=CARTESIAN_POINT('',(0.,0.,0.003));
#898=CARTESIAN_POINT('',(0.,0.,0.017));
#899=CARTESIAN_POINT('',(0.,0.,0.017));
#900=CARTESIAN_POINT('',(0.0342,0.,0.017));
#901=CARTESIAN_POINT('',(0.04,0.,0.00775588712096214));
#902=CARTESIAN_POINT('',(0.039,0.,0.00775588712096215));
#903=CARTESIAN_POINT('',(0.04,0.,0.00875588712096215));
#904=CARTESIAN_POINT('',(0.039,0.,0.017));
#905=CARTESIAN_POINT('',(0.039,0.,0.00525588712096215));
#906=CARTESIAN_POINT('',(0.04,0.,0.00525588712096215));
#907=CARTESIAN_POINT('',(0.04,0.,0.00425588712096215));
#908=CARTESIAN_POINT('',(0.0342,0.,0.00425588712096215));
#909=CARTESIAN_POINT('',(0.0504,0.,0.00425588712096215));
#910=CARTESIAN_POINT('',(0.0504,0.,0.00525588712096214));
#911=CARTESIAN_POINT('',(0.0514,0.,0.00525588712096215));
#912=CARTESIAN_POINT('',(0.0514,0.,0.017));
#913=CARTESIAN_POINT('',(0.0514,0.,0.00775588712096215));
#914=CARTESIAN_POINT('',(0.0504,0.,0.00775588712096213));
#915=CARTESIAN_POINT('',(0.0504,0.,0.00875588712096215));
#916=CARTESIAN_POINT('',(0.0342,0.,0.00875588712096215));
#917=CARTESIAN_POINT('',(0.0342,0.0964,0.003));
#918=CARTESIAN_POINT('',(-0.01,0.0964,0.0025));
#919=CARTESIAN_POINT('',(0.0759,0.0964,0.0025));
#920=CARTESIAN_POINT('',(-0.0075,0.0964,0.0025));
#921=CARTESIAN_POINT('',(-0.0075,0.0964,0.003));
#922=CARTESIAN_POINT('',(-0.0075,0.0964,0.017));
#923=CARTESIAN_POINT('',(0.0342,0.0964,0.017));
#924=CARTESIAN_POINT('',(0.0759,0.0964,0.017));
#925=CARTESIAN_POINT('',(0.0759,0.0964,0.));
#926=CARTESIAN_POINT('',(-0.01,0.0432,0.003));
#927=CARTESIAN_POINT('',(-0.01,-0.01,0.0025));
#928=CARTESIAN_POINT('',(-0.01,0.0939,0.0025));
#929=CARTESIAN_POINT('',(-0.01,-0.0075,0.0025));
#930=CARTESIAN_POINT('',(-0.01,-0.0075,0.017));
#931=CARTESIAN_POINT('',(-0.01,-0.0075,0.017));
#932=CARTESIAN_POINT('',(-0.01,0.0432,0.017));
#933=CARTESIAN_POINT('',(-0.01,0.0939,0.017));
#934=CARTESIAN_POINT('',(-0.01,0.0939,0.003));
#935=CARTESIAN_POINT('',(0.0734,-0.005,0.003));
#936=CARTESIAN_POINT('',(0.0734,-0.005,0.));
#937=CARTESIAN_POINT('',(0.0755,-0.005,0.));
#938=CARTESIAN_POINT('',(0.0734,-0.005,0.017));
#939=CARTESIAN_POINT('',(0.0755,-0.005,0.017));
#940=CARTESIAN_POINT('',(0.0734,0.0914,0.003));
#941=CARTESIAN_POINT('',(0.0734,0.0914,0.));
#942=CARTESIAN_POINT('',(0.0755,0.0914,0.));
#943=CARTESIAN_POINT('',(0.0734,0.0914,0.017));
#944=CARTESIAN_POINT('',(0.0755,0.0914,0.017));
#945=CARTESIAN_POINT('',(-0.005,0.0914,0.003));
#946=CARTESIAN_POINT('',(-0.005,0.0914,0.));
#947=CARTESIAN_POINT('',(-0.0029,0.0914,0.));
#948=CARTESIAN_POINT('',(-0.005,0.0914,0.017));
#949=CARTESIAN_POINT('',(-0.0029,0.0914,0.017));
#950=CARTESIAN_POINT('',(0.0784,0.0432,0.003));
#951=CARTESIAN_POINT('',(0.0784,0.0432,0.0025));
#952=CARTESIAN_POINT('',(0.0784,-0.0075,0.0025));
#953=CARTESIAN_POINT('',(0.0784,0.0939,0.0025));
#954=CARTESIAN_POINT('',(0.0784,0.0939,0.017));
#955=CARTESIAN_POINT('',(0.0784,0.0939,0.017));
#956=CARTESIAN_POINT('',(0.0784,0.0432,0.017));
#957=CARTESIAN_POINT('',(0.0784,-0.0075,0.017));
#958=CARTESIAN_POINT('',(0.0784,-0.0075,0.003));
#959=CARTESIAN_POINT('',(-0.005,-0.005,0.003));
#960=CARTESIAN_POINT('',(-0.005,-0.005,0.));
#961=CARTESIAN_POINT('',(-0.0029,-0.005,0.));
#962=CARTESIAN_POINT('',(-0.005,-0.005,0.017));
#963=CARTESIAN_POINT('',(-0.0029,-0.005,0.017));
#964=CARTESIAN_POINT('',(0.0342,0.0432,0.));
#965=CARTESIAN_POINT('',(-0.0075,0.0964,0.));
#966=CARTESIAN_POINT('',(-0.0075,-0.0075,0.));
#967=CARTESIAN_POINT('',(-0.0075,0.0939,0.));
#968=CARTESIAN_POINT('',(0.0784,0.0939,0.));
#969=CARTESIAN_POINT('',(0.0759,0.0939,0.));
#970=CARTESIAN_POINT('',(0.0759,0.0432,0.));
#971=CARTESIAN_POINT('',(0.0759,-0.0075,0.));
#972=CARTESIAN_POINT('',(0.0342,-0.0075,0.));
#973=CARTESIAN_POINT('',(0.,0.0432,0.017));
#974=CARTESIAN_POINT('',(0.,0.0432,0.003));
#975=CARTESIAN_POINT('',(-1.38777878078145E-17,0.0864,0.003));
#976=CARTESIAN_POINT('',(-1.38777878078145E-17,0.0864,0.017));
#977=CARTESIAN_POINT('',(-1.38777878078145E-17,0.0864,0.017));
#978=CARTESIAN_POINT('',(0.,0.0432,0.017));
#979=CARTESIAN_POINT('',(0.0342,0.0864,0.017));
#980=CARTESIAN_POINT('',(0.0342,0.0864,0.003));
#981=CARTESIAN_POINT('',(0.0684,0.0864,0.003));
#982=CARTESIAN_POINT('',(0.0684,0.0864,0.017));
#983=CARTESIAN_POINT('',(0.0684,0.0864,0.017));
#984=CARTESIAN_POINT('',(0.0342,0.0864,0.017));
#985=CARTESIAN_POINT('',(0.0684,0.0432,0.017));
#986=CARTESIAN_POINT('',(0.0684,0.0432,0.003));
#987=CARTESIAN_POINT('',(0.0684,0.0432,0.017));
#988=CARTESIAN_POINT('',(0.0342,0.0432,0.017));
#989=CARTESIAN_POINT('',(-0.0075,-0.0075,0.017));
#990=CARTESIAN_POINT('',(0.0759,-0.0075,0.017));
#991=CARTESIAN_POINT('',(0.0759,0.0939,0.017));
#992=CARTESIAN_POINT('',(-0.0075,0.0939,0.017));
#993=CARTESIAN_POINT('',(0.0342,0.0432,0.003));
#994=CARTESIAN_POINT('',(0.039,0.015,0.00650588712096215));
#995=CARTESIAN_POINT('',(0.039,0.015,0.00775588712096215));
#996=CARTESIAN_POINT('',(0.039,0.015,0.00525588712096215));
#997=CARTESIAN_POINT('',(0.04,0.015,0.00525588712096215));
#998=CARTESIAN_POINT('',(0.04,0.015,0.00425588712096215));
#999=CARTESIAN_POINT('',(0.0452,0.015,0.00425588712096215));
#1000=CARTESIAN_POINT('',(0.0504,0.015,0.00425588712096215));
#1001=CARTESIAN_POINT('',(0.0504,0.015,0.00525588712096214));
#1002=CARTESIAN_POINT('',(0.0514,0.015,0.00525588712096215));
#1003=CARTESIAN_POINT('',(0.0514,0.015,0.00650588712096215));
#1004=CARTESIAN_POINT('',(0.0514,0.015,0.00775588712096215));
#1005=CARTESIAN_POINT('',(0.0504,0.015,0.00775588712096213));
#1006=CARTESIAN_POINT('',(0.0504,0.015,0.00875588712096215));
#1007=CARTESIAN_POINT('',(0.0452,0.015,0.00875588712096215));
#1008=CARTESIAN_POINT('',(0.04,0.015,0.00875588712096215));
#1009=CARTESIAN_POINT('',(0.04,0.015,0.00775588712096214));
#1010=CARTESIAN_POINT('',(0.0759,0.0939,0.003));
#1011=CARTESIAN_POINT('',(0.0759,0.0939,0.0025));
#1012=CARTESIAN_POINT('',(0.0759,0.0939,0.0025));
#1013=CARTESIAN_POINT('',(0.0759,0.0939,0.0025));
#1014=CARTESIAN_POINT('',(0.0759,0.0939,0.0025));
#1015=CARTESIAN_POINT('',(0.0759,-0.0075,0.003));
#1016=CARTESIAN_POINT('',(0.0759,-0.0075,0.0025));
#1017=CARTESIAN_POINT('',(0.0759,0.0432,0.0025));
#1018=CARTESIAN_POINT('',(0.0759,-0.0075,0.0025));
#1019=CARTESIAN_POINT('',(0.0342,0.0939,0.0025));
#1020=CARTESIAN_POINT('',(-0.0075,0.0939,0.0025));
#1021=CARTESIAN_POINT('',(-0.0075,0.0939,0.003));
#1022=CARTESIAN_POINT('',(-0.0075,0.0939,0.0025));
#1023=CARTESIAN_POINT('',(0.0759,-0.0075,0.0025));
#1024=CARTESIAN_POINT('',(0.0759,-0.0075,0.0025));
#1025=CARTESIAN_POINT('',(-0.0075,0.0939,0.0025));
#1026=CARTESIAN_POINT('',(-0.0075,0.0939,0.0025));
#1027=CARTESIAN_POINT('',(0.0342,-0.0075,0.0025));
#1028=CARTESIAN_POINT('',(-0.0075,-0.0075,0.0025));
#1029=CARTESIAN_POINT('',(-0.0075,0.0432,0.0025));
#1030=CARTESIAN_POINT('',(-0.0075,-0.0075,0.0025));
#1031=CARTESIAN_POINT('',(-0.0075,-0.0075,0.0025));
#1032=CARTESIAN_POINT('',(-0.0075,-0.0075,0.0025));
#1033=CARTESIAN_POINT('',(-0.0075,-0.0075,0.003));
#1034=MECHANICAL_DESIGN_GEOMETRIC_PRESENTATION_REPRESENTATION('',(#603),
#1035);
#1035=(
GEOMETRIC_REPRESENTATION_CONTEXT(3)
GLOBAL_UNCERTAINTY_ASSIGNED_CONTEXT((#1036))
GLOBAL_UNIT_ASSIGNED_CONTEXT((#1039,#1038,#1037))
REPRESENTATION_CONTEXT('bottom part','TOP_LEVEL_ASSEMBLY_PART')
);
#1036=UNCERTAINTY_MEASURE_WITH_UNIT(LENGTH_MEASURE(1.E-8),#1039,
'DISTANCE_ACCURACY_VALUE','Maximum Tolerance applied to model');
#1037=(
NAMED_UNIT(*)
SI_UNIT($,.STERADIAN.)
SOLID_ANGLE_UNIT()
);
#1038=(
NAMED_UNIT(*)
PLANE_ANGLE_UNIT()
SI_UNIT($,.RADIAN.)
);
#1039=(
LENGTH_UNIT()
NAMED_UNIT(*)
SI_UNIT($,.METRE.)
);
#1040=PRODUCT_DEFINITION_SHAPE('','',#1041);
#1041=PRODUCT_DEFINITION('','',#1043,#1042);
#1042=PRODUCT_DEFINITION_CONTEXT('',#1049,'design');
#1043=PRODUCT_DEFINITION_FORMATION_WITH_SPECIFIED_SOURCE('','',#1045,
 .NOT_KNOWN.);
#1044=PRODUCT_RELATED_PRODUCT_CATEGORY('','',(#1045));
#1045=PRODUCT('bottom part','bottom part','bottom part',(#1047));
#1046=PRODUCT_CATEGORY('','');
#1047=PRODUCT_CONTEXT('',#1049,'mechanical');
#1048=APPLICATION_PROTOCOL_DEFINITION('international standard',
'ap242_managed_model_based_3d_engineering',2020,#1049);
#1049=APPLICATION_CONTEXT('managed model based 3d engineering');
ENDSEC;
END-ISO-10303-21;
