ISO-10303-21;
HEADER;
/* Generated by software containing ST-Developer
 * from STEP Tools, Inc. (www.steptools.com) 
 */
/* OPTION: using custom renumber hook */

FILE_DESCRIPTION(
/* description */ ('STEP AP242 Edition 2',
'CAx-IF Rec.Pracs.---Representation and Presentation of Product Manufa
cturing Information (PMI)---4.0---2014-10-13',
'CAx-IF Rec.Pracs.---3D Tessellated Geometry---0.4---2014-09-14','2;1',
'CAx-IF Rec.Pracs.---User Defined Attributes---1.5---2016-08-15'),
/* implementation_level */ '2;1');

FILE_NAME(
/* name */ 'case main frame - top part',
/* time_stamp */ '2026-10-04T20:13:23Z',
/* author */ (''),
/* organization */ (''),
/* preprocessor_version */ 'ST-DEVELOPER v20',
/* originating_system */ 'ONSHAPE BY PTC INC, 1.221',
/* authorisation */ '  ');

FILE_SCHEMA (('AP242_MANAGED_MODEL_BASED_3D_ENGINEERING_MIM_LF { 1 0 10303 442 3 1 4 }'));
ENDSEC;

DATA;
#10=SHAPE_REPRESENTATION_RELATIONSHIP('','',#1286,#11);
#11=ADVANCED_BREP_SHAPE_REPRESENTATION('',(#1284),#2261);
#12=ELLIPSE('',#1433,0.00100000593795939,0.001);
#13=B_SPLINE_CURVE_WITH_KNOTS('',3,(#2208,#2209,#2210,#2211),
 .UNSPECIFIED.,.F.,.F.,(4,4),(-6.97334710715154E-6,0.0017069807811993),
 .UNSPECIFIED.);
#14=B_SPLINE_CURVE_WITH_KNOTS('',3,(#2216,#2217,#2218,#2219),
 .UNSPECIFIED.,.F.,.F.,(4,4),(1.99887479659886E-7,0.00019036314425401),
 .UNSPECIFIED.);
#15=B_SPLINE_CURVE_WITH_KNOTS('',3,(#2221,#2222,#2223,#2224),
 .UNSPECIFIED.,.F.,.F.,(4,4),(-6.41490072287386E-6,0.00113941212135474),
 .UNSPECIFIED.);
#16=TOROIDAL_SURFACE('',#1390,0.0015,0.001);
#17=TOROIDAL_SURFACE('',#1392,0.0015,0.001);
#18=TOROIDAL_SURFACE('',#1398,0.0015,0.001);
#19=TOROIDAL_SURFACE('',#1400,0.0015,0.001);
#20=TOROIDAL_SURFACE('',#1406,0.00200000000000004,0.001);
#21=TOROIDAL_SURFACE('',#1408,0.002,0.001);
#22=TOROIDAL_SURFACE('',#1417,0.00200000000000005,0.001);
#23=TOROIDAL_SURFACE('',#1418,0.00200000000000003,0.001);
#24=TOROIDAL_SURFACE('',#1421,0.002,0.001);
#25=TOROIDAL_SURFACE('',#1426,0.002,0.001);
#26=TOROIDAL_SURFACE('',#1428,0.002,0.001);
#27=TOROIDAL_SURFACE('',#1434,0.002,0.001);
#28=TOROIDAL_SURFACE('',#1440,0.00200000000000003,0.001);
#29=TOROIDAL_SURFACE('',#1442,0.00200000000000004,0.001);
#30=TOROIDAL_SURFACE('',#1448,0.00200000000000005,0.001);
#31=TOROIDAL_SURFACE('',#1450,0.002,0.001);
#32=TOROIDAL_SURFACE('',#1453,0.0031,0.001);
#33=TOROIDAL_SURFACE('',#1454,0.0031,0.001);
#34=TOROIDAL_SURFACE('',#1455,0.0031,0.001);
#35=TOROIDAL_SURFACE('',#1456,0.0031,0.001);
#36=CYLINDRICAL_SURFACE('',#1333,0.0021);
#37=CYLINDRICAL_SURFACE('',#1335,0.0021);
#38=CYLINDRICAL_SURFACE('',#1337,0.0021);
#39=CYLINDRICAL_SURFACE('',#1340,0.0021);
#40=CYLINDRICAL_SURFACE('',#1343,0.001);
#41=CYLINDRICAL_SURFACE('',#1346,0.00100000000000003);
#42=CYLINDRICAL_SURFACE('',#1349,0.00100000000000003);
#43=CYLINDRICAL_SURFACE('',#1352,0.00100000000000004);
#44=CYLINDRICAL_SURFACE('',#1355,0.00100000000000004);
#45=CYLINDRICAL_SURFACE('',#1358,0.001);
#46=CYLINDRICAL_SURFACE('',#1361,0.00100000000000001);
#47=CYLINDRICAL_SURFACE('',#1364,0.00100000000000005);
#48=CYLINDRICAL_SURFACE('',#1368,0.001);
#49=CYLINDRICAL_SURFACE('',#1371,0.00100000000000003);
#50=CYLINDRICAL_SURFACE('',#1374,0.001);
#51=CYLINDRICAL_SURFACE('',#1377,0.00099999999999998);
#52=CYLINDRICAL_SURFACE('',#1379,0.0025);
#53=CYLINDRICAL_SURFACE('',#1381,0.0025);
#54=CYLINDRICAL_SURFACE('',#1383,0.0025);
#55=CYLINDRICAL_SURFACE('',#1385,0.0025);
#56=CYLINDRICAL_SURFACE('',#1387,0.001);
#57=CYLINDRICAL_SURFACE('',#1394,0.001);
#58=CYLINDRICAL_SURFACE('',#1396,0.001);
#59=CYLINDRICAL_SURFACE('',#1402,0.001);
#60=CYLINDRICAL_SURFACE('',#1403,0.001);
#61=CYLINDRICAL_SURFACE('',#1410,0.001);
#62=CYLINDRICAL_SURFACE('',#1412,0.001);
#63=CYLINDRICAL_SURFACE('',#1414,0.001);
#64=CYLINDRICAL_SURFACE('',#1422,0.001);
#65=CYLINDRICAL_SURFACE('',#1424,0.001);
#66=CYLINDRICAL_SURFACE('',#1430,0.001);
#67=CYLINDRICAL_SURFACE('',#1432,0.001);
#68=CYLINDRICAL_SURFACE('',#1436,0.001);
#69=CYLINDRICAL_SURFACE('',#1437,0.001);
#70=CYLINDRICAL_SURFACE('',#1444,0.001);
#71=CYLINDRICAL_SURFACE('',#1446,0.001);
#72=CYLINDRICAL_SURFACE('',#1452,0.001);
#73=LINE('',#1886,#157);
#74=LINE('',#1890,#158);
#75=LINE('',#1894,#159);
#76=LINE('',#1898,#160);
#77=LINE('',#1902,#161);
#78=LINE('',#1906,#162);
#79=LINE('',#1910,#163);
#80=LINE('',#1914,#164);
#81=LINE('',#1918,#165);
#82=LINE('',#1922,#166);
#83=LINE('',#1926,#167);
#84=LINE('',#1928,#168);
#85=LINE('',#1932,#169);
#86=LINE('',#1938,#170);
#87=LINE('',#1942,#171);
#88=LINE('',#1946,#172);
#89=LINE('',#1956,#173);
#90=LINE('',#1961,#174);
#91=LINE('',#1965,#175);
#92=LINE('',#1969,#176);
#93=LINE('',#1975,#177);
#94=LINE('',#1979,#178);
#95=LINE('',#1983,#179);
#96=LINE('',#1987,#180);
#97=LINE('',#1988,#181);
#98=LINE('',#1993,#182);
#99=LINE('',#1997,#183);
#100=LINE('',#2001,#184);
#101=LINE('',#2012,#185);
#102=LINE('',#2015,#186);
#103=LINE('',#2019,#187);
#104=LINE('',#2023,#188);
#105=LINE('',#2027,#189);
#106=LINE('',#2031,#190);
#107=LINE('',#2033,#191);
#108=LINE('',#2035,#192);
#109=LINE('',#2037,#193);
#110=LINE('',#2039,#194);
#111=LINE('',#2041,#195);
#112=LINE('',#2043,#196);
#113=LINE('',#2045,#197);
#114=LINE('',#2047,#198);
#115=LINE('',#2058,#199);
#116=LINE('',#2060,#200);
#117=LINE('',#2062,#201);
#118=LINE('',#2067,#202);
#119=LINE('',#2069,#203);
#120=LINE('',#2071,#204);
#121=LINE('',#2075,#205);
#122=LINE('',#2077,#206);
#123=LINE('',#2079,#207);
#124=LINE('',#2083,#208);
#125=LINE('',#2085,#209);
#126=LINE('',#2087,#210);
#127=LINE('',#2091,#211);
#128=LINE('',#2093,#212);
#129=LINE('',#2095,#213);
#130=LINE('',#2099,#214);
#131=LINE('',#2101,#215);
#132=LINE('',#2103,#216);
#133=LINE('',#2107,#217);
#134=LINE('',#2109,#218);
#135=LINE('',#2111,#219);
#136=LINE('',#2115,#220);
#137=LINE('',#2117,#221);
#138=LINE('',#2119,#222);
#139=LINE('',#2123,#223);
#140=LINE('',#2125,#224);
#141=LINE('',#2127,#225);
#142=LINE('',#2131,#226);
#143=LINE('',#2133,#227);
#144=LINE('',#2135,#228);
#145=LINE('',#2137,#229);
#146=LINE('',#2139,#230);
#147=LINE('',#2143,#231);
#148=LINE('',#2145,#232);
#149=LINE('',#2147,#233);
#150=LINE('',#2151,#234);
#151=LINE('',#2153,#235);
#152=LINE('',#2155,#236);
#153=LINE('',#2159,#237);
#154=LINE('',#2161,#238);
#155=LINE('',#2163,#239);
#156=LINE('',#2206,#240);
#157=VECTOR('',#1463,1.);
#158=VECTOR('',#1466,1.);
#159=VECTOR('',#1469,1.);
#160=VECTOR('',#1472,1.);
#161=VECTOR('',#1475,1.);
#162=VECTOR('',#1478,1.);
#163=VECTOR('',#1481,1.);
#164=VECTOR('',#1484,1.);
#165=VECTOR('',#1487,1.);
#166=VECTOR('',#1490,1.);
#167=VECTOR('',#1493,1.);
#168=VECTOR('',#1494,1.);
#169=VECTOR('',#1497,1.);
#170=VECTOR('',#1502,1.);
#171=VECTOR('',#1505,1.);
#172=VECTOR('',#1508,1.);
#173=VECTOR('',#1519,1.);
#174=VECTOR('',#1522,1.);
#175=VECTOR('',#1525,1.);
#176=VECTOR('',#1528,1.);
#177=VECTOR('',#1533,1.);
#178=VECTOR('',#1536,1.);
#179=VECTOR('',#1539,1.);
#180=VECTOR('',#1542,1.);
#181=VECTOR('',#1543,1.);
#182=VECTOR('',#1546,1.);
#183=VECTOR('',#1549,1.);
#184=VECTOR('',#1552,1.);
#185=VECTOR('',#1563,1.);
#186=VECTOR('',#1564,1.);
#187=VECTOR('',#1567,1.);
#188=VECTOR('',#1570,1.);
#189=VECTOR('',#1573,1.);
#190=VECTOR('',#1578,1.);
#191=VECTOR('',#1579,1.);
#192=VECTOR('',#1580,1.);
#193=VECTOR('',#1583,1.);
#194=VECTOR('',#1584,1.);
#195=VECTOR('',#1585,1.);
#196=VECTOR('',#1588,1.);
#197=VECTOR('',#1589,1.);
#198=VECTOR('',#1590,1.);
#199=VECTOR('',#1605,1.);
#200=VECTOR('',#1606,1.);
#201=VECTOR('',#1607,1.);
#202=VECTOR('',#1614,1.);
#203=VECTOR('',#1615,1.);
#204=VECTOR('',#1616,1.);
#205=VECTOR('',#1621,1.);
#206=VECTOR('',#1624,1.);
#207=VECTOR('',#1625,1.);
#208=VECTOR('',#1630,1.);
#209=VECTOR('',#1633,1.);
#210=VECTOR('',#1634,1.);
#211=VECTOR('',#1639,1.);
#212=VECTOR('',#1642,1.);
#213=VECTOR('',#1643,1.);
#214=VECTOR('',#1650,1.);
#215=VECTOR('',#1651,1.);
#216=VECTOR('',#1652,1.);
#217=VECTOR('',#1657,1.);
#218=VECTOR('',#1660,1.);
#219=VECTOR('',#1661,1.);
#220=VECTOR('',#1666,1.);
#221=VECTOR('',#1669,1.);
#222=VECTOR('',#1670,1.);
#223=VECTOR('',#1675,1.);
#224=VECTOR('',#1678,1.);
#225=VECTOR('',#1679,1.);
#226=VECTOR('',#1686,1.);
#227=VECTOR('',#1687,1.);
#228=VECTOR('',#1688,1.);
#229=VECTOR('',#1691,1.);
#230=VECTOR('',#1692,1.);
#231=VECTOR('',#1697,1.);
#232=VECTOR('',#1700,1.);
#233=VECTOR('',#1701,1.);
#234=VECTOR('',#1706,1.);
#235=VECTOR('',#1709,1.);
#236=VECTOR('',#1710,1.);
#237=VECTOR('',#1715,1.);
#238=VECTOR('',#1718,1.);
#239=VECTOR('',#1719,1.);
#240=VECTOR('',#1800,1.);
#241=ORIENTED_EDGE('',*,*,#601,.T.);
#242=ORIENTED_EDGE('',*,*,#602,.T.);
#243=ORIENTED_EDGE('',*,*,#603,.T.);
#244=ORIENTED_EDGE('',*,*,#604,.T.);
#245=ORIENTED_EDGE('',*,*,#605,.T.);
#246=ORIENTED_EDGE('',*,*,#606,.T.);
#247=ORIENTED_EDGE('',*,*,#607,.T.);
#248=ORIENTED_EDGE('',*,*,#608,.T.);
#249=ORIENTED_EDGE('',*,*,#609,.T.);
#250=ORIENTED_EDGE('',*,*,#610,.T.);
#251=ORIENTED_EDGE('',*,*,#611,.T.);
#252=ORIENTED_EDGE('',*,*,#612,.T.);
#253=ORIENTED_EDGE('',*,*,#613,.T.);
#254=ORIENTED_EDGE('',*,*,#614,.T.);
#255=ORIENTED_EDGE('',*,*,#615,.T.);
#256=ORIENTED_EDGE('',*,*,#616,.T.);
#257=ORIENTED_EDGE('',*,*,#617,.T.);
#258=ORIENTED_EDGE('',*,*,#618,.T.);
#259=ORIENTED_EDGE('',*,*,#619,.T.);
#260=ORIENTED_EDGE('',*,*,#620,.T.);
#261=ORIENTED_EDGE('',*,*,#621,.T.);
#262=ORIENTED_EDGE('',*,*,#622,.T.);
#263=ORIENTED_EDGE('',*,*,#623,.T.);
#264=ORIENTED_EDGE('',*,*,#624,.T.);
#265=ORIENTED_EDGE('',*,*,#625,.T.);
#266=ORIENTED_EDGE('',*,*,#626,.T.);
#267=ORIENTED_EDGE('',*,*,#627,.T.);
#268=ORIENTED_EDGE('',*,*,#628,.T.);
#269=ORIENTED_EDGE('',*,*,#629,.T.);
#270=ORIENTED_EDGE('',*,*,#630,.T.);
#271=ORIENTED_EDGE('',*,*,#631,.T.);
#272=ORIENTED_EDGE('',*,*,#632,.T.);
#273=ORIENTED_EDGE('',*,*,#633,.T.);
#274=ORIENTED_EDGE('',*,*,#634,.T.);
#275=ORIENTED_EDGE('',*,*,#635,.T.);
#276=ORIENTED_EDGE('',*,*,#636,.T.);
#277=ORIENTED_EDGE('',*,*,#637,.F.);
#278=ORIENTED_EDGE('',*,*,#638,.T.);
#279=ORIENTED_EDGE('',*,*,#639,.F.);
#280=ORIENTED_EDGE('',*,*,#640,.T.);
#281=ORIENTED_EDGE('',*,*,#641,.T.);
#282=ORIENTED_EDGE('',*,*,#642,.T.);
#283=ORIENTED_EDGE('',*,*,#643,.T.);
#284=ORIENTED_EDGE('',*,*,#644,.T.);
#285=ORIENTED_EDGE('',*,*,#645,.T.);
#286=ORIENTED_EDGE('',*,*,#646,.T.);
#287=ORIENTED_EDGE('',*,*,#647,.T.);
#288=ORIENTED_EDGE('',*,*,#648,.T.);
#289=ORIENTED_EDGE('',*,*,#649,.T.);
#290=ORIENTED_EDGE('',*,*,#650,.F.);
#291=ORIENTED_EDGE('',*,*,#651,.T.);
#292=ORIENTED_EDGE('',*,*,#652,.F.);
#293=ORIENTED_EDGE('',*,*,#653,.F.);
#294=ORIENTED_EDGE('',*,*,#654,.T.);
#295=ORIENTED_EDGE('',*,*,#655,.T.);
#296=ORIENTED_EDGE('',*,*,#656,.T.);
#297=ORIENTED_EDGE('',*,*,#657,.T.);
#298=ORIENTED_EDGE('',*,*,#658,.T.);
#299=ORIENTED_EDGE('',*,*,#659,.F.);
#300=ORIENTED_EDGE('',*,*,#660,.T.);
#301=ORIENTED_EDGE('',*,*,#661,.T.);
#302=ORIENTED_EDGE('',*,*,#662,.T.);
#303=ORIENTED_EDGE('',*,*,#663,.F.);
#304=ORIENTED_EDGE('',*,*,#664,.F.);
#305=ORIENTED_EDGE('',*,*,#665,.F.);
#306=ORIENTED_EDGE('',*,*,#666,.T.);
#307=ORIENTED_EDGE('',*,*,#667,.T.);
#308=ORIENTED_EDGE('',*,*,#668,.T.);
#309=ORIENTED_EDGE('',*,*,#669,.T.);
#310=ORIENTED_EDGE('',*,*,#670,.F.);
#311=ORIENTED_EDGE('',*,*,#671,.T.);
#312=ORIENTED_EDGE('',*,*,#672,.T.);
#313=ORIENTED_EDGE('',*,*,#673,.T.);
#314=ORIENTED_EDGE('',*,*,#674,.T.);
#315=ORIENTED_EDGE('',*,*,#675,.T.);
#316=ORIENTED_EDGE('',*,*,#676,.T.);
#317=ORIENTED_EDGE('',*,*,#657,.F.);
#318=ORIENTED_EDGE('',*,*,#677,.T.);
#319=ORIENTED_EDGE('',*,*,#678,.T.);
#320=ORIENTED_EDGE('',*,*,#679,.T.);
#321=ORIENTED_EDGE('',*,*,#655,.F.);
#322=ORIENTED_EDGE('',*,*,#680,.T.);
#323=ORIENTED_EDGE('',*,*,#681,.T.);
#324=ORIENTED_EDGE('',*,*,#682,.T.);
#325=ORIENTED_EDGE('',*,*,#653,.T.);
#326=ORIENTED_EDGE('',*,*,#683,.T.);
#327=ORIENTED_EDGE('',*,*,#663,.T.);
#328=ORIENTED_EDGE('',*,*,#684,.T.);
#329=ORIENTED_EDGE('',*,*,#662,.F.);
#330=ORIENTED_EDGE('',*,*,#685,.T.);
#331=ORIENTED_EDGE('',*,*,#661,.F.);
#332=ORIENTED_EDGE('',*,*,#686,.T.);
#333=ORIENTED_EDGE('',*,*,#687,.T.);
#334=ORIENTED_EDGE('',*,*,#688,.T.);
#335=ORIENTED_EDGE('',*,*,#659,.T.);
#336=ORIENTED_EDGE('',*,*,#689,.T.);
#337=ORIENTED_EDGE('',*,*,#664,.T.);
#338=ORIENTED_EDGE('',*,*,#690,.T.);
#339=ORIENTED_EDGE('',*,*,#691,.T.);
#340=ORIENTED_EDGE('',*,*,#692,.F.);
#341=ORIENTED_EDGE('',*,*,#646,.F.);
#342=ORIENTED_EDGE('',*,*,#692,.T.);
#343=ORIENTED_EDGE('',*,*,#693,.T.);
#344=ORIENTED_EDGE('',*,*,#694,.F.);
#345=ORIENTED_EDGE('',*,*,#647,.F.);
#346=ORIENTED_EDGE('',*,*,#694,.T.);
#347=ORIENTED_EDGE('',*,*,#695,.T.);
#348=ORIENTED_EDGE('',*,*,#696,.F.);
#349=ORIENTED_EDGE('',*,*,#648,.F.);
#350=ORIENTED_EDGE('',*,*,#696,.T.);
#351=ORIENTED_EDGE('',*,*,#697,.T.);
#352=ORIENTED_EDGE('',*,*,#698,.F.);
#353=ORIENTED_EDGE('',*,*,#649,.F.);
#354=ORIENTED_EDGE('',*,*,#698,.T.);
#355=ORIENTED_EDGE('',*,*,#699,.T.);
#356=ORIENTED_EDGE('',*,*,#700,.F.);
#357=ORIENTED_EDGE('',*,*,#650,.T.);
#358=ORIENTED_EDGE('',*,*,#700,.T.);
#359=ORIENTED_EDGE('',*,*,#701,.T.);
#360=ORIENTED_EDGE('',*,*,#702,.F.);
#361=ORIENTED_EDGE('',*,*,#651,.F.);
#362=ORIENTED_EDGE('',*,*,#702,.T.);
#363=ORIENTED_EDGE('',*,*,#703,.T.);
#364=ORIENTED_EDGE('',*,*,#704,.F.);
#365=ORIENTED_EDGE('',*,*,#652,.T.);
#366=ORIENTED_EDGE('',*,*,#704,.T.);
#367=ORIENTED_EDGE('',*,*,#705,.T.);
#368=ORIENTED_EDGE('',*,*,#690,.F.);
#369=ORIENTED_EDGE('',*,*,#645,.F.);
#370=ORIENTED_EDGE('',*,*,#706,.T.);
#371=ORIENTED_EDGE('',*,*,#707,.T.);
#372=ORIENTED_EDGE('',*,*,#708,.F.);
#373=ORIENTED_EDGE('',*,*,#637,.T.);
#374=ORIENTED_EDGE('',*,*,#708,.T.);
#375=ORIENTED_EDGE('',*,*,#709,.T.);
#376=ORIENTED_EDGE('',*,*,#710,.F.);
#377=ORIENTED_EDGE('',*,*,#638,.F.);
#378=ORIENTED_EDGE('',*,*,#710,.T.);
#379=ORIENTED_EDGE('',*,*,#711,.T.);
#380=ORIENTED_EDGE('',*,*,#712,.F.);
#381=ORIENTED_EDGE('',*,*,#639,.T.);
#382=ORIENTED_EDGE('',*,*,#712,.T.);
#383=ORIENTED_EDGE('',*,*,#713,.T.);
#384=ORIENTED_EDGE('',*,*,#714,.F.);
#385=ORIENTED_EDGE('',*,*,#640,.F.);
#386=ORIENTED_EDGE('',*,*,#714,.T.);
#387=ORIENTED_EDGE('',*,*,#715,.T.);
#388=ORIENTED_EDGE('',*,*,#716,.F.);
#389=ORIENTED_EDGE('',*,*,#641,.F.);
#390=ORIENTED_EDGE('',*,*,#716,.T.);
#391=ORIENTED_EDGE('',*,*,#717,.T.);
#392=ORIENTED_EDGE('',*,*,#718,.F.);
#393=ORIENTED_EDGE('',*,*,#642,.F.);
#394=ORIENTED_EDGE('',*,*,#718,.T.);
#395=ORIENTED_EDGE('',*,*,#719,.T.);
#396=ORIENTED_EDGE('',*,*,#720,.F.);
#397=ORIENTED_EDGE('',*,*,#643,.F.);
#398=ORIENTED_EDGE('',*,*,#720,.T.);
#399=ORIENTED_EDGE('',*,*,#721,.T.);
#400=ORIENTED_EDGE('',*,*,#706,.F.);
#401=ORIENTED_EDGE('',*,*,#644,.F.);
#402=ORIENTED_EDGE('',*,*,#722,.T.);
#403=ORIENTED_EDGE('',*,*,#723,.T.);
#404=ORIENTED_EDGE('',*,*,#724,.F.);
#405=ORIENTED_EDGE('',*,*,#665,.T.);
#406=ORIENTED_EDGE('',*,*,#724,.T.);
#407=ORIENTED_EDGE('',*,*,#725,.T.);
#408=ORIENTED_EDGE('',*,*,#726,.F.);
#409=ORIENTED_EDGE('',*,*,#666,.F.);
#410=ORIENTED_EDGE('',*,*,#726,.T.);
#411=ORIENTED_EDGE('',*,*,#727,.T.);
#412=ORIENTED_EDGE('',*,*,#728,.F.);
#413=ORIENTED_EDGE('',*,*,#667,.F.);
#414=ORIENTED_EDGE('',*,*,#728,.T.);
#415=ORIENTED_EDGE('',*,*,#729,.T.);
#416=ORIENTED_EDGE('',*,*,#730,.F.);
#417=ORIENTED_EDGE('',*,*,#668,.F.);
#418=ORIENTED_EDGE('',*,*,#730,.T.);
#419=ORIENTED_EDGE('',*,*,#731,.T.);
#420=ORIENTED_EDGE('',*,*,#732,.F.);
#421=ORIENTED_EDGE('',*,*,#669,.F.);
#422=ORIENTED_EDGE('',*,*,#732,.T.);
#423=ORIENTED_EDGE('',*,*,#733,.T.);
#424=ORIENTED_EDGE('',*,*,#734,.F.);
#425=ORIENTED_EDGE('',*,*,#670,.T.);
#426=ORIENTED_EDGE('',*,*,#734,.T.);
#427=ORIENTED_EDGE('',*,*,#735,.T.);
#428=ORIENTED_EDGE('',*,*,#736,.F.);
#429=ORIENTED_EDGE('',*,*,#671,.F.);
#430=ORIENTED_EDGE('',*,*,#736,.T.);
#431=ORIENTED_EDGE('',*,*,#737,.T.);
#432=ORIENTED_EDGE('',*,*,#738,.F.);
#433=ORIENTED_EDGE('',*,*,#672,.F.);
#434=ORIENTED_EDGE('',*,*,#738,.T.);
#435=ORIENTED_EDGE('',*,*,#739,.T.);
#436=ORIENTED_EDGE('',*,*,#722,.F.);
#437=ORIENTED_EDGE('',*,*,#673,.F.);
#438=ORIENTED_EDGE('',*,*,#682,.F.);
#439=ORIENTED_EDGE('',*,*,#740,.T.);
#440=ORIENTED_EDGE('',*,*,#677,.F.);
#441=ORIENTED_EDGE('',*,*,#654,.F.);
#442=ORIENTED_EDGE('',*,*,#679,.F.);
#443=ORIENTED_EDGE('',*,*,#741,.T.);
#444=ORIENTED_EDGE('',*,*,#674,.F.);
#445=ORIENTED_EDGE('',*,*,#656,.F.);
#446=ORIENTED_EDGE('',*,*,#676,.F.);
#447=ORIENTED_EDGE('',*,*,#742,.T.);
#448=ORIENTED_EDGE('',*,*,#686,.F.);
#449=ORIENTED_EDGE('',*,*,#658,.F.);
#450=ORIENTED_EDGE('',*,*,#688,.F.);
#451=ORIENTED_EDGE('',*,*,#743,.T.);
#452=ORIENTED_EDGE('',*,*,#680,.F.);
#453=ORIENTED_EDGE('',*,*,#660,.F.);
#454=ORIENTED_EDGE('',*,*,#744,.F.);
#455=ORIENTED_EDGE('',*,*,#606,.F.);
#456=ORIENTED_EDGE('',*,*,#745,.F.);
#457=ORIENTED_EDGE('',*,*,#681,.F.);
#458=ORIENTED_EDGE('',*,*,#745,.T.);
#459=ORIENTED_EDGE('',*,*,#605,.F.);
#460=ORIENTED_EDGE('',*,*,#746,.F.);
#461=ORIENTED_EDGE('',*,*,#740,.F.);
#462=ORIENTED_EDGE('',*,*,#744,.T.);
#463=ORIENTED_EDGE('',*,*,#743,.F.);
#464=ORIENTED_EDGE('',*,*,#747,.F.);
#465=ORIENTED_EDGE('',*,*,#607,.F.);
#466=ORIENTED_EDGE('',*,*,#746,.T.);
#467=ORIENTED_EDGE('',*,*,#604,.F.);
#468=ORIENTED_EDGE('',*,*,#748,.F.);
#469=ORIENTED_EDGE('',*,*,#678,.F.);
#470=ORIENTED_EDGE('',*,*,#747,.T.);
#471=ORIENTED_EDGE('',*,*,#687,.F.);
#472=ORIENTED_EDGE('',*,*,#749,.F.);
#473=ORIENTED_EDGE('',*,*,#608,.F.);
#474=ORIENTED_EDGE('',*,*,#748,.T.);
#475=ORIENTED_EDGE('',*,*,#603,.F.);
#476=ORIENTED_EDGE('',*,*,#750,.F.);
#477=ORIENTED_EDGE('',*,*,#741,.F.);
#478=ORIENTED_EDGE('',*,*,#749,.T.);
#479=ORIENTED_EDGE('',*,*,#742,.F.);
#480=ORIENTED_EDGE('',*,*,#751,.F.);
#481=ORIENTED_EDGE('',*,*,#601,.F.);
#482=ORIENTED_EDGE('',*,*,#750,.T.);
#483=ORIENTED_EDGE('',*,*,#602,.F.);
#484=ORIENTED_EDGE('',*,*,#751,.T.);
#485=ORIENTED_EDGE('',*,*,#675,.F.);
#486=ORIENTED_EDGE('',*,*,#752,.F.);
#487=ORIENTED_EDGE('',*,*,#711,.F.);
#488=ORIENTED_EDGE('',*,*,#753,.F.);
#489=ORIENTED_EDGE('',*,*,#630,.F.);
#490=ORIENTED_EDGE('',*,*,#753,.T.);
#491=ORIENTED_EDGE('',*,*,#709,.F.);
#492=ORIENTED_EDGE('',*,*,#754,.F.);
#493=ORIENTED_EDGE('',*,*,#631,.F.);
#494=ORIENTED_EDGE('',*,*,#752,.T.);
#495=ORIENTED_EDGE('',*,*,#629,.F.);
#496=ORIENTED_EDGE('',*,*,#755,.F.);
#497=ORIENTED_EDGE('',*,*,#713,.F.);
#498=ORIENTED_EDGE('',*,*,#754,.T.);
#499=ORIENTED_EDGE('',*,*,#707,.F.);
#500=ORIENTED_EDGE('',*,*,#756,.F.);
#501=ORIENTED_EDGE('',*,*,#632,.F.);
#502=ORIENTED_EDGE('',*,*,#755,.T.);
#503=ORIENTED_EDGE('',*,*,#628,.F.);
#504=ORIENTED_EDGE('',*,*,#757,.F.);
#505=ORIENTED_EDGE('',*,*,#715,.F.);
#506=ORIENTED_EDGE('',*,*,#758,.F.);
#507=ORIENTED_EDGE('',*,*,#719,.F.);
#508=ORIENTED_EDGE('',*,*,#759,.F.);
#509=ORIENTED_EDGE('',*,*,#760,.F.);
#510=ORIENTED_EDGE('',*,*,#721,.F.);
#511=ORIENTED_EDGE('',*,*,#758,.T.);
#512=ORIENTED_EDGE('',*,*,#761,.F.);
#513=ORIENTED_EDGE('',*,*,#617,.F.);
#514=ORIENTED_EDGE('',*,*,#756,.T.);
#515=ORIENTED_EDGE('',*,*,#762,.F.);
#516=ORIENTED_EDGE('',*,*,#619,.F.);
#517=ORIENTED_EDGE('',*,*,#763,.F.);
#518=ORIENTED_EDGE('',*,*,#731,.F.);
#519=ORIENTED_EDGE('',*,*,#764,.F.);
#520=ORIENTED_EDGE('',*,*,#759,.T.);
#521=ORIENTED_EDGE('',*,*,#717,.F.);
#522=ORIENTED_EDGE('',*,*,#757,.T.);
#523=ORIENTED_EDGE('',*,*,#627,.F.);
#524=ORIENTED_EDGE('',*,*,#765,.F.);
#525=ORIENTED_EDGE('',*,*,#760,.T.);
#526=ORIENTED_EDGE('',*,*,#764,.T.);
#527=ORIENTED_EDGE('',*,*,#766,.F.);
#528=ORIENTED_EDGE('',*,*,#733,.F.);
#529=ORIENTED_EDGE('',*,*,#763,.T.);
#530=ORIENTED_EDGE('',*,*,#618,.F.);
#531=ORIENTED_EDGE('',*,*,#761,.T.);
#532=ORIENTED_EDGE('',*,*,#762,.T.);
#533=ORIENTED_EDGE('',*,*,#729,.F.);
#534=ORIENTED_EDGE('',*,*,#767,.F.);
#535=ORIENTED_EDGE('',*,*,#620,.F.);
#536=ORIENTED_EDGE('',*,*,#765,.T.);
#537=ORIENTED_EDGE('',*,*,#626,.F.);
#538=ORIENTED_EDGE('',*,*,#768,.F.);
#539=ORIENTED_EDGE('',*,*,#735,.F.);
#540=ORIENTED_EDGE('',*,*,#766,.T.);
#541=ORIENTED_EDGE('',*,*,#767,.T.);
#542=ORIENTED_EDGE('',*,*,#727,.F.);
#543=ORIENTED_EDGE('',*,*,#769,.F.);
#544=ORIENTED_EDGE('',*,*,#621,.F.);
#545=ORIENTED_EDGE('',*,*,#768,.T.);
#546=ORIENTED_EDGE('',*,*,#625,.F.);
#547=ORIENTED_EDGE('',*,*,#770,.F.);
#548=ORIENTED_EDGE('',*,*,#737,.F.);
#549=ORIENTED_EDGE('',*,*,#769,.T.);
#550=ORIENTED_EDGE('',*,*,#725,.F.);
#551=ORIENTED_EDGE('',*,*,#771,.F.);
#552=ORIENTED_EDGE('',*,*,#622,.F.);
#553=ORIENTED_EDGE('',*,*,#770,.T.);
#554=ORIENTED_EDGE('',*,*,#624,.F.);
#555=ORIENTED_EDGE('',*,*,#772,.F.);
#556=ORIENTED_EDGE('',*,*,#739,.F.);
#557=ORIENTED_EDGE('',*,*,#771,.T.);
#558=ORIENTED_EDGE('',*,*,#723,.F.);
#559=ORIENTED_EDGE('',*,*,#772,.T.);
#560=ORIENTED_EDGE('',*,*,#623,.F.);
#561=ORIENTED_EDGE('',*,*,#773,.F.);
#562=ORIENTED_EDGE('',*,*,#614,.F.);
#563=ORIENTED_EDGE('',*,*,#774,.F.);
#564=ORIENTED_EDGE('',*,*,#699,.F.);
#565=ORIENTED_EDGE('',*,*,#774,.T.);
#566=ORIENTED_EDGE('',*,*,#613,.F.);
#567=ORIENTED_EDGE('',*,*,#775,.F.);
#568=ORIENTED_EDGE('',*,*,#701,.F.);
#569=ORIENTED_EDGE('',*,*,#773,.T.);
#570=ORIENTED_EDGE('',*,*,#697,.F.);
#571=ORIENTED_EDGE('',*,*,#776,.F.);
#572=ORIENTED_EDGE('',*,*,#615,.F.);
#573=ORIENTED_EDGE('',*,*,#775,.T.);
#574=ORIENTED_EDGE('',*,*,#612,.F.);
#575=ORIENTED_EDGE('',*,*,#777,.F.);
#576=ORIENTED_EDGE('',*,*,#703,.F.);
#577=ORIENTED_EDGE('',*,*,#776,.T.);
#578=ORIENTED_EDGE('',*,*,#695,.F.);
#579=ORIENTED_EDGE('',*,*,#778,.F.);
#580=ORIENTED_EDGE('',*,*,#616,.F.);
#581=ORIENTED_EDGE('',*,*,#777,.T.);
#582=ORIENTED_EDGE('',*,*,#611,.F.);
#583=ORIENTED_EDGE('',*,*,#779,.F.);
#584=ORIENTED_EDGE('',*,*,#705,.F.);
#585=ORIENTED_EDGE('',*,*,#778,.T.);
#586=ORIENTED_EDGE('',*,*,#693,.F.);
#587=ORIENTED_EDGE('',*,*,#780,.F.);
#588=ORIENTED_EDGE('',*,*,#609,.F.);
#589=ORIENTED_EDGE('',*,*,#779,.T.);
#590=ORIENTED_EDGE('',*,*,#610,.F.);
#591=ORIENTED_EDGE('',*,*,#780,.T.);
#592=ORIENTED_EDGE('',*,*,#691,.F.);
#593=ORIENTED_EDGE('',*,*,#683,.F.);
#594=ORIENTED_EDGE('',*,*,#633,.F.);
#595=ORIENTED_EDGE('',*,*,#689,.F.);
#596=ORIENTED_EDGE('',*,*,#634,.F.);
#597=ORIENTED_EDGE('',*,*,#635,.F.);
#598=ORIENTED_EDGE('',*,*,#684,.F.);
#599=ORIENTED_EDGE('',*,*,#636,.F.);
#600=ORIENTED_EDGE('',*,*,#685,.F.);
#601=EDGE_CURVE('',#781,#782,#894,.T.);
#602=EDGE_CURVE('',#782,#783,#73,.F.);
#603=EDGE_CURVE('',#783,#784,#895,.T.);
#604=EDGE_CURVE('',#784,#785,#74,.F.);
#605=EDGE_CURVE('',#785,#786,#896,.T.);
#606=EDGE_CURVE('',#786,#787,#75,.T.);
#607=EDGE_CURVE('',#787,#788,#897,.T.);
#608=EDGE_CURVE('',#788,#781,#76,.T.);
#609=EDGE_CURVE('',#789,#790,#898,.F.);
#610=EDGE_CURVE('',#790,#791,#77,.F.);
#611=EDGE_CURVE('',#791,#792,#899,.F.);
#612=EDGE_CURVE('',#792,#793,#78,.T.);
#613=EDGE_CURVE('',#793,#794,#900,.F.);
#614=EDGE_CURVE('',#794,#795,#79,.T.);
#615=EDGE_CURVE('',#795,#796,#901,.F.);
#616=EDGE_CURVE('',#796,#789,#80,.F.);
#617=EDGE_CURVE('',#797,#798,#902,.F.);
#618=EDGE_CURVE('',#798,#799,#81,.T.);
#619=EDGE_CURVE('',#799,#800,#903,.F.);
#620=EDGE_CURVE('',#800,#801,#82,.F.);
#621=EDGE_CURVE('',#801,#802,#904,.F.);
#622=EDGE_CURVE('',#802,#803,#83,.F.);
#623=EDGE_CURVE('',#803,#804,#84,.T.);
#624=EDGE_CURVE('',#804,#805,#905,.F.);
#625=EDGE_CURVE('',#805,#806,#85,.F.);
#626=EDGE_CURVE('',#806,#807,#906,.F.);
#627=EDGE_CURVE('',#807,#808,#907,.F.);
#628=EDGE_CURVE('',#808,#809,#86,.F.);
#629=EDGE_CURVE('',#809,#810,#908,.F.);
#630=EDGE_CURVE('',#810,#811,#87,.T.);
#631=EDGE_CURVE('',#811,#812,#909,.F.);
#632=EDGE_CURVE('',#812,#797,#88,.T.);
#633=EDGE_CURVE('',#813,#813,#910,.F.);
#634=EDGE_CURVE('',#814,#814,#911,.F.);
#635=EDGE_CURVE('',#815,#815,#912,.F.);
#636=EDGE_CURVE('',#816,#816,#913,.F.);
#637=EDGE_CURVE('',#817,#818,#89,.T.);
#638=EDGE_CURVE('',#817,#819,#914,.T.);
#639=EDGE_CURVE('',#820,#819,#90,.T.);
#640=EDGE_CURVE('',#820,#821,#915,.T.);
#641=EDGE_CURVE('',#821,#822,#91,.T.);
#642=EDGE_CURVE('',#822,#823,#916,.T.);
#643=EDGE_CURVE('',#823,#824,#92,.T.);
#644=EDGE_CURVE('',#824,#818,#917,.T.);
#645=EDGE_CURVE('',#825,#826,#918,.T.);
#646=EDGE_CURVE('',#826,#827,#93,.T.);
#647=EDGE_CURVE('',#827,#828,#919,.T.);
#648=EDGE_CURVE('',#828,#829,#94,.T.);
#649=EDGE_CURVE('',#829,#830,#920,.T.);
#650=EDGE_CURVE('',#831,#830,#95,.T.);
#651=EDGE_CURVE('',#831,#832,#921,.T.);
#652=EDGE_CURVE('',#825,#832,#96,.T.);
#653=EDGE_CURVE('',#833,#834,#97,.T.);
#654=EDGE_CURVE('',#833,#835,#922,.F.);
#655=EDGE_CURVE('',#835,#836,#98,.T.);
#656=EDGE_CURVE('',#836,#837,#923,.F.);
#657=EDGE_CURVE('',#837,#838,#99,.T.);
#658=EDGE_CURVE('',#838,#839,#924,.F.);
#659=EDGE_CURVE('',#840,#839,#100,.T.);
#660=EDGE_CURVE('',#840,#834,#925,.F.);
#661=EDGE_CURVE('',#841,#841,#926,.T.);
#662=EDGE_CURVE('',#842,#842,#927,.T.);
#663=EDGE_CURVE('',#843,#843,#928,.T.);
#664=EDGE_CURVE('',#844,#844,#929,.T.);
#665=EDGE_CURVE('',#845,#846,#101,.T.);
#666=EDGE_CURVE('',#845,#847,#102,.T.);
#667=EDGE_CURVE('',#847,#848,#930,.T.);
#668=EDGE_CURVE('',#848,#849,#103,.T.);
#669=EDGE_CURVE('',#849,#850,#931,.T.);
#670=EDGE_CURVE('',#851,#850,#104,.T.);
#671=EDGE_CURVE('',#851,#852,#932,.T.);
#672=EDGE_CURVE('',#852,#853,#105,.T.);
#673=EDGE_CURVE('',#853,#846,#933,.T.);
#674=EDGE_CURVE('',#837,#854,#106,.F.);
#675=EDGE_CURVE('',#854,#855,#107,.T.);
#676=EDGE_CURVE('',#855,#838,#108,.T.);
#677=EDGE_CURVE('',#835,#856,#109,.F.);
#678=EDGE_CURVE('',#856,#857,#110,.T.);
#679=EDGE_CURVE('',#857,#836,#111,.T.);
#680=EDGE_CURVE('',#834,#858,#112,.F.);
#681=EDGE_CURVE('',#858,#859,#113,.F.);
#682=EDGE_CURVE('',#859,#833,#114,.T.);
#683=EDGE_CURVE('',#860,#860,#934,.T.);
#684=EDGE_CURVE('',#861,#861,#935,.T.);
#685=EDGE_CURVE('',#862,#862,#936,.T.);
#686=EDGE_CURVE('',#839,#863,#115,.F.);
#687=EDGE_CURVE('',#863,#864,#116,.F.);
#688=EDGE_CURVE('',#864,#840,#117,.T.);
#689=EDGE_CURVE('',#865,#865,#937,.T.);
#690=EDGE_CURVE('',#826,#866,#118,.T.);
#691=EDGE_CURVE('',#866,#867,#119,.T.);
#692=EDGE_CURVE('',#827,#867,#120,.T.);
#693=EDGE_CURVE('',#867,#868,#938,.T.);
#694=EDGE_CURVE('',#828,#868,#121,.T.);
#695=EDGE_CURVE('',#868,#869,#122,.T.);
#696=EDGE_CURVE('',#829,#869,#123,.T.);
#697=EDGE_CURVE('',#869,#870,#939,.T.);
#698=EDGE_CURVE('',#830,#870,#124,.T.);
#699=EDGE_CURVE('',#870,#871,#125,.F.);
#700=EDGE_CURVE('',#831,#871,#126,.T.);
#701=EDGE_CURVE('',#871,#872,#940,.T.);
#702=EDGE_CURVE('',#832,#872,#127,.T.);
#703=EDGE_CURVE('',#872,#873,#128,.F.);
#704=EDGE_CURVE('',#825,#873,#129,.T.);
#705=EDGE_CURVE('',#873,#866,#941,.T.);
#706=EDGE_CURVE('',#818,#874,#130,.T.);
#707=EDGE_CURVE('',#874,#875,#131,.F.);
#708=EDGE_CURVE('',#817,#875,#132,.T.);
#709=EDGE_CURVE('',#875,#876,#942,.T.);
#710=EDGE_CURVE('',#819,#876,#133,.T.);
#711=EDGE_CURVE('',#876,#877,#134,.F.);
#712=EDGE_CURVE('',#820,#877,#135,.T.);
#713=EDGE_CURVE('',#877,#878,#943,.T.);
#714=EDGE_CURVE('',#821,#878,#136,.T.);
#715=EDGE_CURVE('',#878,#879,#137,.T.);
#716=EDGE_CURVE('',#822,#879,#138,.T.);
#717=EDGE_CURVE('',#879,#880,#944,.T.);
#718=EDGE_CURVE('',#823,#880,#139,.T.);
#719=EDGE_CURVE('',#880,#881,#140,.T.);
#720=EDGE_CURVE('',#824,#881,#141,.T.);
#721=EDGE_CURVE('',#881,#874,#945,.T.);
#722=EDGE_CURVE('',#846,#882,#142,.T.);
#723=EDGE_CURVE('',#882,#883,#143,.F.);
#724=EDGE_CURVE('',#845,#883,#144,.T.);
#725=EDGE_CURVE('',#883,#884,#145,.T.);
#726=EDGE_CURVE('',#847,#884,#146,.T.);
#727=EDGE_CURVE('',#884,#885,#946,.T.);
#728=EDGE_CURVE('',#848,#885,#147,.T.);
#729=EDGE_CURVE('',#885,#886,#148,.T.);
#730=EDGE_CURVE('',#849,#886,#149,.T.);
#731=EDGE_CURVE('',#886,#887,#947,.T.);
#732=EDGE_CURVE('',#850,#887,#150,.T.);
#733=EDGE_CURVE('',#887,#888,#151,.F.);
#734=EDGE_CURVE('',#851,#888,#152,.T.);
#735=EDGE_CURVE('',#888,#889,#948,.T.);
#736=EDGE_CURVE('',#852,#889,#153,.T.);
#737=EDGE_CURVE('',#889,#890,#154,.T.);
#738=EDGE_CURVE('',#853,#890,#155,.T.);
#739=EDGE_CURVE('',#890,#882,#949,.T.);
#740=EDGE_CURVE('',#859,#856,#950,.F.);
#741=EDGE_CURVE('',#857,#854,#951,.F.);
#742=EDGE_CURVE('',#855,#863,#952,.F.);
#743=EDGE_CURVE('',#864,#858,#953,.F.);
#744=EDGE_CURVE('',#787,#858,#954,.T.);
#745=EDGE_CURVE('',#859,#786,#955,.T.);
#746=EDGE_CURVE('',#856,#785,#956,.T.);
#747=EDGE_CURVE('',#788,#864,#957,.T.);
#748=EDGE_CURVE('',#857,#784,#958,.T.);
#749=EDGE_CURVE('',#781,#863,#959,.T.);
#750=EDGE_CURVE('',#854,#783,#960,.T.);
#751=EDGE_CURVE('',#782,#855,#961,.T.);
#752=EDGE_CURVE('',#877,#810,#962,.T.);
#753=EDGE_CURVE('',#811,#876,#963,.T.);
#754=EDGE_CURVE('',#812,#875,#964,.T.);
#755=EDGE_CURVE('',#878,#809,#965,.T.);
#756=EDGE_CURVE('',#797,#874,#966,.T.);
#757=EDGE_CURVE('',#879,#808,#967,.T.);
#758=EDGE_CURVE('',#881,#891,#968,.T.);
#759=EDGE_CURVE('',#892,#880,#969,.T.);
#760=EDGE_CURVE('',#891,#892,#156,.T.);
#761=EDGE_CURVE('',#798,#891,#13,.T.);
#762=EDGE_CURVE('',#800,#886,#970,.T.);
#763=EDGE_CURVE('',#887,#799,#971,.T.);
#764=EDGE_CURVE('',#892,#893,#14,.T.);
#765=EDGE_CURVE('',#893,#807,#15,.F.);
#766=EDGE_CURVE('',#888,#893,#972,.T.);
#767=EDGE_CURVE('',#801,#885,#973,.T.);
#768=EDGE_CURVE('',#889,#806,#974,.T.);
#769=EDGE_CURVE('',#802,#884,#975,.T.);
#770=EDGE_CURVE('',#890,#805,#976,.T.);
#771=EDGE_CURVE('',#803,#883,#12,.T.);
#772=EDGE_CURVE('',#882,#804,#977,.T.);
#773=EDGE_CURVE('',#795,#870,#978,.T.);
#774=EDGE_CURVE('',#871,#794,#979,.T.);
#775=EDGE_CURVE('',#872,#793,#980,.T.);
#776=EDGE_CURVE('',#796,#869,#981,.T.);
#777=EDGE_CURVE('',#873,#792,#982,.T.);
#778=EDGE_CURVE('',#789,#868,#983,.T.);
#779=EDGE_CURVE('',#866,#791,#984,.T.);
#780=EDGE_CURVE('',#790,#867,#985,.T.);
#781=VERTEX_POINT('',#1884);
#782=VERTEX_POINT('',#1885);
#783=VERTEX_POINT('',#1887);
#784=VERTEX_POINT('',#1889);
#785=VERTEX_POINT('',#1891);
#786=VERTEX_POINT('',#1893);
#787=VERTEX_POINT('',#1895);
#788=VERTEX_POINT('',#1897);
#789=VERTEX_POINT('',#1900);
#790=VERTEX_POINT('',#1901);
#791=VERTEX_POINT('',#1903);
#792=VERTEX_POINT('',#1905);
#793=VERTEX_POINT('',#1907);
#794=VERTEX_POINT('',#1909);
#795=VERTEX_POINT('',#1911);
#796=VERTEX_POINT('',#1913);
#797=VERTEX_POINT('',#1916);
#798=VERTEX_POINT('',#1917);
#799=VERTEX_POINT('',#1919);
#800=VERTEX_POINT('',#1921);
#801=VERTEX_POINT('',#1923);
#802=VERTEX_POINT('',#1925);
#803=VERTEX_POINT('',#1927);
#804=VERTEX_POINT('',#1929);
#805=VERTEX_POINT('',#1931);
#806=VERTEX_POINT('',#1933);
#807=VERTEX_POINT('',#1935);
#808=VERTEX_POINT('',#1937);
#809=VERTEX_POINT('',#1939);
#810=VERTEX_POINT('',#1941);
#811=VERTEX_POINT('',#1943);
#812=VERTEX_POINT('',#1945);
#813=VERTEX_POINT('',#1948);
#814=VERTEX_POINT('',#1950);
#815=VERTEX_POINT('',#1952);
#816=VERTEX_POINT('',#1954);
#817=VERTEX_POINT('',#1957);
#818=VERTEX_POINT('',#1958);
#819=VERTEX_POINT('',#1960);
#820=VERTEX_POINT('',#1962);
#821=VERTEX_POINT('',#1964);
#822=VERTEX_POINT('',#1966);
#823=VERTEX_POINT('',#1968);
#824=VERTEX_POINT('',#1970);
#825=VERTEX_POINT('',#1973);
#826=VERTEX_POINT('',#1974);
#827=VERTEX_POINT('',#1976);
#828=VERTEX_POINT('',#1978);
#829=VERTEX_POINT('',#1980);
#830=VERTEX_POINT('',#1982);
#831=VERTEX_POINT('',#1984);
#832=VERTEX_POINT('',#1986);
#833=VERTEX_POINT('',#1989);
#834=VERTEX_POINT('',#1990);
#835=VERTEX_POINT('',#1992);
#836=VERTEX_POINT('',#1994);
#837=VERTEX_POINT('',#1996);
#838=VERTEX_POINT('',#1998);
#839=VERTEX_POINT('',#2000);
#840=VERTEX_POINT('',#2002);
#841=VERTEX_POINT('',#2005);
#842=VERTEX_POINT('',#2007);
#843=VERTEX_POINT('',#2009);
#844=VERTEX_POINT('',#2011);
#845=VERTEX_POINT('',#2013);
#846=VERTEX_POINT('',#2014);
#847=VERTEX_POINT('',#2016);
#848=VERTEX_POINT('',#2018);
#849=VERTEX_POINT('',#2020);
#850=VERTEX_POINT('',#2022);
#851=VERTEX_POINT('',#2024);
#852=VERTEX_POINT('',#2026);
#853=VERTEX_POINT('',#2028);
#854=VERTEX_POINT('',#2032);
#855=VERTEX_POINT('',#2034);
#856=VERTEX_POINT('',#2038);
#857=VERTEX_POINT('',#2040);
#858=VERTEX_POINT('',#2044);
#859=VERTEX_POINT('',#2046);
#860=VERTEX_POINT('',#2050);
#861=VERTEX_POINT('',#2053);
#862=VERTEX_POINT('',#2056);
#863=VERTEX_POINT('',#2059);
#864=VERTEX_POINT('',#2061);
#865=VERTEX_POINT('',#2065);
#866=VERTEX_POINT('',#2068);
#867=VERTEX_POINT('',#2070);
#868=VERTEX_POINT('',#2074);
#869=VERTEX_POINT('',#2078);
#870=VERTEX_POINT('',#2082);
#871=VERTEX_POINT('',#2086);
#872=VERTEX_POINT('',#2090);
#873=VERTEX_POINT('',#2094);
#874=VERTEX_POINT('',#2100);
#875=VERTEX_POINT('',#2102);
#876=VERTEX_POINT('',#2106);
#877=VERTEX_POINT('',#2110);
#878=VERTEX_POINT('',#2114);
#879=VERTEX_POINT('',#2118);
#880=VERTEX_POINT('',#2122);
#881=VERTEX_POINT('',#2126);
#882=VERTEX_POINT('',#2132);
#883=VERTEX_POINT('',#2134);
#884=VERTEX_POINT('',#2138);
#885=VERTEX_POINT('',#2142);
#886=VERTEX_POINT('',#2146);
#887=VERTEX_POINT('',#2150);
#888=VERTEX_POINT('',#2154);
#889=VERTEX_POINT('',#2158);
#890=VERTEX_POINT('',#2162);
#891=VERTEX_POINT('',#2203);
#892=VERTEX_POINT('',#2205);
#893=VERTEX_POINT('',#2220);
#894=CIRCLE('',#1289,0.0015);
#895=CIRCLE('',#1290,0.0015);
#896=CIRCLE('',#1291,0.0015);
#897=CIRCLE('',#1292,0.0015);
#898=CIRCLE('',#1293,0.002);
#899=CIRCLE('',#1294,0.00200000000000005);
#900=CIRCLE('',#1295,0.00200000000000003);
#901=CIRCLE('',#1296,0.00200000000000004);
#902=CIRCLE('',#1297,0.00200000000000005);
#903=CIRCLE('',#1298,0.00200000000000003);
#904=CIRCLE('',#1299,0.002);
#905=CIRCLE('',#1300,0.002);
#906=CIRCLE('',#1301,0.002);
#907=CIRCLE('',#1302,0.002);
#908=CIRCLE('',#1303,0.002);
#909=CIRCLE('',#1304,0.00200000000000004);
#910=CIRCLE('',#1305,0.0031);
#911=CIRCLE('',#1306,0.0031);
#912=CIRCLE('',#1307,0.0031);
#913=CIRCLE('',#1308,0.0031);
#914=CIRCLE('',#1310,0.00100000000000004);
#915=CIRCLE('',#1311,0.001);
#916=CIRCLE('',#1312,0.00100000000000001);
#917=CIRCLE('',#1313,0.00100000000000005);
#918=CIRCLE('',#1314,0.00100000000000004);
#919=CIRCLE('',#1315,0.001);
#920=CIRCLE('',#1316,0.00100000000000003);
#921=CIRCLE('',#1317,0.00100000000000003);
#922=CIRCLE('',#1318,0.0025);
#923=CIRCLE('',#1319,0.0025);
#924=CIRCLE('',#1320,0.0025);
#925=CIRCLE('',#1321,0.0025);
#926=CIRCLE('',#1322,0.0021);
#927=CIRCLE('',#1323,0.0021);
#928=CIRCLE('',#1324,0.0021);
#929=CIRCLE('',#1325,0.0021);
#930=CIRCLE('',#1326,0.001);
#931=CIRCLE('',#1327,0.00100000000000003);
#932=CIRCLE('',#1328,0.001);
#933=CIRCLE('',#1329,0.00099999999999998);
#934=CIRCLE('',#1334,0.0021);
#935=CIRCLE('',#1336,0.0021);
#936=CIRCLE('',#1338,0.0021);
#937=CIRCLE('',#1341,0.0021);
#938=CIRCLE('',#1344,0.001);
#939=CIRCLE('',#1347,0.00100000000000003);
#940=CIRCLE('',#1350,0.00100000000000003);
#941=CIRCLE('',#1353,0.00100000000000004);
#942=CIRCLE('',#1356,0.00100000000000004);
#943=CIRCLE('',#1359,0.001);
#944=CIRCLE('',#1362,0.00100000000000001);
#945=CIRCLE('',#1365,0.00100000000000005);
#946=CIRCLE('',#1369,0.001);
#947=CIRCLE('',#1372,0.00100000000000003);
#948=CIRCLE('',#1375,0.001);
#949=CIRCLE('',#1378,0.00099999999999998);
#950=CIRCLE('',#1380,0.0025);
#951=CIRCLE('',#1382,0.0025);
#952=CIRCLE('',#1384,0.0025);
#953=CIRCLE('',#1386,0.0025);
#954=CIRCLE('',#1388,0.001);
#955=CIRCLE('',#1389,0.001);
#956=CIRCLE('',#1391,0.001);
#957=CIRCLE('',#1393,0.001);
#958=CIRCLE('',#1395,0.001);
#959=CIRCLE('',#1397,0.001);
#960=CIRCLE('',#1399,0.001);
#961=CIRCLE('',#1401,0.001);
#962=CIRCLE('',#1404,0.001);
#963=CIRCLE('',#1405,0.001);
#964=CIRCLE('',#1407,0.001);
#965=CIRCLE('',#1409,0.001);
#966=CIRCLE('',#1411,0.001);
#967=CIRCLE('',#1413,0.001);
#968=CIRCLE('',#1415,0.001);
#969=CIRCLE('',#1416,0.001);
#970=CIRCLE('',#1419,0.001);
#971=CIRCLE('',#1420,0.001);
#972=CIRCLE('',#1423,0.001);
#973=CIRCLE('',#1425,0.001);
#974=CIRCLE('',#1427,0.001);
#975=CIRCLE('',#1429,0.001);
#976=CIRCLE('',#1431,0.001);
#977=CIRCLE('',#1435,0.001);
#978=CIRCLE('',#1438,0.001);
#979=CIRCLE('',#1439,0.001);
#980=CIRCLE('',#1441,0.001);
#981=CIRCLE('',#1443,0.001);
#982=CIRCLE('',#1445,0.001);
#983=CIRCLE('',#1447,0.001);
#984=CIRCLE('',#1449,0.001);
#985=CIRCLE('',#1451,0.001);
#986=EDGE_LOOP('',(#241,#242,#243,#244,#245,#246,#247,#248));
#987=EDGE_LOOP('',(#249,#250,#251,#252,#253,#254,#255,#256));
#988=EDGE_LOOP('',(#257,#258,#259,#260,#261,#262,#263,#264,#265,#266,#267,
#268,#269,#270,#271,#272));
#989=EDGE_LOOP('',(#273));
#990=EDGE_LOOP('',(#274));
#991=EDGE_LOOP('',(#275));
#992=EDGE_LOOP('',(#276));
#993=EDGE_LOOP('',(#277,#278,#279,#280,#281,#282,#283,#284));
#994=EDGE_LOOP('',(#285,#286,#287,#288,#289,#290,#291,#292));
#995=EDGE_LOOP('',(#293,#294,#295,#296,#297,#298,#299,#300));
#996=EDGE_LOOP('',(#301));
#997=EDGE_LOOP('',(#302));
#998=EDGE_LOOP('',(#303));
#999=EDGE_LOOP('',(#304));
#1000=EDGE_LOOP('',(#305,#306,#307,#308,#309,#310,#311,#312,#313));
#1001=EDGE_LOOP('',(#314,#315,#316,#317));
#1002=EDGE_LOOP('',(#318,#319,#320,#321));
#1003=EDGE_LOOP('',(#322,#323,#324,#325));
#1004=EDGE_LOOP('',(#326));
#1005=EDGE_LOOP('',(#327));
#1006=EDGE_LOOP('',(#328));
#1007=EDGE_LOOP('',(#329));
#1008=EDGE_LOOP('',(#330));
#1009=EDGE_LOOP('',(#331));
#1010=EDGE_LOOP('',(#332,#333,#334,#335));
#1011=EDGE_LOOP('',(#336));
#1012=EDGE_LOOP('',(#337));
#1013=EDGE_LOOP('',(#338,#339,#340,#341));
#1014=EDGE_LOOP('',(#342,#343,#344,#345));
#1015=EDGE_LOOP('',(#346,#347,#348,#349));
#1016=EDGE_LOOP('',(#350,#351,#352,#353));
#1017=EDGE_LOOP('',(#354,#355,#356,#357));
#1018=EDGE_LOOP('',(#358,#359,#360,#361));
#1019=EDGE_LOOP('',(#362,#363,#364,#365));
#1020=EDGE_LOOP('',(#366,#367,#368,#369));
#1021=EDGE_LOOP('',(#370,#371,#372,#373));
#1022=EDGE_LOOP('',(#374,#375,#376,#377));
#1023=EDGE_LOOP('',(#378,#379,#380,#381));
#1024=EDGE_LOOP('',(#382,#383,#384,#385));
#1025=EDGE_LOOP('',(#386,#387,#388,#389));
#1026=EDGE_LOOP('',(#390,#391,#392,#393));
#1027=EDGE_LOOP('',(#394,#395,#396,#397));
#1028=EDGE_LOOP('',(#398,#399,#400,#401));
#1029=EDGE_LOOP('',(#402,#403,#404,#405));
#1030=EDGE_LOOP('',(#406,#407,#408,#409));
#1031=EDGE_LOOP('',(#410,#411,#412,#413));
#1032=EDGE_LOOP('',(#414,#415,#416,#417));
#1033=EDGE_LOOP('',(#418,#419,#420,#421));
#1034=EDGE_LOOP('',(#422,#423,#424,#425));
#1035=EDGE_LOOP('',(#426,#427,#428,#429));
#1036=EDGE_LOOP('',(#430,#431,#432,#433));
#1037=EDGE_LOOP('',(#434,#435,#436,#437));
#1038=EDGE_LOOP('',(#438,#439,#440,#441));
#1039=EDGE_LOOP('',(#442,#443,#444,#445));
#1040=EDGE_LOOP('',(#446,#447,#448,#449));
#1041=EDGE_LOOP('',(#450,#451,#452,#453));
#1042=EDGE_LOOP('',(#454,#455,#456,#457));
#1043=EDGE_LOOP('',(#458,#459,#460,#461));
#1044=EDGE_LOOP('',(#462,#463,#464,#465));
#1045=EDGE_LOOP('',(#466,#467,#468,#469));
#1046=EDGE_LOOP('',(#470,#471,#472,#473));
#1047=EDGE_LOOP('',(#474,#475,#476,#477));
#1048=EDGE_LOOP('',(#478,#479,#480,#481));
#1049=EDGE_LOOP('',(#482,#483,#484,#485));
#1050=EDGE_LOOP('',(#486,#487,#488,#489));
#1051=EDGE_LOOP('',(#490,#491,#492,#493));
#1052=EDGE_LOOP('',(#494,#495,#496,#497));
#1053=EDGE_LOOP('',(#498,#499,#500,#501));
#1054=EDGE_LOOP('',(#502,#503,#504,#505));
#1055=EDGE_LOOP('',(#506,#507,#508,#509));
#1056=EDGE_LOOP('',(#510,#511,#512,#513,#514));
#1057=EDGE_LOOP('',(#515,#516,#517,#518));
#1058=EDGE_LOOP('',(#519,#520,#521,#522,#523,#524));
#1059=EDGE_LOOP('',(#525,#526,#527,#528,#529,#530,#531));
#1060=EDGE_LOOP('',(#532,#533,#534,#535));
#1061=EDGE_LOOP('',(#536,#537,#538,#539,#540));
#1062=EDGE_LOOP('',(#541,#542,#543,#544));
#1063=EDGE_LOOP('',(#545,#546,#547,#548));
#1064=EDGE_LOOP('',(#549,#550,#551,#552));
#1065=EDGE_LOOP('',(#553,#554,#555,#556));
#1066=EDGE_LOOP('',(#557,#558,#559,#560));
#1067=EDGE_LOOP('',(#561,#562,#563,#564));
#1068=EDGE_LOOP('',(#565,#566,#567,#568));
#1069=EDGE_LOOP('',(#569,#570,#571,#572));
#1070=EDGE_LOOP('',(#573,#574,#575,#576));
#1071=EDGE_LOOP('',(#577,#578,#579,#580));
#1072=EDGE_LOOP('',(#581,#582,#583,#584));
#1073=EDGE_LOOP('',(#585,#586,#587,#588));
#1074=EDGE_LOOP('',(#589,#590,#591,#592));
#1075=EDGE_LOOP('',(#593));
#1076=EDGE_LOOP('',(#594));
#1077=EDGE_LOOP('',(#595));
#1078=EDGE_LOOP('',(#596));
#1079=EDGE_LOOP('',(#597));
#1080=EDGE_LOOP('',(#598));
#1081=EDGE_LOOP('',(#599));
#1082=EDGE_LOOP('',(#600));
#1083=FACE_BOUND('',#986,.T.);
#1084=FACE_BOUND('',#987,.T.);
#1085=FACE_BOUND('',#988,.T.);
#1086=FACE_BOUND('',#989,.T.);
#1087=FACE_BOUND('',#990,.T.);
#1088=FACE_BOUND('',#991,.T.);
#1089=FACE_BOUND('',#992,.T.);
#1090=FACE_BOUND('',#993,.T.);
#1091=FACE_BOUND('',#994,.T.);
#1092=FACE_BOUND('',#995,.T.);
#1093=FACE_BOUND('',#996,.T.);
#1094=FACE_BOUND('',#997,.T.);
#1095=FACE_BOUND('',#998,.T.);
#1096=FACE_BOUND('',#999,.T.);
#1097=FACE_BOUND('',#1000,.T.);
#1098=FACE_BOUND('',#1001,.T.);
#1099=FACE_BOUND('',#1002,.T.);
#1100=FACE_BOUND('',#1003,.T.);
#1101=FACE_BOUND('',#1004,.T.);
#1102=FACE_BOUND('',#1005,.T.);
#1103=FACE_BOUND('',#1006,.T.);
#1104=FACE_BOUND('',#1007,.T.);
#1105=FACE_BOUND('',#1008,.T.);
#1106=FACE_BOUND('',#1009,.T.);
#1107=FACE_BOUND('',#1010,.T.);
#1108=FACE_BOUND('',#1011,.T.);
#1109=FACE_BOUND('',#1012,.T.);
#1110=FACE_BOUND('',#1013,.T.);
#1111=FACE_BOUND('',#1014,.T.);
#1112=FACE_BOUND('',#1015,.T.);
#1113=FACE_BOUND('',#1016,.T.);
#1114=FACE_BOUND('',#1017,.T.);
#1115=FACE_BOUND('',#1018,.T.);
#1116=FACE_BOUND('',#1019,.T.);
#1117=FACE_BOUND('',#1020,.T.);
#1118=FACE_BOUND('',#1021,.T.);
#1119=FACE_BOUND('',#1022,.T.);
#1120=FACE_BOUND('',#1023,.T.);
#1121=FACE_BOUND('',#1024,.T.);
#1122=FACE_BOUND('',#1025,.T.);
#1123=FACE_BOUND('',#1026,.T.);
#1124=FACE_BOUND('',#1027,.T.);
#1125=FACE_BOUND('',#1028,.T.);
#1126=FACE_BOUND('',#1029,.T.);
#1127=FACE_BOUND('',#1030,.T.);
#1128=FACE_BOUND('',#1031,.T.);
#1129=FACE_BOUND('',#1032,.T.);
#1130=FACE_BOUND('',#1033,.T.);
#1131=FACE_BOUND('',#1034,.T.);
#1132=FACE_BOUND('',#1035,.T.);
#1133=FACE_BOUND('',#1036,.T.);
#1134=FACE_BOUND('',#1037,.T.);
#1135=FACE_BOUND('',#1038,.T.);
#1136=FACE_BOUND('',#1039,.T.);
#1137=FACE_BOUND('',#1040,.T.);
#1138=FACE_BOUND('',#1041,.T.);
#1139=FACE_BOUND('',#1042,.T.);
#1140=FACE_BOUND('',#1043,.T.);
#1141=FACE_BOUND('',#1044,.T.);
#1142=FACE_BOUND('',#1045,.T.);
#1143=FACE_BOUND('',#1046,.T.);
#1144=FACE_BOUND('',#1047,.T.);
#1145=FACE_BOUND('',#1048,.T.);
#1146=FACE_BOUND('',#1049,.T.);
#1147=FACE_BOUND('',#1050,.T.);
#1148=FACE_BOUND('',#1051,.T.);
#1149=FACE_BOUND('',#1052,.T.);
#1150=FACE_BOUND('',#1053,.T.);
#1151=FACE_BOUND('',#1054,.T.);
#1152=FACE_BOUND('',#1055,.T.);
#1153=FACE_BOUND('',#1056,.T.);
#1154=FACE_BOUND('',#1057,.T.);
#1155=FACE_BOUND('',#1058,.T.);
#1156=FACE_BOUND('',#1059,.T.);
#1157=FACE_BOUND('',#1060,.T.);
#1158=FACE_BOUND('',#1061,.T.);
#1159=FACE_BOUND('',#1062,.T.);
#1160=FACE_BOUND('',#1063,.T.);
#1161=FACE_BOUND('',#1064,.T.);
#1162=FACE_BOUND('',#1065,.T.);
#1163=FACE_BOUND('',#1066,.T.);
#1164=FACE_BOUND('',#1067,.T.);
#1165=FACE_BOUND('',#1068,.T.);
#1166=FACE_BOUND('',#1069,.T.);
#1167=FACE_BOUND('',#1070,.T.);
#1168=FACE_BOUND('',#1071,.T.);
#1169=FACE_BOUND('',#1072,.T.);
#1170=FACE_BOUND('',#1073,.T.);
#1171=FACE_BOUND('',#1074,.T.);
#1172=FACE_BOUND('',#1075,.T.);
#1173=FACE_BOUND('',#1076,.T.);
#1174=FACE_BOUND('',#1077,.T.);
#1175=FACE_BOUND('',#1078,.T.);
#1176=FACE_BOUND('',#1079,.T.);
#1177=FACE_BOUND('',#1080,.T.);
#1178=FACE_BOUND('',#1081,.T.);
#1179=FACE_BOUND('',#1082,.T.);
#1180=PLANE('',#1288);
#1181=PLANE('',#1309);
#1182=PLANE('',#1330);
#1183=PLANE('',#1331);
#1184=PLANE('',#1332);
#1185=PLANE('',#1339);
#1186=PLANE('',#1342);
#1187=PLANE('',#1345);
#1188=PLANE('',#1348);
#1189=PLANE('',#1351);
#1190=PLANE('',#1354);
#1191=PLANE('',#1357);
#1192=PLANE('',#1360);
#1193=PLANE('',#1363);
#1194=PLANE('',#1366);
#1195=PLANE('',#1367);
#1196=PLANE('',#1370);
#1197=PLANE('',#1373);
#1198=PLANE('',#1376);
#1199=ADVANCED_FACE('',(#1083,#1084,#1085,#1086,#1087,#1088,#1089),#1180,
 .T.);
#1200=ADVANCED_FACE('',(#1090,#1091,#1092,#1093,#1094,#1095,#1096,#1097),
#1181,.F.);
#1201=ADVANCED_FACE('',(#1098),#1182,.T.);
#1202=ADVANCED_FACE('',(#1099),#1183,.T.);
#1203=ADVANCED_FACE('',(#1100),#1184,.F.);
#1204=ADVANCED_FACE('',(#1101,#1102),#36,.F.);
#1205=ADVANCED_FACE('',(#1103,#1104),#37,.F.);
#1206=ADVANCED_FACE('',(#1105,#1106),#38,.F.);
#1207=ADVANCED_FACE('',(#1107),#1185,.F.);
#1208=ADVANCED_FACE('',(#1108,#1109),#39,.F.);
#1209=ADVANCED_FACE('',(#1110),#1186,.F.);
#1210=ADVANCED_FACE('',(#1111),#40,.F.);
#1211=ADVANCED_FACE('',(#1112),#1187,.F.);
#1212=ADVANCED_FACE('',(#1113),#41,.F.);
#1213=ADVANCED_FACE('',(#1114),#1188,.T.);
#1214=ADVANCED_FACE('',(#1115),#42,.F.);
#1215=ADVANCED_FACE('',(#1116),#1189,.T.);
#1216=ADVANCED_FACE('',(#1117),#43,.F.);
#1217=ADVANCED_FACE('',(#1118),#1190,.T.);
#1218=ADVANCED_FACE('',(#1119),#44,.F.);
#1219=ADVANCED_FACE('',(#1120),#1191,.T.);
#1220=ADVANCED_FACE('',(#1121),#45,.F.);
#1221=ADVANCED_FACE('',(#1122),#1192,.F.);
#1222=ADVANCED_FACE('',(#1123),#46,.F.);
#1223=ADVANCED_FACE('',(#1124),#1193,.F.);
#1224=ADVANCED_FACE('',(#1125),#47,.F.);
#1225=ADVANCED_FACE('',(#1126),#1194,.T.);
#1226=ADVANCED_FACE('',(#1127),#1195,.F.);
#1227=ADVANCED_FACE('',(#1128),#48,.F.);
#1228=ADVANCED_FACE('',(#1129),#1196,.F.);
#1229=ADVANCED_FACE('',(#1130),#49,.F.);
#1230=ADVANCED_FACE('',(#1131),#1197,.T.);
#1231=ADVANCED_FACE('',(#1132),#50,.F.);
#1232=ADVANCED_FACE('',(#1133),#1198,.F.);
#1233=ADVANCED_FACE('',(#1134),#51,.F.);
#1234=ADVANCED_FACE('',(#1135),#52,.T.);
#1235=ADVANCED_FACE('',(#1136),#53,.T.);
#1236=ADVANCED_FACE('',(#1137),#54,.T.);
#1237=ADVANCED_FACE('',(#1138),#55,.T.);
#1238=ADVANCED_FACE('',(#1139),#56,.T.);
#1239=ADVANCED_FACE('',(#1140),#16,.T.);
#1240=ADVANCED_FACE('',(#1141),#17,.T.);
#1241=ADVANCED_FACE('',(#1142),#57,.T.);
#1242=ADVANCED_FACE('',(#1143),#58,.T.);
#1243=ADVANCED_FACE('',(#1144),#18,.T.);
#1244=ADVANCED_FACE('',(#1145),#19,.T.);
#1245=ADVANCED_FACE('',(#1146),#59,.T.);
#1246=ADVANCED_FACE('',(#1147),#60,.T.);
#1247=ADVANCED_FACE('',(#1148),#20,.T.);
#1248=ADVANCED_FACE('',(#1149),#21,.T.);
#1249=ADVANCED_FACE('',(#1150),#61,.T.);
#1250=ADVANCED_FACE('',(#1151),#62,.T.);
#1251=ADVANCED_FACE('',(#1152),#63,.T.);
#1252=ADVANCED_FACE('',(#1153),#22,.T.);
#1253=ADVANCED_FACE('',(#1154),#23,.T.);
#1254=ADVANCED_FACE('',(#1155),#24,.T.);
#1255=ADVANCED_FACE('',(#1156),#64,.T.);
#1256=ADVANCED_FACE('',(#1157),#65,.T.);
#1257=ADVANCED_FACE('',(#1158),#25,.T.);
#1258=ADVANCED_FACE('',(#1159),#26,.T.);
#1259=ADVANCED_FACE('',(#1160),#66,.T.);
#1260=ADVANCED_FACE('',(#1161),#67,.T.);
#1261=ADVANCED_FACE('',(#1162),#27,.T.);
#1262=ADVANCED_FACE('',(#1163),#68,.T.);
#1263=ADVANCED_FACE('',(#1164),#69,.T.);
#1264=ADVANCED_FACE('',(#1165),#28,.T.);
#1265=ADVANCED_FACE('',(#1166),#29,.T.);
#1266=ADVANCED_FACE('',(#1167),#70,.T.);
#1267=ADVANCED_FACE('',(#1168),#71,.T.);
#1268=ADVANCED_FACE('',(#1169),#30,.T.);
#1269=ADVANCED_FACE('',(#1170),#31,.T.);
#1270=ADVANCED_FACE('',(#1171),#72,.T.);
#1271=ADVANCED_FACE('',(#1172,#1173),#32,.T.);
#1272=ADVANCED_FACE('',(#1174,#1175),#33,.T.);
#1273=ADVANCED_FACE('',(#1176,#1177),#34,.T.);
#1274=ADVANCED_FACE('',(#1178,#1179),#35,.T.);
#1275=CLOSED_SHELL('',(#1199,#1200,#1201,#1202,#1203,#1204,#1205,#1206,
#1207,#1208,#1209,#1210,#1211,#1212,#1213,#1214,#1215,#1216,#1217,#1218,
#1219,#1220,#1221,#1222,#1223,#1224,#1225,#1226,#1227,#1228,#1229,#1230,
#1231,#1232,#1233,#1234,#1235,#1236,#1237,#1238,#1239,#1240,#1241,#1242,
#1243,#1244,#1245,#1246,#1247,#1248,#1249,#1250,#1251,#1252,#1253,#1254,
#1255,#1256,#1257,#1258,#1259,#1260,#1261,#1262,#1263,#1264,#1265,#1266,
#1267,#1268,#1269,#1270,#1271,#1272,#1273,#1274));
#1276=STYLED_ITEM('',(#1277),#1284);
#1277=PRESENTATION_STYLE_ASSIGNMENT((#1278));
#1278=SURFACE_STYLE_USAGE(.BOTH.,#1279);
#1279=SURFACE_SIDE_STYLE('',(#1280));
#1280=SURFACE_STYLE_FILL_AREA(#1281);
#1281=FILL_AREA_STYLE('',(#1282));
#1282=FILL_AREA_STYLE_COLOUR('',#1283);
#1283=DRAUGHTING_PRE_DEFINED_COLOUR('red');
#1284=MANIFOLD_SOLID_BREP('top part',#1275);
#1285=SHAPE_DEFINITION_REPRESENTATION(#2266,#1286);
#1286=SHAPE_REPRESENTATION('top part',(#1287),#2261);
#1287=AXIS2_PLACEMENT_3D('',#1881,#1457,#1458);
#1288=AXIS2_PLACEMENT_3D('',#1882,#1459,#1460);
#1289=AXIS2_PLACEMENT_3D('',#1883,#1461,#1462);
#1290=AXIS2_PLACEMENT_3D('',#1888,#1464,#1465);
#1291=AXIS2_PLACEMENT_3D('',#1892,#1467,#1468);
#1292=AXIS2_PLACEMENT_3D('',#1896,#1470,#1471);
#1293=AXIS2_PLACEMENT_3D('',#1899,#1473,#1474);
#1294=AXIS2_PLACEMENT_3D('',#1904,#1476,#1477);
#1295=AXIS2_PLACEMENT_3D('',#1908,#1479,#1480);
#1296=AXIS2_PLACEMENT_3D('',#1912,#1482,#1483);
#1297=AXIS2_PLACEMENT_3D('',#1915,#1485,#1486);
#1298=AXIS2_PLACEMENT_3D('',#1920,#1488,#1489);
#1299=AXIS2_PLACEMENT_3D('',#1924,#1491,#1492);
#1300=AXIS2_PLACEMENT_3D('',#1930,#1495,#1496);
#1301=AXIS2_PLACEMENT_3D('',#1934,#1498,#1499);
#1302=AXIS2_PLACEMENT_3D('',#1936,#1500,#1501);
#1303=AXIS2_PLACEMENT_3D('',#1940,#1503,#1504);
#1304=AXIS2_PLACEMENT_3D('',#1944,#1506,#1507);
#1305=AXIS2_PLACEMENT_3D('',#1947,#1509,#1510);
#1306=AXIS2_PLACEMENT_3D('',#1949,#1511,#1512);
#1307=AXIS2_PLACEMENT_3D('',#1951,#1513,#1514);
#1308=AXIS2_PLACEMENT_3D('',#1953,#1515,#1516);
#1309=AXIS2_PLACEMENT_3D('',#1955,#1517,#1518);
#1310=AXIS2_PLACEMENT_3D('',#1959,#1520,#1521);
#1311=AXIS2_PLACEMENT_3D('',#1963,#1523,#1524);
#1312=AXIS2_PLACEMENT_3D('',#1967,#1526,#1527);
#1313=AXIS2_PLACEMENT_3D('',#1971,#1529,#1530);
#1314=AXIS2_PLACEMENT_3D('',#1972,#1531,#1532);
#1315=AXIS2_PLACEMENT_3D('',#1977,#1534,#1535);
#1316=AXIS2_PLACEMENT_3D('',#1981,#1537,#1538);
#1317=AXIS2_PLACEMENT_3D('',#1985,#1540,#1541);
#1318=AXIS2_PLACEMENT_3D('',#1991,#1544,#1545);
#1319=AXIS2_PLACEMENT_3D('',#1995,#1547,#1548);
#1320=AXIS2_PLACEMENT_3D('',#1999,#1550,#1551);
#1321=AXIS2_PLACEMENT_3D('',#2003,#1553,#1554);
#1322=AXIS2_PLACEMENT_3D('',#2004,#1555,#1556);
#1323=AXIS2_PLACEMENT_3D('',#2006,#1557,#1558);
#1324=AXIS2_PLACEMENT_3D('',#2008,#1559,#1560);
#1325=AXIS2_PLACEMENT_3D('',#2010,#1561,#1562);
#1326=AXIS2_PLACEMENT_3D('',#2017,#1565,#1566);
#1327=AXIS2_PLACEMENT_3D('',#2021,#1568,#1569);
#1328=AXIS2_PLACEMENT_3D('',#2025,#1571,#1572);
#1329=AXIS2_PLACEMENT_3D('',#2029,#1574,#1575);
#1330=AXIS2_PLACEMENT_3D('',#2030,#1576,#1577);
#1331=AXIS2_PLACEMENT_3D('',#2036,#1581,#1582);
#1332=AXIS2_PLACEMENT_3D('',#2042,#1586,#1587);
#1333=AXIS2_PLACEMENT_3D('',#2048,#1591,#1592);
#1334=AXIS2_PLACEMENT_3D('',#2049,#1593,#1594);
#1335=AXIS2_PLACEMENT_3D('',#2051,#1595,#1596);
#1336=AXIS2_PLACEMENT_3D('',#2052,#1597,#1598);
#1337=AXIS2_PLACEMENT_3D('',#2054,#1599,#1600);
#1338=AXIS2_PLACEMENT_3D('',#2055,#1601,#1602);
#1339=AXIS2_PLACEMENT_3D('',#2057,#1603,#1604);
#1340=AXIS2_PLACEMENT_3D('',#2063,#1608,#1609);
#1341=AXIS2_PLACEMENT_3D('',#2064,#1610,#1611);
#1342=AXIS2_PLACEMENT_3D('',#2066,#1612,#1613);
#1343=AXIS2_PLACEMENT_3D('',#2072,#1617,#1618);
#1344=AXIS2_PLACEMENT_3D('',#2073,#1619,#1620);
#1345=AXIS2_PLACEMENT_3D('',#2076,#1622,#1623);
#1346=AXIS2_PLACEMENT_3D('',#2080,#1626,#1627);
#1347=AXIS2_PLACEMENT_3D('',#2081,#1628,#1629);
#1348=AXIS2_PLACEMENT_3D('',#2084,#1631,#1632);
#1349=AXIS2_PLACEMENT_3D('',#2088,#1635,#1636);
#1350=AXIS2_PLACEMENT_3D('',#2089,#1637,#1638);
#1351=AXIS2_PLACEMENT_3D('',#2092,#1640,#1641);
#1352=AXIS2_PLACEMENT_3D('',#2096,#1644,#1645);
#1353=AXIS2_PLACEMENT_3D('',#2097,#1646,#1647);
#1354=AXIS2_PLACEMENT_3D('',#2098,#1648,#1649);
#1355=AXIS2_PLACEMENT_3D('',#2104,#1653,#1654);
#1356=AXIS2_PLACEMENT_3D('',#2105,#1655,#1656);
#1357=AXIS2_PLACEMENT_3D('',#2108,#1658,#1659);
#1358=AXIS2_PLACEMENT_3D('',#2112,#1662,#1663);
#1359=AXIS2_PLACEMENT_3D('',#2113,#1664,#1665);
#1360=AXIS2_PLACEMENT_3D('',#2116,#1667,#1668);
#1361=AXIS2_PLACEMENT_3D('',#2120,#1671,#1672);
#1362=AXIS2_PLACEMENT_3D('',#2121,#1673,#1674);
#1363=AXIS2_PLACEMENT_3D('',#2124,#1676,#1677);
#1364=AXIS2_PLACEMENT_3D('',#2128,#1680,#1681);
#1365=AXIS2_PLACEMENT_3D('',#2129,#1682,#1683);
#1366=AXIS2_PLACEMENT_3D('',#2130,#1684,#1685);
#1367=AXIS2_PLACEMENT_3D('',#2136,#1689,#1690);
#1368=AXIS2_PLACEMENT_3D('',#2140,#1693,#1694);
#1369=AXIS2_PLACEMENT_3D('',#2141,#1695,#1696);
#1370=AXIS2_PLACEMENT_3D('',#2144,#1698,#1699);
#1371=AXIS2_PLACEMENT_3D('',#2148,#1702,#1703);
#1372=AXIS2_PLACEMENT_3D('',#2149,#1704,#1705);
#1373=AXIS2_PLACEMENT_3D('',#2152,#1707,#1708);
#1374=AXIS2_PLACEMENT_3D('',#2156,#1711,#1712);
#1375=AXIS2_PLACEMENT_3D('',#2157,#1713,#1714);
#1376=AXIS2_PLACEMENT_3D('',#2160,#1716,#1717);
#1377=AXIS2_PLACEMENT_3D('',#2164,#1720,#1721);
#1378=AXIS2_PLACEMENT_3D('',#2165,#1722,#1723);
#1379=AXIS2_PLACEMENT_3D('',#2166,#1724,#1725);
#1380=AXIS2_PLACEMENT_3D('',#2167,#1726,#1727);
#1381=AXIS2_PLACEMENT_3D('',#2168,#1728,#1729);
#1382=AXIS2_PLACEMENT_3D('',#2169,#1730,#1731);
#1383=AXIS2_PLACEMENT_3D('',#2170,#1732,#1733);
#1384=AXIS2_PLACEMENT_3D('',#2171,#1734,#1735);
#1385=AXIS2_PLACEMENT_3D('',#2172,#1736,#1737);
#1386=AXIS2_PLACEMENT_3D('',#2173,#1738,#1739);
#1387=AXIS2_PLACEMENT_3D('',#2174,#1740,#1741);
#1388=AXIS2_PLACEMENT_3D('',#2175,#1742,#1743);
#1389=AXIS2_PLACEMENT_3D('',#2176,#1744,#1745);
#1390=AXIS2_PLACEMENT_3D('',#2177,#1746,#1747);
#1391=AXIS2_PLACEMENT_3D('',#2178,#1748,#1749);
#1392=AXIS2_PLACEMENT_3D('',#2179,#1750,#1751);
#1393=AXIS2_PLACEMENT_3D('',#2180,#1752,#1753);
#1394=AXIS2_PLACEMENT_3D('',#2181,#1754,#1755);
#1395=AXIS2_PLACEMENT_3D('',#2182,#1756,#1757);
#1396=AXIS2_PLACEMENT_3D('',#2183,#1758,#1759);
#1397=AXIS2_PLACEMENT_3D('',#2184,#1760,#1761);
#1398=AXIS2_PLACEMENT_3D('',#2185,#1762,#1763);
#1399=AXIS2_PLACEMENT_3D('',#2186,#1764,#1765);
#1400=AXIS2_PLACEMENT_3D('',#2187,#1766,#1767);
#1401=AXIS2_PLACEMENT_3D('',#2188,#1768,#1769);
#1402=AXIS2_PLACEMENT_3D('',#2189,#1770,#1771);
#1403=AXIS2_PLACEMENT_3D('',#2190,#1772,#1773);
#1404=AXIS2_PLACEMENT_3D('',#2191,#1774,#1775);
#1405=AXIS2_PLACEMENT_3D('',#2192,#1776,#1777);
#1406=AXIS2_PLACEMENT_3D('',#2193,#1778,#1779);
#1407=AXIS2_PLACEMENT_3D('',#2194,#1780,#1781);
#1408=AXIS2_PLACEMENT_3D('',#2195,#1782,#1783);
#1409=AXIS2_PLACEMENT_3D('',#2196,#1784,#1785);
#1410=AXIS2_PLACEMENT_3D('',#2197,#1786,#1787);
#1411=AXIS2_PLACEMENT_3D('',#2198,#1788,#1789);
#1412=AXIS2_PLACEMENT_3D('',#2199,#1790,#1791);
#1413=AXIS2_PLACEMENT_3D('',#2200,#1792,#1793);
#1414=AXIS2_PLACEMENT_3D('',#2201,#1794,#1795);
#1415=AXIS2_PLACEMENT_3D('',#2202,#1796,#1797);
#1416=AXIS2_PLACEMENT_3D('',#2204,#1798,#1799);
#1417=AXIS2_PLACEMENT_3D('',#2207,#1801,#1802);
#1418=AXIS2_PLACEMENT_3D('',#2212,#1803,#1804);
#1419=AXIS2_PLACEMENT_3D('',#2213,#1805,#1806);
#1420=AXIS2_PLACEMENT_3D('',#2214,#1807,#1808);
#1421=AXIS2_PLACEMENT_3D('',#2215,#1809,#1810);
#1422=AXIS2_PLACEMENT_3D('',#2225,#1811,#1812);
#1423=AXIS2_PLACEMENT_3D('',#2226,#1813,#1814);
#1424=AXIS2_PLACEMENT_3D('',#2227,#1815,#1816);
#1425=AXIS2_PLACEMENT_3D('',#2228,#1817,#1818);
#1426=AXIS2_PLACEMENT_3D('',#2229,#1819,#1820);
#1427=AXIS2_PLACEMENT_3D('',#2230,#1821,#1822);
#1428=AXIS2_PLACEMENT_3D('',#2231,#1823,#1824);
#1429=AXIS2_PLACEMENT_3D('',#2232,#1825,#1826);
#1430=AXIS2_PLACEMENT_3D('',#2233,#1827,#1828);
#1431=AXIS2_PLACEMENT_3D('',#2234,#1829,#1830);
#1432=AXIS2_PLACEMENT_3D('',#2235,#1831,#1832);
#1433=AXIS2_PLACEMENT_3D('',#2236,#1833,#1834);
#1434=AXIS2_PLACEMENT_3D('',#2237,#1835,#1836);
#1435=AXIS2_PLACEMENT_3D('',#2238,#1837,#1838);
#1436=AXIS2_PLACEMENT_3D('',#2239,#1839,#1840);
#1437=AXIS2_PLACEMENT_3D('',#2240,#1841,#1842);
#1438=AXIS2_PLACEMENT_3D('',#2241,#1843,#1844);
#1439=AXIS2_PLACEMENT_3D('',#2242,#1845,#1846);
#1440=AXIS2_PLACEMENT_3D('',#2243,#1847,#1848);
#1441=AXIS2_PLACEMENT_3D('',#2244,#1849,#1850);
#1442=AXIS2_PLACEMENT_3D('',#2245,#1851,#1852);
#1443=AXIS2_PLACEMENT_3D('',#2246,#1853,#1854);
#1444=AXIS2_PLACEMENT_3D('',#2247,#1855,#1856);
#1445=AXIS2_PLACEMENT_3D('',#2248,#1857,#1858);
#1446=AXIS2_PLACEMENT_3D('',#2249,#1859,#1860);
#1447=AXIS2_PLACEMENT_3D('',#2250,#1861,#1862);
#1448=AXIS2_PLACEMENT_3D('',#2251,#1863,#1864);
#1449=AXIS2_PLACEMENT_3D('',#2252,#1865,#1866);
#1450=AXIS2_PLACEMENT_3D('',#2253,#1867,#1868);
#1451=AXIS2_PLACEMENT_3D('',#2254,#1869,#1870);
#1452=AXIS2_PLACEMENT_3D('',#2255,#1871,#1872);
#1453=AXIS2_PLACEMENT_3D('',#2256,#1873,#1874);
#1454=AXIS2_PLACEMENT_3D('',#2257,#1875,#1876);
#1455=AXIS2_PLACEMENT_3D('',#2258,#1877,#1878);
#1456=AXIS2_PLACEMENT_3D('',#2259,#1879,#1880);
#1457=DIRECTION('',(0.,0.,1.));
#1458=DIRECTION('',(1.,0.,0.));
#1459=DIRECTION('',(0.,0.,1.));
#1460=DIRECTION('',(1.,0.,0.));
#1461=DIRECTION('',(0.,0.,1.));
#1462=DIRECTION('',(1.,0.,0.));
#1463=DIRECTION('',(1.,0.,0.));
#1464=DIRECTION('',(0.,0.,1.));
#1465=DIRECTION('',(1.,0.,0.));
#1466=DIRECTION('',(0.,1.,0.));
#1467=DIRECTION('',(0.,0.,1.));
#1468=DIRECTION('',(1.,0.,0.));
#1469=DIRECTION('',(1.,0.,0.));
#1470=DIRECTION('',(0.,0.,1.));
#1471=DIRECTION('',(1.,0.,0.));
#1472=DIRECTION('',(0.,1.,0.));
#1473=DIRECTION('',(0.,0.,1.));
#1474=DIRECTION('',(1.,0.,0.));
#1475=DIRECTION('',(-1.32169407693471E-15,1.,0.));
#1476=DIRECTION('',(0.,0.,1.));
#1477=DIRECTION('',(1.,0.,0.));
#1478=DIRECTION('',(-1.,-1.32169407693471E-15,0.));
#1479=DIRECTION('',(0.,0.,1.));
#1480=DIRECTION('',(1.,0.,0.));
#1481=DIRECTION('',(0.,1.,0.));
#1482=DIRECTION('',(0.,0.,1.));
#1483=DIRECTION('',(1.,0.,0.));
#1484=DIRECTION('',(-1.,0.,0.));
#1485=DIRECTION('',(0.,0.,1.));
#1486=DIRECTION('',(1.,0.,0.));
#1487=DIRECTION('',(-1.,0.,0.));
#1488=DIRECTION('',(0.,0.,1.));
#1489=DIRECTION('',(1.,0.,0.));
#1490=DIRECTION('',(0.,-1.,0.));
#1491=DIRECTION('',(0.,0.,1.));
#1492=DIRECTION('',(1.,0.,0.));
#1493=DIRECTION('',(-0.999976248373984,-0.00689221937349505,0.));
#1494=DIRECTION('',(1.,0.,0.));
#1495=DIRECTION('',(0.,0.,1.));
#1496=DIRECTION('',(1.,0.,0.));
#1497=DIRECTION('',(0.,1.,0.));
#1498=DIRECTION('',(0.,0.,1.));
#1499=DIRECTION('',(1.,0.,0.));
#1500=DIRECTION('',(0.,0.,1.));
#1501=DIRECTION('',(1.,0.,0.));
#1502=DIRECTION('',(1.32450707768064E-15,1.,0.));
#1503=DIRECTION('',(0.,0.,1.));
#1504=DIRECTION('',(1.,0.,0.));
#1505=DIRECTION('',(-1.,3.72862923640119E-16,0.));
#1506=DIRECTION('',(0.,0.,1.));
#1507=DIRECTION('',(1.,0.,0.));
#1508=DIRECTION('',(-1.32450707768064E-15,1.,0.));
#1509=DIRECTION('',(0.,0.,1.));
#1510=DIRECTION('',(1.,0.,0.));
#1511=DIRECTION('',(0.,0.,1.));
#1512=DIRECTION('',(1.,0.,0.));
#1513=DIRECTION('',(0.,0.,1.));
#1514=DIRECTION('',(1.,0.,0.));
#1515=DIRECTION('',(0.,0.,1.));
#1516=DIRECTION('',(1.,0.,0.));
#1517=DIRECTION('',(0.,0.,1.));
#1518=DIRECTION('',(1.,0.,0.));
#1519=DIRECTION('',(-1.32450707768064E-15,1.,0.));
#1520=DIRECTION('',(0.,0.,1.));
#1521=DIRECTION('',(1.,0.,0.));
#1522=DIRECTION('',(-1.,3.72862923640119E-16,0.));
#1523=DIRECTION('',(0.,0.,1.));
#1524=DIRECTION('',(1.,0.,0.));
#1525=DIRECTION('',(1.32450707768064E-15,1.,0.));
#1526=DIRECTION('',(0.,0.,1.));
#1527=DIRECTION('',(1.,0.,0.));
#1528=DIRECTION('',(-1.,-3.72862923640119E-16,0.));
#1529=DIRECTION('',(0.,0.,1.));
#1530=DIRECTION('',(1.,0.,0.));
#1531=DIRECTION('',(0.,0.,1.));
#1532=DIRECTION('',(1.,0.,0.));
#1533=DIRECTION('',(-1.32169407693471E-15,1.,0.));
#1534=DIRECTION('',(0.,0.,1.));
#1535=DIRECTION('',(1.,0.,0.));
#1536=DIRECTION('',(-1.,0.,0.));
#1537=DIRECTION('',(0.,0.,1.));
#1538=DIRECTION('',(1.,0.,0.));
#1539=DIRECTION('',(0.,1.,0.));
#1540=DIRECTION('',(0.,0.,1.));
#1541=DIRECTION('',(1.,0.,0.));
#1542=DIRECTION('',(-1.,-1.32169407693471E-15,0.));
#1543=DIRECTION('',(1.,0.,0.));
#1544=DIRECTION('',(0.,0.,1.));
#1545=DIRECTION('',(1.,0.,0.));
#1546=DIRECTION('',(0.,1.,0.));
#1547=DIRECTION('',(0.,0.,1.));
#1548=DIRECTION('',(1.,0.,0.));
#1549=DIRECTION('',(1.,0.,0.));
#1550=DIRECTION('',(0.,0.,1.));
#1551=DIRECTION('',(1.,0.,0.));
#1552=DIRECTION('',(0.,1.,0.));
#1553=DIRECTION('',(0.,0.,1.));
#1554=DIRECTION('',(1.,0.,0.));
#1555=DIRECTION('',(0.,0.,1.));
#1556=DIRECTION('',(1.,0.,0.));
#1557=DIRECTION('',(0.,0.,1.));
#1558=DIRECTION('',(1.,0.,0.));
#1559=DIRECTION('',(0.,0.,-1.));
#1560=DIRECTION('',(1.,0.,0.));
#1561=DIRECTION('',(0.,0.,-1.));
#1562=DIRECTION('',(1.,0.,0.));
#1563=DIRECTION('',(1.,0.,0.));
#1564=DIRECTION('',(-0.999976248373984,-0.00689221937349505,0.));
#1565=DIRECTION('',(0.,0.,1.));
#1566=DIRECTION('',(1.,0.,0.));
#1567=DIRECTION('',(0.,-1.,0.));
#1568=DIRECTION('',(0.,0.,1.));
#1569=DIRECTION('',(1.,0.,0.));
#1570=DIRECTION('',(-1.,0.,0.));
#1571=DIRECTION('',(0.,0.,1.));
#1572=DIRECTION('',(1.,0.,0.));
#1573=DIRECTION('',(0.,1.,0.));
#1574=DIRECTION('',(0.,0.,1.));
#1575=DIRECTION('',(1.,0.,0.));
#1576=DIRECTION('',(0.,1.,0.));
#1577=DIRECTION('',(0.,0.,1.));
#1578=DIRECTION('',(0.,0.,-1.));
#1579=DIRECTION('',(1.,0.,0.));
#1580=DIRECTION('',(0.,0.,-1.));
#1581=DIRECTION('',(-1.,0.,0.));
#1582=DIRECTION('',(0.,0.,1.));
#1583=DIRECTION('',(0.,0.,-1.));
#1584=DIRECTION('',(0.,1.,0.));
#1585=DIRECTION('',(0.,0.,-1.));
#1586=DIRECTION('',(0.,1.,0.));
#1587=DIRECTION('',(0.,0.,1.));
#1588=DIRECTION('',(0.,0.,-1.));
#1589=DIRECTION('',(1.,0.,0.));
#1590=DIRECTION('',(0.,0.,-1.));
#1591=DIRECTION('',(0.,0.,-1.));
#1592=DIRECTION('',(-1.,0.,0.));
#1593=DIRECTION('',(0.,0.,1.));
#1594=DIRECTION('',(1.,0.,0.));
#1595=DIRECTION('',(0.,0.,-1.));
#1596=DIRECTION('',(-1.,0.,0.));
#1597=DIRECTION('',(0.,0.,1.));
#1598=DIRECTION('',(1.,0.,0.));
#1599=DIRECTION('',(0.,0.,-1.));
#1600=DIRECTION('',(-1.,0.,0.));
#1601=DIRECTION('',(0.,0.,1.));
#1602=DIRECTION('',(1.,0.,0.));
#1603=DIRECTION('',(-1.,0.,0.));
#1604=DIRECTION('',(0.,0.,1.));
#1605=DIRECTION('',(0.,0.,-1.));
#1606=DIRECTION('',(0.,1.,0.));
#1607=DIRECTION('',(0.,0.,-1.));
#1608=DIRECTION('',(0.,0.,-1.));
#1609=DIRECTION('',(-1.,0.,0.));
#1610=DIRECTION('',(0.,0.,1.));
#1611=DIRECTION('',(1.,0.,0.));
#1612=DIRECTION('',(1.,1.32169407693471E-15,0.));
#1613=DIRECTION('',(-1.32169407693471E-15,1.,0.));
#1614=DIRECTION('',(0.,0.,1.));
#1615=DIRECTION('',(-1.32169407693471E-15,1.,0.));
#1616=DIRECTION('',(0.,0.,1.));
#1617=DIRECTION('',(0.,0.,1.));
#1618=DIRECTION('',(1.,0.,0.));
#1619=DIRECTION('',(0.,0.,1.));
#1620=DIRECTION('',(1.,0.,0.));
#1621=DIRECTION('',(0.,0.,1.));
#1622=DIRECTION('',(0.,1.,0.));
#1623=DIRECTION('',(0.,0.,1.));
#1624=DIRECTION('',(-1.,0.,0.));
#1625=DIRECTION('',(0.,0.,1.));
#1626=DIRECTION('',(0.,0.,1.));
#1627=DIRECTION('',(1.,0.,0.));
#1628=DIRECTION('',(0.,0.,1.));
#1629=DIRECTION('',(1.,0.,0.));
#1630=DIRECTION('',(0.,0.,1.));
#1631=DIRECTION('',(1.,0.,0.));
#1632=DIRECTION('',(0.,0.,-1.));
#1633=DIRECTION('',(0.,1.,0.));
#1634=DIRECTION('',(0.,0.,1.));
#1635=DIRECTION('',(0.,0.,1.));
#1636=DIRECTION('',(1.,0.,0.));
#1637=DIRECTION('',(0.,0.,1.));
#1638=DIRECTION('',(1.,0.,0.));
#1639=DIRECTION('',(0.,0.,1.));
#1640=DIRECTION('',(-1.32169407693471E-15,1.,0.));
#1641=DIRECTION('',(-1.,-1.32169407693471E-15,0.));
#1642=DIRECTION('',(-1.,-1.32169407693471E-15,0.));
#1643=DIRECTION('',(0.,0.,1.));
#1644=DIRECTION('',(0.,0.,1.));
#1645=DIRECTION('',(1.,0.,0.));
#1646=DIRECTION('',(0.,0.,1.));
#1647=DIRECTION('',(1.,0.,0.));
#1648=DIRECTION('',(1.,1.32450707768064E-15,0.));
#1649=DIRECTION('',(-1.32450707768064E-15,1.,0.));
#1650=DIRECTION('',(0.,0.,1.));
#1651=DIRECTION('',(-1.32450707768064E-15,1.,0.));
#1652=DIRECTION('',(0.,0.,1.));
#1653=DIRECTION('',(0.,0.,1.));
#1654=DIRECTION('',(1.,0.,0.));
#1655=DIRECTION('',(0.,0.,1.));
#1656=DIRECTION('',(1.,0.,0.));
#1657=DIRECTION('',(0.,0.,1.));
#1658=DIRECTION('',(3.72862923640119E-16,1.,0.));
#1659=DIRECTION('',(-1.,3.72862923640119E-16,0.));
#1660=DIRECTION('',(-1.,3.72862923640119E-16,0.));
#1661=DIRECTION('',(0.,0.,1.));
#1662=DIRECTION('',(0.,0.,1.));
#1663=DIRECTION('',(1.,0.,0.));
#1664=DIRECTION('',(0.,0.,1.));
#1665=DIRECTION('',(1.,0.,0.));
#1666=DIRECTION('',(0.,0.,1.));
#1667=DIRECTION('',(1.,-1.32450707768064E-15,0.));
#1668=DIRECTION('',(1.32450707768064E-15,1.,0.));
#1669=DIRECTION('',(1.32450707768064E-15,1.,0.));
#1670=DIRECTION('',(0.,0.,1.));
#1671=DIRECTION('',(0.,0.,1.));
#1672=DIRECTION('',(1.,0.,0.));
#1673=DIRECTION('',(0.,0.,1.));
#1674=DIRECTION('',(1.,0.,0.));
#1675=DIRECTION('',(0.,0.,1.));
#1676=DIRECTION('',(-3.72862923640119E-16,1.,0.));
#1677=DIRECTION('',(-1.,-3.72862923640119E-16,0.));
#1678=DIRECTION('',(-1.,-3.72862923640119E-16,0.));
#1679=DIRECTION('',(0.,0.,1.));
#1680=DIRECTION('',(0.,0.,1.));
#1681=DIRECTION('',(1.,0.,0.));
#1682=DIRECTION('',(0.,0.,1.));
#1683=DIRECTION('',(1.,0.,0.));
#1684=DIRECTION('',(0.,-1.,0.));
#1685=DIRECTION('',(0.,0.,-1.));
#1686=DIRECTION('',(0.,0.,1.));
#1687=DIRECTION('',(1.,0.,0.));
#1688=DIRECTION('',(0.,0.,1.));
#1689=DIRECTION('',(-0.00689221937349505,0.999976248373984,0.));
#1690=DIRECTION('',(-0.999976248373984,-0.00689221937349505,0.));
#1691=DIRECTION('',(-0.999976248373984,-0.00689221937349505,0.));
#1692=DIRECTION('',(0.,0.,1.));
#1693=DIRECTION('',(0.,0.,1.));
#1694=DIRECTION('',(1.,0.,0.));
#1695=DIRECTION('',(0.,0.,1.));
#1696=DIRECTION('',(1.,0.,0.));
#1697=DIRECTION('',(0.,0.,1.));
#1698=DIRECTION('',(-1.,0.,0.));
#1699=DIRECTION('',(0.,0.,1.));
#1700=DIRECTION('',(0.,-1.,0.));
#1701=DIRECTION('',(0.,0.,1.));
#1702=DIRECTION('',(0.,0.,1.));
#1703=DIRECTION('',(1.,0.,0.));
#1704=DIRECTION('',(0.,0.,1.));
#1705=DIRECTION('',(1.,0.,0.));
#1706=DIRECTION('',(0.,0.,1.));
#1707=DIRECTION('',(0.,1.,0.));
#1708=DIRECTION('',(0.,0.,1.));
#1709=DIRECTION('',(-1.,0.,0.));
#1710=DIRECTION('',(0.,0.,1.));
#1711=DIRECTION('',(0.,0.,1.));
#1712=DIRECTION('',(1.,0.,0.));
#1713=DIRECTION('',(0.,0.,1.));
#1714=DIRECTION('',(1.,0.,0.));
#1715=DIRECTION('',(0.,0.,1.));
#1716=DIRECTION('',(1.,0.,0.));
#1717=DIRECTION('',(0.,0.,-1.));
#1718=DIRECTION('',(0.,1.,0.));
#1719=DIRECTION('',(0.,0.,1.));
#1720=DIRECTION('',(0.,0.,1.));
#1721=DIRECTION('',(1.,0.,0.));
#1722=DIRECTION('',(0.,0.,1.));
#1723=DIRECTION('',(1.,0.,0.));
#1724=DIRECTION('',(0.,0.,1.));
#1725=DIRECTION('',(1.,0.,0.));
#1726=DIRECTION('',(0.,0.,1.));
#1727=DIRECTION('',(1.,0.,0.));
#1728=DIRECTION('',(0.,0.,-1.));
#1729=DIRECTION('',(-1.,0.,0.));
#1730=DIRECTION('',(0.,0.,1.));
#1731=DIRECTION('',(1.,0.,0.));
#1732=DIRECTION('',(0.,0.,1.));
#1733=DIRECTION('',(1.,0.,0.));
#1734=DIRECTION('',(0.,0.,1.));
#1735=DIRECTION('',(1.,0.,0.));
#1736=DIRECTION('',(0.,0.,-1.));
#1737=DIRECTION('',(-1.,0.,0.));
#1738=DIRECTION('',(0.,0.,1.));
#1739=DIRECTION('',(1.,0.,0.));
#1740=DIRECTION('',(-1.,0.,0.));
#1741=DIRECTION('',(0.,0.,1.));
#1742=DIRECTION('',(1.,0.,0.));
#1743=DIRECTION('',(0.,0.,-1.));
#1744=DIRECTION('',(-1.,0.,0.));
#1745=DIRECTION('',(0.,0.,1.));
#1746=DIRECTION('',(0.,0.,1.));
#1747=DIRECTION('',(1.,0.,0.));
#1748=DIRECTION('',(0.,1.,0.));
#1749=DIRECTION('',(0.,0.,1.));
#1750=DIRECTION('',(0.,0.,1.));
#1751=DIRECTION('',(1.,0.,0.));
#1752=DIRECTION('',(0.,1.,0.));
#1753=DIRECTION('',(0.,0.,1.));
#1754=DIRECTION('',(0.,1.,0.));
#1755=DIRECTION('',(0.,0.,1.));
#1756=DIRECTION('',(0.,1.,0.));
#1757=DIRECTION('',(0.,0.,1.));
#1758=DIRECTION('',(0.,-1.,0.));
#1759=DIRECTION('',(0.,0.,-1.));
#1760=DIRECTION('',(0.,1.,0.));
#1761=DIRECTION('',(0.,0.,1.));
#1762=DIRECTION('',(0.,0.,1.));
#1763=DIRECTION('',(1.,0.,0.));
#1764=DIRECTION('',(1.,0.,0.));
#1765=DIRECTION('',(0.,0.,-1.));
#1766=DIRECTION('',(0.,0.,1.));
#1767=DIRECTION('',(1.,0.,0.));
#1768=DIRECTION('',(-1.,0.,0.));
#1769=DIRECTION('',(0.,0.,1.));
#1770=DIRECTION('',(1.,0.,0.));
#1771=DIRECTION('',(0.,0.,-1.));
#1772=DIRECTION('',(-1.,3.72862923640119E-16,0.));
#1773=DIRECTION('',(-3.72862923640119E-16,-1.,0.));
#1774=DIRECTION('',(1.,0.,0.));
#1775=DIRECTION('',(0.,0.,-1.));
#1776=DIRECTION('',(-1.,0.,0.));
#1777=DIRECTION('',(0.,0.,1.));
#1778=DIRECTION('',(0.,0.,1.));
#1779=DIRECTION('',(1.,0.,0.));
#1780=DIRECTION('',(-1.73472347597681E-15,1.,0.));
#1781=DIRECTION('',(-1.,-1.73472347597681E-15,0.));
#1782=DIRECTION('',(0.,0.,1.));
#1783=DIRECTION('',(1.,0.,0.));
#1784=DIRECTION('',(0.,1.,1.73472347597681E-15));
#1785=DIRECTION('',(0.,-1.73472347597681E-15,1.));
#1786=DIRECTION('',(-1.32450707768064E-15,1.,0.));
#1787=DIRECTION('',(-1.,-1.32450707768064E-15,0.));
#1788=DIRECTION('',(0.,1.,0.));
#1789=DIRECTION('',(0.,0.,1.));
#1790=DIRECTION('',(-1.32450707768064E-15,-1.,0.));
#1791=DIRECTION('',(1.,-1.32450707768064E-15,0.));
#1792=DIRECTION('',(0.,1.,0.));
#1793=DIRECTION('',(0.,0.,1.));
#1794=DIRECTION('',(1.,3.72862923640119E-16,0.));
#1795=DIRECTION('',(-3.72862923640119E-16,1.,0.));
#1796=DIRECTION('',(-1.,0.,-4.16333634234435E-14));
#1797=DIRECTION('',(-4.16333634234435E-14,0.,1.));
#1798=DIRECTION('',(1.,0.,0.));
#1799=DIRECTION('',(0.,0.,-1.));
#1800=DIRECTION('',(1.,3.72862923640119E-16,0.));
#1801=DIRECTION('',(0.,0.,1.));
#1802=DIRECTION('',(1.,0.,0.));
#1803=DIRECTION('',(0.,0.,1.));
#1804=DIRECTION('',(1.,0.,0.));
#1805=DIRECTION('',(-2.77555756156289E-14,1.,0.));
#1806=DIRECTION('',(-1.,-2.77555756156289E-14,0.));
#1807=DIRECTION('',(1.,-2.94902990916057E-14,-2.94902990916058E-14));
#1808=DIRECTION('',(-2.94902990916058E-14,0.,-1.));
#1809=DIRECTION('',(0.,0.,1.));
#1810=DIRECTION('',(1.,0.,0.));
#1811=DIRECTION('',(-1.,0.,0.));
#1812=DIRECTION('',(0.,0.,1.));
#1813=DIRECTION('',(1.,0.,0.));
#1814=DIRECTION('',(0.,0.,-1.));
#1815=DIRECTION('',(0.,1.,0.));
#1816=DIRECTION('',(0.,0.,1.));
#1817=DIRECTION('',(0.,1.,0.));
#1818=DIRECTION('',(0.,0.,1.));
#1819=DIRECTION('',(0.,0.,1.));
#1820=DIRECTION('',(1.,0.,0.));
#1821=DIRECTION('',(0.,1.,0.));
#1822=DIRECTION('',(0.,0.,1.));
#1823=DIRECTION('',(0.,0.,1.));
#1824=DIRECTION('',(1.,0.,0.));
#1825=DIRECTION('',(0.999976248373984,0.00689221937351552,0.));
#1826=DIRECTION('',(-0.00689221937351552,0.999976248373984,0.));
#1827=DIRECTION('',(0.,-1.,0.));
#1828=DIRECTION('',(0.,0.,-1.));
#1829=DIRECTION('',(0.,1.,2.7755575615629E-14));
#1830=DIRECTION('',(0.,-2.7755575615629E-14,1.));
#1831=DIRECTION('',(0.999976248373984,0.00689221937349505,0.));
#1832=DIRECTION('',(-0.00689221937349505,0.999976248373984,0.));
#1833=DIRECTION('',(0.999994062075866,0.0034461301496069,0.));
#1834=DIRECTION('',(0.00344613014959503,-0.999994062075866,0.));
#1835=DIRECTION('',(0.,0.,1.));
#1836=DIRECTION('',(1.,0.,0.));
#1837=DIRECTION('',(-1.,-2.77555756156289E-14,2.7755575615629E-14));
#1838=DIRECTION('',(2.7755575615629E-14,0.,1.));
#1839=DIRECTION('',(1.,0.,0.));
#1840=DIRECTION('',(0.,0.,-1.));
#1841=DIRECTION('',(0.,1.,0.));
#1842=DIRECTION('',(0.,0.,1.));
#1843=DIRECTION('',(0.,1.,0.));
#1844=DIRECTION('',(0.,0.,1.));
#1845=DIRECTION('',(0.,-1.,-3.46944695195361E-15));
#1846=DIRECTION('',(0.,3.46944695195361E-15,-1.));
#1847=DIRECTION('',(0.,0.,1.));
#1848=DIRECTION('',(1.,0.,0.));
#1849=DIRECTION('',(1.,-2.94902990916057E-14,-3.12250225675826E-14));
#1850=DIRECTION('',(-3.12250225675826E-14,0.,-1.));
#1851=DIRECTION('',(0.,0.,1.));
#1852=DIRECTION('',(1.,0.,0.));
#1853=DIRECTION('',(1.,2.94902990916057E-14,0.));
#1854=DIRECTION('',(-2.94902990916057E-14,1.,0.));
#1855=DIRECTION('',(-1.,-1.32169407693471E-15,0.));
#1856=DIRECTION('',(1.32169407693471E-15,-1.,0.));
#1857=DIRECTION('',(1.,0.,-2.77555756156289E-14));
#1858=DIRECTION('',(-2.77555756156289E-14,0.,-1.));
#1859=DIRECTION('',(1.,0.,0.));
#1860=DIRECTION('',(0.,0.,-1.));
#1861=DIRECTION('',(1.,0.,0.));
#1862=DIRECTION('',(0.,0.,-1.));
#1863=DIRECTION('',(0.,0.,1.));
#1864=DIRECTION('',(1.,0.,0.));
#1865=DIRECTION('',(0.,1.,-1.73472347597681E-15));
#1866=DIRECTION('',(0.,1.73472347597681E-15,1.));
#1867=DIRECTION('',(0.,0.,1.));
#1868=DIRECTION('',(1.,0.,0.));
#1869=DIRECTION('',(0.,-1.,0.));
#1870=DIRECTION('',(0.,0.,-1.));
#1871=DIRECTION('',(1.32169407693471E-15,-1.,0.));
#1872=DIRECTION('',(1.,1.32169407693471E-15,0.));
#1873=DIRECTION('',(0.,0.,1.));
#1874=DIRECTION('',(1.,0.,0.));
#1875=DIRECTION('',(0.,0.,1.));
#1876=DIRECTION('',(1.,0.,0.));
#1877=DIRECTION('',(0.,0.,1.));
#1878=DIRECTION('',(1.,0.,0.));
#1879=DIRECTION('',(0.,0.,1.));
#1880=DIRECTION('',(1.,0.,0.));
#1881=CARTESIAN_POINT('',(0.,0.,0.));
#1882=CARTESIAN_POINT('',(0.0342,0.0432,0.02));
#1883=CARTESIAN_POINT('',(0.0759,0.0939,0.02));
#1884=CARTESIAN_POINT('',(0.0774,0.0939,0.02));
#1885=CARTESIAN_POINT('',(0.0759,0.0954,0.02));
#1886=CARTESIAN_POINT('',(0.0342,0.0954,0.02));
#1887=CARTESIAN_POINT('',(-0.0075,0.0954,0.02));
#1888=CARTESIAN_POINT('',(-0.0075,0.0939,0.02));
#1889=CARTESIAN_POINT('',(-0.009,0.0939,0.02));
#1890=CARTESIAN_POINT('',(-0.009,0.0432,0.02));
#1891=CARTESIAN_POINT('',(-0.009,-0.0075,0.02));
#1892=CARTESIAN_POINT('',(-0.0075,-0.0075,0.02));
#1893=CARTESIAN_POINT('',(-0.0075,-0.009,0.02));
#1894=CARTESIAN_POINT('',(0.0759,-0.009,0.02));
#1895=CARTESIAN_POINT('',(0.0759,-0.009,0.02));
#1896=CARTESIAN_POINT('',(0.0759,-0.0075,0.02));
#1897=CARTESIAN_POINT('',(0.0774,-0.0075,0.02));
#1898=CARTESIAN_POINT('',(0.0774,0.0939,0.02));
#1899=CARTESIAN_POINT('',(0.01966875,0.020776795694232,0.02));
#1900=CARTESIAN_POINT('',(0.01966875,0.022776795694232,0.02));
#1901=CARTESIAN_POINT('',(0.02166875,0.020776795694232,0.02));
#1902=CARTESIAN_POINT('',(0.02166875,0.010276795694232,0.02));
#1903=CARTESIAN_POINT('',(0.02166875,0.010276795694232,0.02));
#1904=CARTESIAN_POINT('',(0.01966875,0.010276795694232,0.02));
#1905=CARTESIAN_POINT('',(0.01966875,0.00827679569423198,0.02));
#1906=CARTESIAN_POINT('',(0.0342,0.008276795694232,0.02));
#1907=CARTESIAN_POINT('',(0.00916875,0.00827679569423196,0.02));
#1908=CARTESIAN_POINT('',(0.00916875,0.010276795694232,0.02));
#1909=CARTESIAN_POINT('',(0.00716875,0.010276795694232,0.02));
#1910=CARTESIAN_POINT('',(0.00716875,0.0432,0.02));
#1911=CARTESIAN_POINT('',(0.00716875,0.020776795694232,0.02));
#1912=CARTESIAN_POINT('',(0.00916875,0.020776795694232,0.02));
#1913=CARTESIAN_POINT('',(0.00916875,0.022776795694232,0.02));
#1914=CARTESIAN_POINT('',(0.01966875,0.022776795694232,0.02));
#1915=CARTESIAN_POINT('',(0.0266754,0.0219577,0.02));
#1916=CARTESIAN_POINT('',(0.0246754,0.0219577,0.02));
#1917=CARTESIAN_POINT('',(0.0250302408253303,0.023095,0.02));
#1918=CARTESIAN_POINT('',(0.0342,0.023095,0.02));
#1919=CARTESIAN_POINT('',(0.00648499999741492,0.023095,0.02));
#1920=CARTESIAN_POINT('',(0.00648499999741495,0.025095,0.02));
#1921=CARTESIAN_POINT('',(0.00448499999741492,0.025095,0.02));
#1922=CARTESIAN_POINT('',(0.00448499999741492,0.0819057933352039,0.02));
#1923=CARTESIAN_POINT('',(0.00448499999741492,0.0819057933352039,0.02));
#1924=CARTESIAN_POINT('',(0.00648499999741494,0.0819057933352039,0.02));
#1925=CARTESIAN_POINT('',(0.0064712155586679,0.0839057458319519,0.02));
#1926=CARTESIAN_POINT('',(0.0629377303514519,0.0842949346830285,0.02));
#1927=CARTESIAN_POINT('',(0.0629411764202123,0.0842949584346545,0.02));
#1928=CARTESIAN_POINT('',(0.0342,0.0842949584346545,0.02));
#1929=CARTESIAN_POINT('',(0.064085,0.0842949584346545,0.02));
#1930=CARTESIAN_POINT('',(0.064085,0.0822949584346545,0.02));
#1931=CARTESIAN_POINT('',(0.066085,0.0822949584346545,0.02));
#1932=CARTESIAN_POINT('',(0.066085,0.025095,0.02));
#1933=CARTESIAN_POINT('',(0.066085,0.025095,0.02));
#1934=CARTESIAN_POINT('',(0.064085,0.025095,0.02));
#1935=CARTESIAN_POINT('',(0.0652247637525016,0.0234515467489206,0.02));
#1936=CARTESIAN_POINT('',(0.063894943504972,0.0219577,0.02));
#1937=CARTESIAN_POINT('',(0.065894943504972,0.0219577,0.02));
#1938=CARTESIAN_POINT('',(0.065894943504972,0.01148,0.02));
#1939=CARTESIAN_POINT('',(0.065894943504972,0.01148,0.02));
#1940=CARTESIAN_POINT('',(0.063894943504972,0.01148,0.02));
#1941=CARTESIAN_POINT('',(0.063894943504972,0.00948,0.02));
#1942=CARTESIAN_POINT('',(0.0342,0.00948,0.02));
#1943=CARTESIAN_POINT('',(0.0266754,0.00948,0.02));
#1944=CARTESIAN_POINT('',(0.0266754,0.01148,0.02));
#1945=CARTESIAN_POINT('',(0.0246754,0.01148,0.02));
#1946=CARTESIAN_POINT('',(0.0246754,0.0432,0.02));
#1947=CARTESIAN_POINT('',(-0.005,-0.005,0.02));
#1948=CARTESIAN_POINT('',(-0.0019,-0.005,0.02));
#1949=CARTESIAN_POINT('',(0.0734,-0.005,0.02));
#1950=CARTESIAN_POINT('',(0.0765,-0.005,0.02));
#1951=CARTESIAN_POINT('',(0.0734,0.0914,0.02));
#1952=CARTESIAN_POINT('',(0.0765,0.0914,0.02));
#1953=CARTESIAN_POINT('',(-0.005,0.0914,0.02));
#1954=CARTESIAN_POINT('',(-0.0019,0.0914,0.02));
#1955=CARTESIAN_POINT('',(0.0342,0.0432,0.017));
#1956=CARTESIAN_POINT('',(0.0256754,0.0432,0.017));
#1957=CARTESIAN_POINT('',(0.0256754,0.01148,0.017));
#1958=CARTESIAN_POINT('',(0.0256754,0.0219577,0.017));
#1959=CARTESIAN_POINT('',(0.0266754,0.01148,0.017));
#1960=CARTESIAN_POINT('',(0.0266754,0.01048,0.017));
#1961=CARTESIAN_POINT('',(0.0342,0.01048,0.017));
#1962=CARTESIAN_POINT('',(0.063894943504972,0.01048,0.017));
#1963=CARTESIAN_POINT('',(0.063894943504972,0.01148,0.017));
#1964=CARTESIAN_POINT('',(0.064894943504972,0.01148,0.017));
#1965=CARTESIAN_POINT('',(0.0648949435049721,0.0432,0.017));
#1966=CARTESIAN_POINT('',(0.064894943504972,0.0219577,0.017));
#1967=CARTESIAN_POINT('',(0.063894943504972,0.0219577,0.017));
#1968=CARTESIAN_POINT('',(0.063894943504972,0.0229577,0.017));
#1969=CARTESIAN_POINT('',(0.0342,0.0229577,0.017));
#1970=CARTESIAN_POINT('',(0.0266754,0.0229577,0.017));
#1971=CARTESIAN_POINT('',(0.0266754,0.0219577,0.017));
#1972=CARTESIAN_POINT('',(0.01966875,0.010276795694232,0.017));
#1973=CARTESIAN_POINT('',(0.01966875,0.00927679569423198,0.017));
#1974=CARTESIAN_POINT('',(0.02066875,0.010276795694232,0.017));
#1975=CARTESIAN_POINT('',(0.02066875,0.0432,0.017));
#1976=CARTESIAN_POINT('',(0.02066875,0.020776795694232,0.017));
#1977=CARTESIAN_POINT('',(0.01966875,0.020776795694232,0.017));
#1978=CARTESIAN_POINT('',(0.01966875,0.021776795694232,0.017));
#1979=CARTESIAN_POINT('',(0.0342,0.021776795694232,0.017));
#1980=CARTESIAN_POINT('',(0.00916875,0.021776795694232,0.017));
#1981=CARTESIAN_POINT('',(0.00916875,0.020776795694232,0.017));
#1982=CARTESIAN_POINT('',(0.00816875,0.020776795694232,0.017));
#1983=CARTESIAN_POINT('',(0.00816875,0.0432,0.017));
#1984=CARTESIAN_POINT('',(0.00816875,0.010276795694232,0.017));
#1985=CARTESIAN_POINT('',(0.00916875,0.010276795694232,0.017));
#1986=CARTESIAN_POINT('',(0.00916875,0.00927679569423195,0.017));
#1987=CARTESIAN_POINT('',(0.0342,0.009276795694232,0.017));
#1988=CARTESIAN_POINT('',(0.0342,-0.01,0.017));
#1989=CARTESIAN_POINT('',(-0.0075,-0.01,0.017));
#1990=CARTESIAN_POINT('',(0.0759,-0.01,0.017));
#1991=CARTESIAN_POINT('',(-0.0075,-0.0075,0.017));
#1992=CARTESIAN_POINT('',(-0.01,-0.0075,0.017));
#1993=CARTESIAN_POINT('',(-0.01,0.0432,0.017));
#1994=CARTESIAN_POINT('',(-0.01,0.0939,0.017));
#1995=CARTESIAN_POINT('',(-0.0075,0.0939,0.017));
#1996=CARTESIAN_POINT('',(-0.0075,0.0964,0.017));
#1997=CARTESIAN_POINT('',(0.0342,0.0964,0.017));
#1998=CARTESIAN_POINT('',(0.0759,0.0964,0.017));
#1999=CARTESIAN_POINT('',(0.0759,0.0939,0.017));
#2000=CARTESIAN_POINT('',(0.0784,0.0939,0.017));
#2001=CARTESIAN_POINT('',(0.0784,0.0432,0.017));
#2002=CARTESIAN_POINT('',(0.0784,-0.0075,0.017));
#2003=CARTESIAN_POINT('',(0.0759,-0.0075,0.017));
#2004=CARTESIAN_POINT('',(-0.005,0.0914,0.017));
#2005=CARTESIAN_POINT('',(-0.0029,0.0914,0.017));
#2006=CARTESIAN_POINT('',(0.0734,0.0914,0.017));
#2007=CARTESIAN_POINT('',(0.0755,0.0914,0.017));
#2008=CARTESIAN_POINT('',(-0.005,-0.005,0.017));
#2009=CARTESIAN_POINT('',(-0.0029,-0.005,0.017));
#2010=CARTESIAN_POINT('',(0.0734,-0.005,0.017));
#2011=CARTESIAN_POINT('',(0.0755,-0.005,0.017));
#2012=CARTESIAN_POINT('',(0.0342,0.0832949584346545,0.017));
#2013=CARTESIAN_POINT('',(0.0629446225708253,0.0832949584346545,0.017));
#2014=CARTESIAN_POINT('',(0.064085,0.0832949584346545,0.017));
#2015=CARTESIAN_POINT('',(0.0339250287611332,0.0830949442773269,0.017));
#2016=CARTESIAN_POINT('',(0.00647810777804142,0.0829057695835779,0.017));
#2017=CARTESIAN_POINT('',(0.00648499999741494,0.0819057933352039,0.017));
#2018=CARTESIAN_POINT('',(0.00548499999741492,0.0819057933352039,0.017));
#2019=CARTESIAN_POINT('',(0.00548499999741492,0.0432,0.017));
#2020=CARTESIAN_POINT('',(0.00548499999741492,0.025095,0.017));
#2021=CARTESIAN_POINT('',(0.00648499999741495,0.025095,0.017));
#2022=CARTESIAN_POINT('',(0.00648499999741492,0.024095,0.017));
#2023=CARTESIAN_POINT('',(0.0342,0.024095,0.017));
#2024=CARTESIAN_POINT('',(0.064085,0.024095,0.017));
#2025=CARTESIAN_POINT('',(0.064085,0.025095,0.017));
#2026=CARTESIAN_POINT('',(0.065085,0.025095,0.017));
#2027=CARTESIAN_POINT('',(0.065085,0.0432,0.017));
#2028=CARTESIAN_POINT('',(0.065085,0.0822949584346545,0.017));
#2029=CARTESIAN_POINT('',(0.064085,0.0822949584346545,0.017));
#2030=CARTESIAN_POINT('',(0.0342,0.0964,0.02));
#2031=CARTESIAN_POINT('',(-0.0075,0.0964,0.02));
#2032=CARTESIAN_POINT('',(-0.0075,0.0964,0.019));
#2033=CARTESIAN_POINT('',(0.0342,0.0964,0.019));
#2034=CARTESIAN_POINT('',(0.0759,0.0964,0.019));
#2035=CARTESIAN_POINT('',(0.0759,0.0964,0.017));
#2036=CARTESIAN_POINT('',(-0.01,0.0432,0.02));
#2037=CARTESIAN_POINT('',(-0.01,-0.0075,0.02));
#2038=CARTESIAN_POINT('',(-0.01,-0.0075,0.019));
#2039=CARTESIAN_POINT('',(-0.01,0.0432,0.019));
#2040=CARTESIAN_POINT('',(-0.01,0.0939,0.019));
#2041=CARTESIAN_POINT('',(-0.01,0.0939,0.02));
#2042=CARTESIAN_POINT('',(0.0342,-0.01,0.02));
#2043=CARTESIAN_POINT('',(0.0759,-0.01,0.02));
#2044=CARTESIAN_POINT('',(0.0759,-0.01,0.019));
#2045=CARTESIAN_POINT('',(-0.0075,-0.01,0.019));
#2046=CARTESIAN_POINT('',(-0.0075,-0.01,0.019));
#2047=CARTESIAN_POINT('',(-0.0075,-0.01,0.017));
#2048=CARTESIAN_POINT('',(-0.005,-0.005,0.02));
#2049=CARTESIAN_POINT('',(-0.005,-0.005,0.019));
#2050=CARTESIAN_POINT('',(-0.0029,-0.005,0.019));
#2051=CARTESIAN_POINT('',(0.0734,0.0914,0.02));
#2052=CARTESIAN_POINT('',(0.0734,0.0914,0.019));
#2053=CARTESIAN_POINT('',(0.0755,0.0914,0.019));
#2054=CARTESIAN_POINT('',(-0.005,0.0914,0.02));
#2055=CARTESIAN_POINT('',(-0.005,0.0914,0.019));
#2056=CARTESIAN_POINT('',(-0.0029,0.0914,0.019));
#2057=CARTESIAN_POINT('',(0.0784,0.0432,0.02));
#2058=CARTESIAN_POINT('',(0.0784,0.0939,0.02));
#2059=CARTESIAN_POINT('',(0.0784,0.0939,0.019));
#2060=CARTESIAN_POINT('',(0.0784,-0.0075,0.019));
#2061=CARTESIAN_POINT('',(0.0784,-0.0075,0.019));
#2062=CARTESIAN_POINT('',(0.0784,-0.0075,0.02));
#2063=CARTESIAN_POINT('',(0.0734,-0.005,0.02));
#2064=CARTESIAN_POINT('',(0.0734,-0.005,0.019));
#2065=CARTESIAN_POINT('',(0.0755,-0.005,0.019));
#2066=CARTESIAN_POINT('',(0.02066875,0.015526795694232,-0.119779524575281));
#2067=CARTESIAN_POINT('',(0.02066875,0.010276795694232,-0.119779524575281));
#2068=CARTESIAN_POINT('',(0.02066875,0.010276795694232,0.019));
#2069=CARTESIAN_POINT('',(0.02066875,0.020776795694232,0.019));
#2070=CARTESIAN_POINT('',(0.02066875,0.020776795694232,0.019));
#2071=CARTESIAN_POINT('',(0.02066875,0.020776795694232,-0.119779524575281));
#2072=CARTESIAN_POINT('',(0.01966875,0.020776795694232,-0.119779524575281));
#2073=CARTESIAN_POINT('',(0.01966875,0.020776795694232,0.019));
#2074=CARTESIAN_POINT('',(0.01966875,0.021776795694232,0.019));
#2075=CARTESIAN_POINT('',(0.01966875,0.021776795694232,-0.119779524575281));
#2076=CARTESIAN_POINT('',(0.01441875,0.021776795694232,-0.119779524575281));
#2077=CARTESIAN_POINT('',(0.00916875,0.021776795694232,0.019));
#2078=CARTESIAN_POINT('',(0.00916875,0.021776795694232,0.019));
#2079=CARTESIAN_POINT('',(0.00916875,0.021776795694232,-0.119779524575281));
#2080=CARTESIAN_POINT('',(0.00916875,0.020776795694232,-0.119779524575281));
#2081=CARTESIAN_POINT('',(0.00916875,0.020776795694232,0.019));
#2082=CARTESIAN_POINT('',(0.00816875,0.020776795694232,0.019));
#2083=CARTESIAN_POINT('',(0.00816875,0.020776795694232,-0.119779524575281));
#2084=CARTESIAN_POINT('',(0.00816875,0.015526795694232,-0.119779524575281));
#2085=CARTESIAN_POINT('',(0.00816875,0.015526795694232,0.019));
#2086=CARTESIAN_POINT('',(0.00816875,0.010276795694232,0.019));
#2087=CARTESIAN_POINT('',(0.00816875,0.010276795694232,-0.119779524575281));
#2088=CARTESIAN_POINT('',(0.00916875,0.010276795694232,-0.119779524575281));
#2089=CARTESIAN_POINT('',(0.00916875,0.010276795694232,0.019));
#2090=CARTESIAN_POINT('',(0.00916875,0.00927679569423195,0.019));
#2091=CARTESIAN_POINT('',(0.00916875,0.00927679569423195,-0.119779524575281));
#2092=CARTESIAN_POINT('',(0.01441875,0.00927679569423197,-0.119779524575281));
#2093=CARTESIAN_POINT('',(0.01441875,0.00927679569423197,0.019));
#2094=CARTESIAN_POINT('',(0.01966875,0.00927679569423198,0.019));
#2095=CARTESIAN_POINT('',(0.01966875,0.00927679569423198,-0.119779524575281));
#2096=CARTESIAN_POINT('',(0.01966875,0.010276795694232,-0.119779524575281));
#2097=CARTESIAN_POINT('',(0.01966875,0.010276795694232,0.019));
#2098=CARTESIAN_POINT('',(0.0256754,0.01671885,-0.119779524575281));
#2099=CARTESIAN_POINT('',(0.0256754,0.0219577,-0.119779524575281));
#2100=CARTESIAN_POINT('',(0.0256754,0.0219577,0.019));
#2101=CARTESIAN_POINT('',(0.0256754,0.01671885,0.019));
#2102=CARTESIAN_POINT('',(0.0256754,0.01148,0.019));
#2103=CARTESIAN_POINT('',(0.0256754,0.01148,-0.119779524575281));
#2104=CARTESIAN_POINT('',(0.0266754,0.01148,-0.119779524575281));
#2105=CARTESIAN_POINT('',(0.0266754,0.01148,0.019));
#2106=CARTESIAN_POINT('',(0.0266754,0.01048,0.019));
#2107=CARTESIAN_POINT('',(0.0266754,0.01048,-0.119779524575281));
#2108=CARTESIAN_POINT('',(0.045285171752486,0.01048,-0.119779524575281));
#2109=CARTESIAN_POINT('',(0.045285171752486,0.01048,0.019));
#2110=CARTESIAN_POINT('',(0.063894943504972,0.01048,0.019));
#2111=CARTESIAN_POINT('',(0.063894943504972,0.01048,-0.119779524575281));
#2112=CARTESIAN_POINT('',(0.063894943504972,0.01148,-0.119779524575281));
#2113=CARTESIAN_POINT('',(0.063894943504972,0.01148,0.019));
#2114=CARTESIAN_POINT('',(0.064894943504972,0.01148,0.019));
#2115=CARTESIAN_POINT('',(0.064894943504972,0.01148,-0.119779524575281));
#2116=CARTESIAN_POINT('',(0.064894943504972,0.01671885,-0.119779524575281));
#2117=CARTESIAN_POINT('',(0.064894943504972,0.0219577,0.019));
#2118=CARTESIAN_POINT('',(0.064894943504972,0.0219577,0.019));
#2119=CARTESIAN_POINT('',(0.064894943504972,0.0219577,-0.119779524575281));
#2120=CARTESIAN_POINT('',(0.063894943504972,0.0219577,-0.119779524575281));
#2121=CARTESIAN_POINT('',(0.063894943504972,0.0219577,0.019));
#2122=CARTESIAN_POINT('',(0.063894943504972,0.0229577,0.019));
#2123=CARTESIAN_POINT('',(0.063894943504972,0.0229577,-0.119779524575281));
#2124=CARTESIAN_POINT('',(0.045285171752486,0.0229577,-0.119779524575281));
#2125=CARTESIAN_POINT('',(0.0266754,0.0229577,0.019));
#2126=CARTESIAN_POINT('',(0.0266754,0.0229577,0.019));
#2127=CARTESIAN_POINT('',(0.0266754,0.0229577,-0.119779524575281));
#2128=CARTESIAN_POINT('',(0.0266754,0.0219577,-0.119779524575281));
#2129=CARTESIAN_POINT('',(0.0266754,0.0219577,0.019));
#2130=CARTESIAN_POINT('',(0.0635148112854127,0.0832949584346545,-0.119779524575281));
#2131=CARTESIAN_POINT('',(0.064085,0.0832949584346545,-0.119779524575281));
#2132=CARTESIAN_POINT('',(0.064085,0.0832949584346545,0.019));
#2133=CARTESIAN_POINT('',(0.0635148112854127,0.0832949584346545,0.019));
#2134=CARTESIAN_POINT('',(0.0629446225708253,0.0832949584346545,0.019));
#2135=CARTESIAN_POINT('',(0.0629446225708253,0.0832949584346545,-0.119779524575281));
#2136=CARTESIAN_POINT('',(0.0347113651744334,0.0831003640091162,-0.119779524575281));
#2137=CARTESIAN_POINT('',(0.00647810777804142,0.0829057695835779,0.019));
#2138=CARTESIAN_POINT('',(0.00647810777804142,0.0829057695835779,0.019));
#2139=CARTESIAN_POINT('',(0.00647810777804142,0.0829057695835779,-0.119779524575281));
#2140=CARTESIAN_POINT('',(0.00648499999741494,0.0819057933352039,-0.119779524575281));
#2141=CARTESIAN_POINT('',(0.00648499999741494,0.0819057933352039,0.019));
#2142=CARTESIAN_POINT('',(0.00548499999741492,0.0819057933352039,0.019));
#2143=CARTESIAN_POINT('',(0.00548499999741492,0.0819057933352039,-0.119779524575281));
#2144=CARTESIAN_POINT('',(0.00548499999741492,0.053500396667602,-0.119779524575281));
#2145=CARTESIAN_POINT('',(0.00548499999741492,0.025095,0.019));
#2146=CARTESIAN_POINT('',(0.00548499999741492,0.025095,0.019));
#2147=CARTESIAN_POINT('',(0.00548499999741492,0.025095,-0.119779524575281));
#2148=CARTESIAN_POINT('',(0.00648499999741495,0.025095,-0.119779524575281));
#2149=CARTESIAN_POINT('',(0.00648499999741495,0.025095,0.019));
#2150=CARTESIAN_POINT('',(0.00648499999741492,0.024095,0.019));
#2151=CARTESIAN_POINT('',(0.00648499999741492,0.024095,-0.119779524575281));
#2152=CARTESIAN_POINT('',(0.0352849999987075,0.024095,-0.119779524575281));
#2153=CARTESIAN_POINT('',(0.0352849999987075,0.024095,0.019));
#2154=CARTESIAN_POINT('',(0.064085,0.024095,0.019));
#2155=CARTESIAN_POINT('',(0.064085,0.024095,-0.119779524575281));
#2156=CARTESIAN_POINT('',(0.064085,0.025095,-0.119779524575281));
#2157=CARTESIAN_POINT('',(0.064085,0.025095,0.019));
#2158=CARTESIAN_POINT('',(0.065085,0.025095,0.019));
#2159=CARTESIAN_POINT('',(0.065085,0.025095,-0.119779524575281));
#2160=CARTESIAN_POINT('',(0.065085,0.0531279723114713,-0.119779524575281));
#2161=CARTESIAN_POINT('',(0.065085,0.0822949584346545,0.019));
#2162=CARTESIAN_POINT('',(0.065085,0.0822949584346545,0.019));
#2163=CARTESIAN_POINT('',(0.065085,0.0822949584346545,-0.119779524575281));
#2164=CARTESIAN_POINT('',(0.064085,0.0822949584346545,-0.119779524575281));
#2165=CARTESIAN_POINT('',(0.064085,0.0822949584346545,0.019));
#2166=CARTESIAN_POINT('',(-0.0075,-0.0075,0.02));
#2167=CARTESIAN_POINT('',(-0.0075,-0.0075,0.019));
#2168=CARTESIAN_POINT('',(-0.0075,0.0939,0.02));
#2169=CARTESIAN_POINT('',(-0.0075,0.0939,0.019));
#2170=CARTESIAN_POINT('',(0.0759,0.0939,0.02));
#2171=CARTESIAN_POINT('',(0.0759,0.0939,0.019));
#2172=CARTESIAN_POINT('',(0.0759,-0.0075,0.02));
#2173=CARTESIAN_POINT('',(0.0759,-0.0075,0.019));
#2174=CARTESIAN_POINT('',(0.0342,-0.009,0.019));
#2175=CARTESIAN_POINT('',(0.0759,-0.009,0.019));
#2176=CARTESIAN_POINT('',(-0.0075,-0.009,0.019));
#2177=CARTESIAN_POINT('',(-0.0075,-0.0075,0.019));
#2178=CARTESIAN_POINT('',(-0.009,-0.0075,0.019));
#2179=CARTESIAN_POINT('',(0.0759,-0.0075,0.019));
#2180=CARTESIAN_POINT('',(0.0774,-0.0075,0.019));
#2181=CARTESIAN_POINT('',(-0.009,0.0432,0.019));
#2182=CARTESIAN_POINT('',(-0.009,0.0939,0.019));
#2183=CARTESIAN_POINT('',(0.0774,0.0432,0.019));
#2184=CARTESIAN_POINT('',(0.0774,0.0939,0.019));
#2185=CARTESIAN_POINT('',(-0.0075,0.0939,0.019));
#2186=CARTESIAN_POINT('',(-0.0075,0.0954,0.019));
#2187=CARTESIAN_POINT('',(0.0759,0.0939,0.019));
#2188=CARTESIAN_POINT('',(0.0759,0.0954,0.019));
#2189=CARTESIAN_POINT('',(0.0342,0.0954,0.019));
#2190=CARTESIAN_POINT('',(0.0342,0.00948,0.019));
#2191=CARTESIAN_POINT('',(0.063894943504972,0.00948,0.019));
#2192=CARTESIAN_POINT('',(0.0266754,0.00948,0.019));
#2193=CARTESIAN_POINT('',(0.0266754,0.01148,0.019));
#2194=CARTESIAN_POINT('',(0.0246754,0.01148,0.019));
#2195=CARTESIAN_POINT('',(0.063894943504972,0.01148,0.019));
#2196=CARTESIAN_POINT('',(0.065894943504972,0.01148,0.019));
#2197=CARTESIAN_POINT('',(0.0246754,0.0432,0.019));
#2198=CARTESIAN_POINT('',(0.0246754,0.0219577,0.019));
#2199=CARTESIAN_POINT('',(0.065894943504972,0.01671885,0.019));
#2200=CARTESIAN_POINT('',(0.065894943504972,0.0219577,0.019));
#2201=CARTESIAN_POINT('',(0.045285171752486,0.0239577,0.019));
#2202=CARTESIAN_POINT('',(0.0266754,0.0239577,0.019));
#2203=CARTESIAN_POINT('',(0.0266754,0.02352635,0.019902184669289));
#2204=CARTESIAN_POINT('',(0.063894943504972,0.0239577,0.019));
#2205=CARTESIAN_POINT('',(0.063894943504972,0.02352635,0.019902184669289));
#2206=CARTESIAN_POINT('',(0.045285171752486,0.02352635,0.019902184669289));
#2207=CARTESIAN_POINT('',(0.0266754,0.0219577,0.019));
#2208=CARTESIAN_POINT('',(0.0250302408253303,0.023095,0.02));
#2209=CARTESIAN_POINT('',(0.0255364172043893,0.0233599338837681,0.02));
#2210=CARTESIAN_POINT('',(0.0260980602546497,0.0235263500000013,0.0199021846692883));
#2211=CARTESIAN_POINT('',(0.0266753999999998,0.0235263500000013,0.0199021846692883));
#2212=CARTESIAN_POINT('',(0.00648499999741495,0.025095,0.019));
#2213=CARTESIAN_POINT('',(0.00448499999741492,0.025095,0.019));
#2214=CARTESIAN_POINT('',(0.00648499999741489,0.023095,0.019));
#2215=CARTESIAN_POINT('',(0.063894943504972,0.0219577,0.019));
#2216=CARTESIAN_POINT('',(0.063894943504972,0.02352635,0.0199021846692889));
#2217=CARTESIAN_POINT('',(0.0639583668642433,0.02352635,0.0199021846692889));
#2218=CARTESIAN_POINT('',(0.064021718655545,0.0235244267841382,0.0199031116121329));
#2219=CARTESIAN_POINT('',(0.064085,0.0235205932232649,0.0199049145861964));
#2220=CARTESIAN_POINT('',(0.064085,0.0235205932232649,0.0199049145861964));
#2221=CARTESIAN_POINT('',(0.0652247637525016,0.0234515467489206,0.02));
#2222=CARTESIAN_POINT('',(0.0648435200471274,0.0234746423541825,0.02));
#2223=CARTESIAN_POINT('',(0.0644666685739668,0.0234974718796157,0.0199157888580005));
#2224=CARTESIAN_POINT('',(0.064085,0.0235205932232649,0.0199049145861964));
#2225=CARTESIAN_POINT('',(0.0342,0.023095,0.019));
#2226=CARTESIAN_POINT('',(0.064085,0.023095,0.019));
#2227=CARTESIAN_POINT('',(0.00448499999741492,0.053500396667602,0.019));
#2228=CARTESIAN_POINT('',(0.00448499999741492,0.0819057933352039,0.019));
#2229=CARTESIAN_POINT('',(0.064085,0.025095,0.019));
#2230=CARTESIAN_POINT('',(0.066085,0.025095,0.019));
#2231=CARTESIAN_POINT('',(0.00648499999741494,0.0819057933352039,0.019));
#2232=CARTESIAN_POINT('',(0.0064712155586679,0.0839057458319519,0.019));
#2233=CARTESIAN_POINT('',(0.066085,0.0531279723114713,0.019));
#2234=CARTESIAN_POINT('',(0.066085,0.0822949584346545,0.019));
#2235=CARTESIAN_POINT('',(0.0347044729550599,0.0841003402574902,0.019));
#2236=CARTESIAN_POINT('',(0.0629411764202107,0.0842949584346545,0.019));
#2237=CARTESIAN_POINT('',(0.064085,0.0822949584346545,0.019));
#2238=CARTESIAN_POINT('',(0.064085,0.0842949584346545,0.019));
#2239=CARTESIAN_POINT('',(0.0342,0.0842949584346545,0.019));
#2240=CARTESIAN_POINT('',(0.00716875,0.0432,0.019));
#2241=CARTESIAN_POINT('',(0.00716875,0.020776795694232,0.019));
#2242=CARTESIAN_POINT('',(0.00716875,0.010276795694232,0.019));
#2243=CARTESIAN_POINT('',(0.00916875,0.010276795694232,0.019));
#2244=CARTESIAN_POINT('',(0.00916875,0.00827679569423195,0.019));
#2245=CARTESIAN_POINT('',(0.00916875,0.020776795694232,0.019));
#2246=CARTESIAN_POINT('',(0.00916875,0.022776795694232,0.019));
#2247=CARTESIAN_POINT('',(0.0342,0.008276795694232,0.019));
#2248=CARTESIAN_POINT('',(0.01966875,0.00827679569423198,0.019));
#2249=CARTESIAN_POINT('',(0.01441875,0.022776795694232,0.019));
#2250=CARTESIAN_POINT('',(0.01966875,0.022776795694232,0.019));
#2251=CARTESIAN_POINT('',(0.01966875,0.010276795694232,0.019));
#2252=CARTESIAN_POINT('',(0.02166875,0.010276795694232,0.019));
#2253=CARTESIAN_POINT('',(0.01966875,0.020776795694232,0.019));
#2254=CARTESIAN_POINT('',(0.02166875,0.020776795694232,0.019));
#2255=CARTESIAN_POINT('',(0.02166875,0.015526795694232,0.019));
#2256=CARTESIAN_POINT('',(-0.005,-0.005,0.019));
#2257=CARTESIAN_POINT('',(0.0734,-0.005,0.019));
#2258=CARTESIAN_POINT('',(0.0734,0.0914,0.019));
#2259=CARTESIAN_POINT('',(-0.005,0.0914,0.019));
#2260=MECHANICAL_DESIGN_GEOMETRIC_PRESENTATION_REPRESENTATION('',(#1276),
#2261);
#2261=(
GEOMETRIC_REPRESENTATION_CONTEXT(3)
GLOBAL_UNCERTAINTY_ASSIGNED_CONTEXT((#2262))
GLOBAL_UNIT_ASSIGNED_CONTEXT((#2265,#2264,#2263))
REPRESENTATION_CONTEXT('top part','TOP_LEVEL_ASSEMBLY_PART')
);
#2262=UNCERTAINTY_MEASURE_WITH_UNIT(LENGTH_MEASURE(2.E-5),#2265,
'DISTANCE_ACCURACY_VALUE','Maximum Tolerance applied to model');
#2263=(
NAMED_UNIT(*)
SI_UNIT($,.STERADIAN.)
SOLID_ANGLE_UNIT()
);
#2264=(
NAMED_UNIT(*)
PLANE_ANGLE_UNIT()
SI_UNIT($,.RADIAN.)
);
#2265=(
LENGTH_UNIT()
NAMED_UNIT(*)
SI_UNIT($,.METRE.)
);
#2266=PRODUCT_DEFINITION_SHAPE('','',#2267);
#2267=PRODUCT_DEFINITION('','',#2269,#2268);
#2268=PRODUCT_DEFINITION_CONTEXT('',#2275,'design');
#2269=PRODUCT_DEFINITION_FORMATION_WITH_SPECIFIED_SOURCE('','',#2271,
 .NOT_KNOWN.);
#2270=PRODUCT_RELATED_PRODUCT_CATEGORY('','',(#2271));
#2271=PRODUCT('top part','top part','top part',(#2273));
#2272=PRODUCT_CATEGORY('','');
#2273=PRODUCT_CONTEXT('',#2275,'mechanical');
#2274=APPLICATION_PROTOCOL_DEFINITION('international standard',
'ap242_managed_model_based_3d_engineering',2020,#2275);
#2275=APPLICATION_CONTEXT('managed model based 3d engineering');
ENDSEC;
END-ISO-10303-21;
